<?xml version="1.0" standalone="no"?>
<!DOCTYPE svg PUBLIC "-//W3C//DTD SVG 20010904//EN"
 "http://www.w3.org/TR/2001/REC-SVG-20010904/DTD/svg10.dtd">
<svg version="1.0" xmlns="http://www.w3.org/2000/svg"
 width="1280.000000pt" height="1045.000000pt" viewBox="0 0 1280.000000 1045.000000"
 preserveAspectRatio="xMidYMid meet">
<metadata>
Created by potrace 1.15, written by Peter Selinger 2001-2017
</metadata>
<g transform="translate(0.000000,1045.000000) scale(0.100000,-0.100000)"
fill="#000000" stroke="none">
<path d="M9690 10437 c0 -23 53 -89 104 -130 25 -22 71 -69 101 -105 30 -37
75 -92 100 -122 26 -30 96 -125 158 -210 163 -226 287 -371 501 -586 182 -182
509 -469 570 -501 15 -8 32 -11 36 -6 9 9 -135 448 -188 573 -34 81 -153 296
-199 359 -79 109 -118 154 -199 230 -189 177 -440 314 -841 462 -73 27 -135
49 -138 49 -3 0 -5 -6 -5 -13z"/>
<path d="M2890 10358 c-48 -10 -480 -214 -590 -278 -163 -95 -311 -230 -435
-395 -160 -215 -212 -313 -266 -509 -21 -78 -61 -208 -89 -291 -27 -82 -50
-155 -50 -162 0 -30 41 -8 135 73 55 48 145 123 200 168 55 44 172 153 261
241 149 149 177 183 396 485 223 308 289 391 369 472 46 46 179 197 179 203 0
8 -60 4 -110 -7z"/>
<path d="M10900 9853 c0 -3 29 -35 64 -72 125 -131 174 -192 216 -271 51 -99
72 -158 115 -325 18 -71 77 -287 130 -480 52 -192 94 -357 93 -365 -2 -9 -33
17 -83 70 -129 138 -214 216 -315 290 -52 39 -162 119 -245 180 -82 61 -181
132 -220 159 -91 64 -143 119 -250 266 -112 153 -107 149 -100 95 25 -176 62
-295 145 -465 111 -225 319 -459 615 -689 208 -162 301 -241 444 -380 151
-148 233 -245 288 -344 l38 -67 7 40 c10 59 9 986 -2 1163 -5 85 -14 181 -20
215 -32 180 -137 390 -277 553 -165 191 -350 335 -506 393 -65 24 -137 42
-137 34z"/>
<path d="M1619 9712 c-133 -66 -245 -150 -357 -267 -207 -215 -289 -362 -340
-610 -57 -278 -66 -471 -36 -770 9 -93 18 -276 19 -405 2 -129 3 -243 4 -252
2 -37 30 -16 60 45 83 166 296 395 571 612 305 240 565 522 696 752 90 159
162 347 171 446 5 49 3 57 -11 57 -22 0 -58 -38 -117 -121 -59 -83 -187 -197
-469 -417 -241 -188 -380 -304 -446 -374 -69 -71 -153 -187 -182 -249 -15 -32
-30 -59 -34 -59 -9 0 2 37 78 280 36 113 78 264 95 335 86 362 130 531 161
607 54 134 124 244 215 337 46 46 80 87 77 92 -12 20 -65 6 -155 -39z"/>
<path d="M11897 9024 c-13 -14 -7 -45 22 -102 47 -93 89 -225 102 -318 10 -68
10 -159 0 -423 -7 -185 -16 -551 -20 -814 -5 -263 -11 -481 -14 -484 -3 -3
-11 15 -17 38 -18 74 -62 202 -83 244 -76 152 -215 317 -453 537 -177 164
-430 418 -501 503 -30 37 -44 47 -53 39 -17 -16 21 -187 74 -336 130 -366 182
-457 518 -911 323 -436 422 -609 533 -932 21 -60 41 -114 46 -119 20 -22 86
183 174 533 35 141 86 321 114 399 62 174 77 239 96 401 42 356 -7 810 -116
1088 -34 86 -117 254 -167 338 -72 122 -241 333 -255 319z"/>
<path d="M757 8871 c-72 -77 -152 -207 -268 -436 -82 -163 -111 -230 -127
-300 -49 -207 -73 -557 -53 -779 17 -198 53 -354 131 -569 143 -398 179 -509
230 -717 l53 -213 22 56 c13 30 37 102 55 159 18 56 61 160 96 229 58 114 368
595 508 789 186 258 275 431 381 740 62 181 82 330 42 318 -7 -3 -56 -56 -109
-119 -62 -74 -132 -144 -195 -194 -144 -114 -377 -352 -471 -480 -136 -183
-231 -390 -280 -605 -20 -84 -20 -84 -21 -35 -1 28 6 154 15 280 20 275 12
463 -36 835 -17 129 -33 294 -37 365 -11 234 26 460 102 633 19 44 35 83 35
86 0 19 -33 -1 -73 -43z"/>
<path d="M12607 7323 c-3 -5 -10 -75 -17 -158 -29 -380 -106 -662 -295 -1085
-130 -290 -232 -600 -260 -792 -4 -27 -11 -48 -16 -48 -12 0 -18 47 -29 230
-5 91 -17 194 -25 228 -27 112 -180 446 -260 567 -40 61 -94 146 -120 190 -70
119 -241 454 -255 500 -6 22 -13 46 -15 52 -7 20 -32 4 -46 -28 -18 -44 -5
-272 25 -454 64 -380 161 -769 308 -1235 110 -349 111 -356 113 -691 2 -158 6
-292 9 -298 13 -21 25 -11 87 77 35 48 136 184 224 302 381 508 464 631 529
784 240 561 270 1354 71 1829 -16 38 -20 43 -28 30z"/>
<path d="M110 7160 c-49 -163 -96 -448 -106 -640 -9 -167 20 -486 61 -671 22
-99 97 -319 154 -452 116 -269 255 -486 466 -722 99 -111 221 -273 289 -384
28 -46 56 -86 63 -88 22 -8 31 69 37 309 9 342 26 455 101 688 39 122 143 490
209 740 24 91 38 173 51 290 4 30 18 120 32 200 20 117 25 183 26 347 1 110
-1 205 -6 209 -27 28 -231 -357 -472 -891 -198 -437 -219 -516 -216 -816 1
-113 -3 -217 -8 -230 l-9 -24 -10 25 c-5 14 -22 93 -37 175 -52 295 -110 486
-203 670 -24 50 -56 119 -69 155 -13 36 -46 115 -73 175 -149 334 -197 503
-220 775 -16 186 -21 230 -31 230 -4 0 -17 -31 -29 -70z"/>
<path d="M11333 5563 c-51 -111 -141 -437 -167 -603 -32 -209 -91 -755 -101
-950 -11 -204 -51 -458 -114 -722 -40 -169 -69 -252 -130 -377 -28 -57 -48
-108 -45 -113 6 -9 11 -7 224 126 131 81 598 391 760 505 99 69 233 185 350
301 340 341 545 694 630 1085 61 282 78 613 35 672 -21 28 -33 7 -50 -89 -28
-163 -101 -331 -207 -478 -93 -128 -128 -168 -378 -435 -379 -405 -411 -443
-575 -680 -158 -227 -228 -325 -233 -321 -2 2 19 48 46 102 128 257 185 586
152 876 -6 48 -30 196 -55 330 -68 371 -76 428 -85 625 -5 100 -12 189 -17
198 -8 13 -16 2 -40 -52z"/>
<path d="M1416 5448 c-3 -7 -7 -48 -10 -91 -7 -95 -46 -331 -81 -492 -43 -197
-54 -287 -61 -504 -8 -248 7 -462 41 -597 24 -93 43 -139 111 -261 78 -138 -7
-52 -109 112 -116 184 -222 313 -557 668 -380 405 -424 455 -491 559 -123 191
-174 301 -203 441 -9 43 -21 88 -28 100 -11 21 -12 20 -21 -18 -12 -55 -1
-406 18 -535 32 -226 84 -385 192 -589 142 -266 287 -445 568 -697 87 -78 570
-423 748 -534 48 -30 172 -110 276 -177 176 -115 221 -138 221 -113 0 6 -36
90 -79 188 -44 97 -88 209 -99 247 -59 205 -106 498 -132 815 -53 653 -154
1240 -247 1438 -23 49 -49 67 -57 40z"/>
<path d="M10888 4273 c-24 -27 -91 -119 -221 -303 -124 -176 -257 -412 -320
-570 -14 -36 -39 -99 -55 -140 -17 -41 -69 -190 -117 -330 -120 -356 -159
-457 -227 -594 -105 -210 -179 -319 -327 -479 -45 -48 -79 -93 -75 -98 8 -13
85 -3 134 18 81 33 328 87 590 128 299 47 572 128 770 231 303 156 698 474
890 714 205 257 318 479 411 809 49 176 40 181 -51 25 -95 -162 -255 -336
-462 -504 -127 -103 -208 -150 -598 -350 -498 -255 -773 -429 -998 -632 -89
-81 -79 -52 20 57 130 144 217 271 301 441 110 221 137 325 227 864 49 296 81
440 127 583 34 106 38 147 18 154 -6 2 -23 -9 -37 -24z"/>
<path d="M1847 4214 c-9 -10 1 -57 44 -196 22 -69 45 -159 53 -200 7 -40 29
-156 49 -258 20 -102 41 -229 47 -284 12 -116 44 -248 107 -441 50 -153 74
-205 158 -347 79 -130 128 -191 209 -258 39 -32 96 -84 126 -115 l55 -58 -85
59 c-47 32 -116 81 -155 110 -201 148 -539 364 -665 424 -646 311 -838 427
-1051 639 -108 108 -181 200 -260 328 -42 70 -66 93 -56 56 3 -10 11 -49 18
-88 21 -122 138 -387 250 -568 77 -124 184 -262 289 -371 287 -299 579 -500
918 -633 156 -61 293 -95 592 -147 141 -24 314 -58 385 -75 250 -59 366 -74
380 -51 3 5 -7 16 -22 24 -86 45 -266 297 -397 555 -91 179 -96 191 -206 511
-198 578 -320 821 -569 1140 -41 52 -98 130 -128 173 -50 71 -70 87 -86 71z"/>
<path d="M10005 2941 c-92 -53 -187 -132 -545 -455 -36 -33 -159 -150 -275
-260 -319 -305 -418 -389 -595 -506 -182 -119 -357 -190 -575 -233 -173 -34
-167 -66 15 -82 91 -8 190 -28 460 -94 246 -59 565 -125 744 -153 190 -29 542
-36 696 -14 466 68 914 314 1239 678 107 121 265 367 247 385 -6 7 -59 -36
-176 -142 -107 -97 -148 -125 -268 -185 -260 -127 -407 -160 -987 -225 -176
-20 -423 -49 -550 -65 -224 -28 -521 -60 -554 -60 -9 1 22 16 69 33 183 71
408 203 481 283 49 55 166 221 235 334 57 94 105 191 209 422 29 64 83 166
120 227 80 133 81 153 10 112z"/>
<path d="M2724 2895 c4 -14 35 -71 70 -128 35 -56 124 -217 199 -358 254 -478
346 -601 551 -734 100 -66 177 -102 299 -140 48 -15 87 -30 87 -34 0 -8 -27
-6 -230 19 -200 25 -589 64 -900 90 -379 31 -498 50 -690 105 -225 66 -395
154 -570 295 -176 142 -194 135 -76 -31 122 -170 301 -357 466 -484 240 -185
558 -329 840 -381 116 -22 474 -30 637 -15 166 15 368 47 463 71 41 11 125 31
185 45 61 13 196 47 300 74 105 27 264 65 355 85 91 20 176 39 190 42 19 5 0
13 -81 35 -113 30 -446 154 -572 212 -151 70 -219 125 -612 497 -416 394 -665
612 -813 711 -84 56 -107 62 -98 24z"/>
<path d="M6910 1449 c-128 -12 -261 -37 -378 -70 -58 -16 -117 -29 -132 -29
-14 0 -65 13 -113 29 -133 45 -214 54 -512 54 -319 1 -441 -13 -650 -72 -234
-67 -603 -205 -931 -349 -185 -81 -310 -122 -478 -156 -406 -83 -720 -47
-1098 125 -102 46 -148 59 -148 41 0 -10 159 -167 220 -218 116 -96 333 -220
535 -307 184 -78 568 -135 731 -108 295 50 416 81 573 148 192 82 323 160 726
433 271 183 439 260 632 290 82 12 174 8 203 -10 21 -13 6 -23 -180 -121 -317
-167 -533 -316 -865 -594 -151 -126 -312 -281 -321 -307 -8 -25 23 -58 131
-143 102 -79 120 -89 144 -76 10 6 48 46 84 88 148 177 550 555 709 668 46 32
131 94 191 137 59 44 142 98 185 120 42 23 95 54 117 68 56 37 80 41 159 25
135 -28 239 -91 541 -323 216 -166 326 -263 535 -471 216 -216 304 -291 339
-291 51 0 231 175 231 225 0 27 -137 159 -310 296 -134 107 -193 150 -495 364
-60 43 -213 133 -339 201 l-228 122 58 13 c93 21 227 16 314 -10 140 -43 296
-131 528 -298 213 -154 507 -317 692 -386 381 -142 862 -162 1200 -50 106 34
342 150 446 219 177 117 425 337 409 364 -7 11 -17 7 -195 -78 -214 -103 -335
-129 -626 -139 -391 -13 -642 36 -988 191 -395 178 -785 314 -1031 361 -169
32 -428 42 -615 24z"/>
</g>
</svg>
