<?xml version="1.0" standalone="no"?>
<!DOCTYPE svg PUBLIC "-//W3C//DTD SVG 20010904//EN"
 "http://www.w3.org/TR/2001/REC-SVG-20010904/DTD/svg10.dtd">
<svg version="1.0" xmlns="http://www.w3.org/2000/svg"
 width="1280.000000pt" height="980.000000pt" viewBox="0 0 1280.000000 980.000000"
 preserveAspectRatio="xMidYMid meet">
<metadata>
Created by potrace 1.15, written by Peter Selinger 2001-2017
</metadata>
<g transform="translate(0.000000,980.000000) scale(0.100000,-0.100000)"
fill="#000000" stroke="none">
<path d="M2261 9013 c-82 -88 -162 -205 -215 -311 -69 -137 -108 -339 -126
-644 -8 -143 -13 -174 -32 -212 l-23 -45 2 222 c4 362 29 602 87 842 30 122
15 125 -52 13 -104 -174 -182 -357 -218 -513 -27 -115 -26 -464 1 -660 30
-210 28 -230 -30 -360 l-50 -110 0 160 c0 93 -8 227 -19 320 -15 133 -18 202
-13 405 5 210 24 432 43 493 3 10 0 17 -9 17 -39 0 -211 -446 -246 -641 -39
-219 -14 -489 79 -867 22 -90 40 -171 40 -181 0 -14 -58 -180 -89 -256 -5 -12
-6 8 -4 50 7 90 -12 259 -43 405 -75 345 -99 585 -92 920 3 142 1 219 -5 217
-14 -4 -69 -150 -111 -295 -64 -220 -96 -414 -96 -582 0 -175 62 -472 155
-740 26 -74 58 -169 72 -210 l24 -74 -30 -111 c-17 -60 -31 -119 -31 -129 0
-11 -2 -17 -5 -14 -3 3 -8 43 -10 88 -9 158 -37 284 -120 540 -107 331 -175
672 -201 1008 -4 61 -10 92 -18 89 -6 -2 -19 -41 -28 -88 -51 -249 -74 -548
-58 -749 20 -242 118 -561 275 -895 26 -55 60 -131 77 -170 l29 -70 -17 -118
-18 -119 -18 89 c-32 155 -68 255 -180 496 -126 274 -223 571 -288 889 -40
190 -45 194 -60 42 -13 -131 -13 -422 0 -559 31 -324 142 -609 407 -1040 l110
-180 -5 -127 c-4 -130 -14 -161 -26 -87 -18 110 -106 295 -255 532 -152 244
-297 556 -391 846 -20 64 -41 114 -46 111 -12 -6 -8 -215 6 -350 55 -519 178
-786 599 -1300 l98 -120 6 -82 c4 -46 7 -105 7 -133 l0 -50 -24 56 c-58 141
-130 251 -291 439 -192 225 -359 480 -496 757 -94 192 -100 186 -58 -52 67
-374 175 -650 341 -872 79 -105 298 -333 466 -483 l82 -75 15 -105 c7 -57 12
-106 11 -107 -1 -2 -17 18 -34 45 -56 87 -160 198 -304 327 -265 236 -505 513
-683 788 -27 42 -54 77 -59 77 -31 0 108 -378 221 -604 162 -322 375 -548 766
-811 l144 -97 21 -96 c12 -53 26 -115 31 -137 9 -36 8 -38 -5 -20 -126 172
-212 256 -412 406 -258 194 -519 443 -711 679 -80 99 -121 138 -121 116 0 -16
139 -306 192 -401 86 -155 214 -346 294 -438 134 -157 406 -358 697 -517 l137
-74 31 -96 c18 -52 45 -128 60 -168 16 -40 29 -75 29 -78 0 -3 -23 22 -52 57
-99 118 -253 235 -513 388 -230 135 -480 331 -716 561 -73 72 -134 130 -136
130 -34 0 197 -382 356 -588 242 -312 508 -496 1018 -702 l132 -54 50 -104
c28 -57 51 -106 51 -108 0 -2 -28 19 -62 47 -101 81 -231 153 -444 244 -203
88 -301 137 -459 233 -133 80 -337 221 -444 306 -52 42 -98 73 -102 70 -18
-11 161 -248 330 -439 171 -193 343 -336 516 -430 168 -92 441 -191 689 -251
l120 -29 64 -100 c36 -55 78 -117 94 -138 33 -41 30 -47 -10 -18 -96 67 -265
132 -487 186 -275 68 -626 212 -863 356 -71 43 -72 44 -72 28 0 -21 111 -138
236 -251 208 -187 372 -298 542 -366 167 -67 470 -129 721 -148 l95 -7 40 -46
c23 -25 75 -81 116 -125 41 -43 71 -77 65 -75 -5 3 -40 18 -76 35 -145 68
-263 97 -501 119 -309 29 -600 98 -871 206 -153 61 -156 52 -18 -60 211 -169
459 -313 639 -371 191 -62 414 -82 758 -67 l211 9 84 -68 c46 -37 75 -64 64
-60 -11 4 -63 17 -115 28 -88 19 -118 20 -415 13 -428 -9 -635 12 -984 97 -7
1 -15 -2 -17 -7 -5 -12 159 -112 286 -175 130 -65 287 -125 407 -157 103 -27
119 -28 318 -27 226 1 303 9 567 65 l147 32 93 -58 c51 -32 96 -61 100 -64 4
-3 -37 -4 -90 -2 -120 4 -238 -11 -412 -55 -279 -69 -587 -101 -858 -90 -181
7 -190 0 -61 -52 203 -82 460 -145 644 -158 212 -14 512 54 855 196 l120 49
142 -69 c135 -66 141 -70 101 -70 -114 0 -305 -41 -493 -105 -297 -101 -568
-153 -918 -177 -110 -8 -171 -16 -169 -22 7 -21 287 -92 482 -122 150 -23 392
-23 509 0 197 38 405 113 689 248 l170 80 156 -57 c86 -32 161 -60 168 -64 6
-3 -34 -6 -90 -7 -170 -2 -340 -46 -607 -157 -326 -135 -664 -227 -1004 -271
-59 -8 -111 -17 -114 -21 -16 -16 70 -36 283 -67 123 -17 528 -17 620 0 223
43 503 155 790 317 77 43 172 95 210 115 l70 38 185 -63 c102 -34 219 -75 260
-89 100 -36 289 -89 615 -176 642 -170 938 -267 984 -323 7 -9 20 -17 28 -17
13 0 15 15 11 93 -3 78 -8 100 -33 147 -60 110 -166 141 -990 290 -214 39
-453 84 -530 101 -168 35 -429 107 -448 123 -7 6 -24 56 -36 111 -55 241 -138
468 -212 580 -26 38 -78 100 -116 136 -99 96 -314 232 -334 212 -5 -5 11 -33
35 -63 120 -152 245 -375 317 -566 53 -142 110 -252 163 -318 l45 -54 -82 28
c-130 44 -231 82 -240 90 -5 4 -17 74 -28 156 -36 273 -80 446 -145 575 -60
121 -195 271 -333 373 -79 58 -95 49 -48 -25 105 -164 193 -379 262 -639 44
-165 75 -246 125 -327 22 -35 38 -63 36 -63 -9 0 -219 96 -317 146 l-111 55 6
47 c17 133 27 361 22 472 -11 197 -38 306 -114 455 -62 123 -211 329 -226 314
-4 -4 9 -58 28 -121 52 -172 85 -360 96 -553 19 -320 35 -415 88 -522 11 -24
18 -43 16 -43 -2 0 -52 30 -111 66 -60 37 -120 74 -135 83 -32 19 -32 18 -13
136 50 300 60 626 24 792 -30 138 -70 247 -149 408 -67 135 -112 206 -124 195
-3 -3 6 -59 19 -124 50 -244 59 -357 60 -736 1 -323 3 -363 23 -447 11 -51 26
-102 32 -113 6 -11 7 -20 3 -20 -12 0 -211 160 -275 221 l-57 54 54 161 c70
207 111 375 132 541 15 113 16 148 5 250 -18 178 -63 369 -125 531 -36 95 -42
70 -42 -186 -1 -273 -10 -369 -67 -652 -37 -182 -42 -221 -42 -350 -1 -80 2
-165 7 -190 l7 -45 -95 100 c-52 55 -97 108 -100 118 -4 9 17 81 48 165 126
338 188 585 203 802 11 164 -25 453 -85 685 -35 132 -48 168 -60 161 -4 -3
-11 -101 -14 -218 -8 -306 -37 -523 -112 -833 -19 -77 -41 -181 -50 -232 -17
-102 -21 -344 -6 -408 6 -22 8 -41 7 -43 -5 -4 -158 204 -214 292 l-49 76 80
157 c147 289 227 494 269 688 39 179 35 523 -9 803 -19 125 -37 136 -47 30
-27 -285 -111 -633 -225 -941 -91 -246 -130 -415 -131 -567 l-1 -65 -64 120
c-35 66 -76 148 -91 181 l-26 62 89 133 c332 497 423 770 423 1270 0 214 -8
299 -26 299 -8 0 -14 -9 -14 -19 0 -34 -80 -338 -122 -464 -53 -159 -117 -314
-188 -458 -125 -249 -181 -414 -198 -584 l-8 -80 -51 130 c-28 72 -65 172 -83
223 l-32 92 68 76 c270 299 427 534 499 749 51 153 97 390 110 570 3 44 8 106
11 138 9 98 -16 70 -71 -80 -96 -262 -226 -519 -370 -730 -152 -222 -220 -356
-261 -512 -12 -46 -24 -79 -27 -75 -8 14 -67 241 -67 259 0 9 45 65 101 125
194 209 350 419 437 590 86 171 152 436 182 729 21 213 9 231 -49 76 -111
-297 -252 -559 -447 -833 -131 -185 -205 -330 -243 -476 l-18 -70 -21 115
c-28 146 -52 298 -52 324 0 14 36 49 111 109 375 303 538 523 645 875 32 104
84 326 84 359 0 32 -23 3 -81 -100 -134 -242 -277 -439 -473 -648 -146 -156
-226 -277 -292 -445 -10 -25 -21 89 -22 230 l-1 100 92 70 c283 217 485 424
595 610 75 128 161 360 206 555 13 58 38 134 54 170 34 74 102 265 102 286 0
28 -19 13 -63 -48 -140 -196 -359 -420 -587 -603 -179 -144 -271 -235 -331
-328 -24 -37 -39 -53 -39 -41 0 25 23 175 45 291 l17 92 141 61 c454 198 627
348 804 697 61 118 119 260 111 269 -3 3 -82 -71 -175 -164 -180 -180 -286
-267 -453 -371 -194 -120 -289 -202 -364 -311 -43 -63 -43 -68 10 134 18 71
37 133 41 137 4 4 49 24 98 44 135 56 314 147 412 211 208 136 372 356 503
673 54 131 42 132 -67 7 -137 -157 -339 -328 -530 -447 -154 -96 -213 -141
-291 -223 -39 -42 -72 -75 -72 -73 0 5 112 315 137 379 24 62 30 69 67 82 23
9 86 32 141 52 319 115 476 228 620 445 74 111 170 303 160 319 -4 6 -57 -38
-124 -102 -131 -127 -251 -216 -403 -300 -167 -92 -233 -137 -307 -210 l-70
-68 80 182 c44 100 87 195 97 211 14 24 39 37 147 76 270 99 404 185 514 331
88 117 219 368 205 392 -3 5 -56 -40 -117 -99 -154 -149 -237 -209 -461 -334
-43 -24 -99 -61 -123 -83 -24 -21 -46 -37 -48 -35 -2 2 15 31 37 64 49 73 92
156 110 212 10 32 22 47 53 64 155 86 331 227 402 322 81 109 199 384 219 509
9 54 -7 48 -51 -19 -99 -150 -247 -314 -390 -431 -44 -36 -99 -84 -122 -106
-26 -24 -43 -34 -43 -26 0 30 49 228 80 323 17 54 51 146 76 204 24 58 44 110
44 114 0 21 -23 4 -89 -68z m-592 -3305 c-24 -29 -105 -116 -179 -193 -160
-166 -224 -248 -288 -373 l-48 -93 3 88 c2 48 6 129 9 179 l6 91 101 59 c127
73 316 198 382 252 28 23 52 41 53 42 2 0 -16 -24 -39 -52z"/>
<path d="M10450 9081 c0 -4 20 -56 44 -114 25 -58 59 -150 76 -204 31 -95 80
-293 80 -323 0 -8 -17 2 -42 26 -24 22 -79 70 -123 106 -143 117 -291 281
-390 431 -44 67 -60 73 -51 19 20 -125 138 -400 219 -509 71 -95 247 -236 402
-322 31 -17 43 -32 53 -64 18 -56 61 -139 110 -212 22 -33 39 -62 37 -64 -2
-2 -24 14 -48 35 -24 22 -80 59 -123 83 -224 125 -307 185 -461 334 -61 59
-114 104 -117 99 -14 -24 117 -275 205 -392 110 -146 244 -232 514 -331 108
-39 133 -52 147 -76 10 -16 53 -111 97 -211 l80 -182 -70 68 c-74 73 -140 118
-307 210 -152 84 -272 173 -403 300 -67 64 -120 108 -124 102 -10 -16 86 -208
160 -319 144 -217 301 -330 620 -445 55 -20 118 -43 141 -52 37 -13 43 -20 67
-82 25 -64 137 -374 137 -379 0 -2 -33 31 -72 73 -78 82 -137 127 -291 223
-191 119 -393 290 -530 447 -109 125 -121 124 -67 -7 131 -317 295 -537 503
-673 98 -64 277 -155 412 -211 50 -20 94 -40 98 -44 4 -4 23 -66 41 -137 53
-202 53 -197 10 -134 -75 109 -170 191 -364 311 -167 104 -273 191 -453 371
-93 93 -172 167 -175 164 -8 -9 50 -151 111 -269 177 -349 350 -499 804 -697
l141 -61 17 -92 c22 -116 45 -266 45 -291 0 -12 -15 4 -39 41 -60 93 -152 184
-331 328 -228 183 -447 407 -587 603 -44 61 -63 76 -63 48 0 -21 68 -212 102
-286 16 -36 41 -112 54 -170 45 -195 131 -427 206 -555 110 -186 312 -393 595
-610 l92 -70 -1 -100 c-1 -141 -12 -255 -22 -230 -66 168 -146 289 -292 445
-196 209 -339 406 -473 648 -58 103 -81 132 -81 100 0 -33 52 -255 84 -359
107 -352 270 -572 645 -875 75 -60 111 -95 111 -109 0 -26 -24 -178 -52 -324
l-21 -115 -18 70 c-38 146 -112 291 -243 476 -195 274 -336 536 -447 833 -58
155 -70 137 -49 -76 30 -293 96 -558 182 -729 87 -171 243 -381 437 -590 56
-60 101 -116 101 -125 0 -18 -59 -245 -67 -259 -3 -4 -15 29 -27 75 -41 156
-109 290 -261 512 -144 211 -274 468 -370 730 -55 150 -80 178 -71 80 3 -32 8
-94 11 -138 13 -180 59 -417 110 -570 72 -215 229 -450 499 -749 l68 -76 -32
-92 c-18 -51 -55 -151 -83 -223 l-51 -130 -8 80 c-17 170 -73 335 -198 584
-71 144 -135 299 -188 458 -42 126 -122 430 -122 464 0 10 -6 19 -14 19 -18 0
-26 -85 -26 -299 0 -500 91 -773 423 -1270 l89 -133 -26 -62 c-15 -33 -56
-115 -91 -181 l-64 -120 -1 65 c-1 152 -40 321 -131 567 -114 308 -198 656
-225 941 -10 106 -28 95 -47 -30 -44 -280 -48 -624 -9 -803 42 -194 122 -399
269 -688 l80 -157 -49 -76 c-56 -88 -209 -296 -214 -292 -1 2 1 21 7 43 15 64
11 306 -6 408 -9 51 -31 155 -50 232 -75 310 -104 527 -112 833 -3 117 -10
215 -14 218 -30 18 -116 -369 -140 -626 -26 -284 28 -564 198 -1022 31 -84 52
-156 48 -165 -3 -10 -48 -63 -100 -118 l-95 -100 7 45 c5 25 8 110 7 190 0
129 -5 168 -42 350 -57 283 -66 379 -67 652 0 256 -6 281 -42 185 -62 -161
-107 -352 -125 -530 -11 -102 -10 -137 5 -250 21 -166 62 -334 132 -541 l54
-161 -57 -54 c-64 -61 -263 -221 -275 -221 -4 0 -3 9 3 20 6 11 21 62 32 113
20 84 22 124 23 447 1 379 10 492 60 736 13 65 22 121 19 124 -12 11 -57 -60
-124 -195 -79 -161 -119 -270 -149 -408 -36 -166 -26 -492 24 -792 19 -118 19
-117 -13 -136 -15 -9 -75 -46 -135 -83 -59 -36 -109 -66 -111 -66 -2 0 5 19
16 43 53 107 69 202 88 522 11 193 44 381 96 553 19 63 32 117 28 121 -15 15
-164 -191 -226 -314 -76 -149 -103 -258 -114 -455 -5 -111 5 -339 22 -472 l6
-47 -111 -55 c-98 -50 -308 -146 -317 -146 -2 0 14 28 36 63 50 81 81 162 125
327 69 260 157 475 262 639 47 74 31 83 -48 25 -138 -102 -273 -252 -333 -373
-65 -129 -109 -302 -145 -575 -11 -82 -23 -152 -28 -156 -9 -8 -110 -46 -240
-90 l-82 -28 45 54 c53 66 110 176 163 318 72 191 197 414 317 566 24 30 40
58 35 63 -20 20 -235 -116 -334 -212 -38 -36 -90 -98 -116 -136 -74 -112 -157
-339 -212 -580 -12 -55 -29 -105 -36 -111 -19 -16 -280 -88 -448 -123 -77 -17
-315 -62 -530 -101 -624 -113 -787 -150 -895 -203 -57 -28 -69 -39 -95 -87
-25 -47 -30 -69 -33 -147 -4 -78 -2 -93 11 -93 8 0 21 8 28 17 46 56 342 153
984 323 326 87 515 140 615 176 41 14 158 55 260 89 l185 63 70 -38 c39 -20
133 -72 210 -115 287 -162 567 -274 790 -317 92 -17 497 -17 620 0 213 31 299
51 283 67 -3 4 -55 13 -114 21 -340 44 -678 136 -1004 271 -267 111 -437 155
-607 157 -56 1 -96 4 -90 7 7 4 82 32 168 64 l156 57 170 -80 c284 -135 492
-210 689 -248 117 -23 359 -23 509 0 195 30 475 101 482 122 2 6 -59 14 -169
22 -350 24 -621 76 -918 177 -188 64 -379 105 -493 105 -40 0 -34 4 101 70
l142 69 120 -49 c343 -142 643 -210 855 -196 184 13 441 76 644 158 129 52
120 59 -61 52 -271 -11 -579 21 -858 90 -174 44 -292 59 -412 55 -53 -2 -94
-1 -90 2 4 3 49 32 100 64 l93 58 147 -32 c264 -56 341 -64 567 -65 199 -1
215 0 318 27 120 32 277 92 407 157 127 63 291 163 286 175 -2 5 -10 8 -17 7
-349 -85 -556 -106 -984 -97 -297 7 -327 6 -415 -13 -52 -11 -104 -24 -115
-28 -11 -4 18 23 64 60 l84 68 211 -9 c344 -15 567 5 758 67 180 58 428 202
639 371 138 112 135 121 -18 60 -271 -108 -562 -177 -871 -206 -238 -22 -356
-51 -501 -119 -36 -17 -70 -32 -76 -35 -5 -2 24 32 65 75 41 44 93 100 116
125 l40 46 95 7 c251 19 554 81 721 148 170 68 334 179 542 366 125 113 236
230 236 251 0 16 -1 15 -72 -28 -237 -144 -588 -288 -863 -356 -222 -54 -391
-119 -487 -186 -40 -29 -43 -23 -10 19 16 20 58 82 94 137 l64 100 120 29
c248 60 521 159 689 251 173 94 345 237 516 430 169 191 348 428 330 439 -4 3
-50 -28 -102 -70 -107 -85 -311 -226 -444 -306 -158 -96 -256 -145 -459 -233
-213 -91 -343 -163 -443 -244 -35 -28 -63 -49 -63 -47 0 2 23 51 51 108 l50
104 132 54 c510 206 776 390 1018 702 159 206 390 588 356 588 -2 0 -63 -58
-136 -130 -236 -230 -486 -426 -716 -561 -260 -153 -414 -270 -513 -388 -29
-35 -52 -60 -52 -57 0 3 13 38 29 78 15 40 42 116 60 168 l31 96 137 74 c291
159 563 360 697 517 80 92 208 283 294 438 53 95 192 385 192 401 0 22 -41
-17 -121 -116 -192 -236 -453 -485 -711 -679 -200 -150 -286 -234 -412 -406
-13 -18 -14 -16 -5 20 5 22 19 84 31 137 l21 96 144 97 c391 263 604 489 766
811 113 226 252 604 221 604 -5 0 -31 -35 -59 -77 -178 -275 -418 -552 -683
-788 -144 -129 -248 -240 -304 -327 -17 -27 -33 -47 -34 -45 -1 1 4 50 11 107
l15 105 82 75 c168 150 387 378 466 483 166 222 274 498 341 872 42 238 36
244 -58 52 -137 -277 -304 -532 -496 -757 -161 -188 -233 -298 -291 -439 l-24
-56 0 50 c0 28 3 87 7 133 l6 82 98 120 c252 308 391 522 474 732 56 141 102
350 125 568 14 135 18 349 6 352 -5 2 -26 -49 -46 -113 -94 -290 -239 -602
-391 -846 -149 -237 -237 -422 -255 -532 -12 -74 -22 -43 -26 87 l-5 127 110
180 c265 431 376 716 407 1040 13 137 13 428 0 559 -15 152 -20 148 -60 -42
-65 -318 -162 -615 -288 -889 -112 -241 -148 -341 -180 -496 l-18 -89 -18 119
-17 118 29 70 c17 39 51 115 77 170 157 334 255 653 275 895 16 201 -7 500
-58 749 -9 47 -22 86 -28 88 -8 3 -14 -28 -18 -89 -26 -336 -94 -677 -201
-1008 -83 -256 -111 -382 -120 -540 -2 -45 -7 -85 -10 -88 -3 -3 -5 3 -5 14 0
10 -14 69 -31 129 l-30 111 24 74 c14 41 46 136 72 210 93 268 155 565 155
740 0 168 -32 362 -96 582 -42 145 -97 291 -111 295 -6 2 -8 -75 -5 -217 7
-335 -17 -575 -92 -920 -31 -146 -50 -315 -43 -405 2 -42 1 -62 -4 -50 -31 76
-89 242 -89 256 0 10 18 91 40 181 93 378 118 648 79 867 -35 195 -207 641
-246 641 -9 0 -12 -7 -9 -17 19 -61 38 -283 43 -493 5 -203 2 -272 -13 -405
-11 -93 -19 -227 -19 -320 l0 -160 -50 110 c-58 130 -60 150 -30 360 27 196
28 545 1 660 -36 156 -114 339 -218 513 -67 112 -82 109 -52 -13 58 -240 83
-480 87 -842 l2 -222 -23 45 c-19 38 -24 69 -32 212 -18 305 -57 507 -126 644
-53 106 -133 223 -215 311 -66 72 -89 89 -89 68z m870 -3487 c58 -38 151 -96
207 -128 l101 -59 6 -91 c3 -50 7 -131 9 -179 l3 -88 -48 93 c-64 125 -128
207 -288 373 -74 77 -156 165 -180 195 l-45 55 65 -51 c36 -28 112 -82 170
-120z"/>
</g>
</svg>
