<svg width="61" height="88" xmlns="http://www.w3.org/2000/svg" xmlns:xlink="http://www.w3.org/1999/xlink" overflow="hidden"><defs><clipPath id="clip0"><rect x="21" y="16" width="61" height="88"/></clipPath><radialGradient cx="87.8794" cy="148.545" r="18.5498" gradientUnits="userSpaceOnUse" spreadMethod="pad" id="fill1" gradientTransform="matrix(1.45877 0 0 2.02489 -95.3773 -260.54)"><stop offset="0" stop-color="#F2D949"/><stop offset="1" stop-color="#F2D949" stop-opacity="0"/></radialGradient></defs><g clip-path="url(#clip0)" transform="translate(-21 -16)"><path d="M0.0535688 37.8904 47.6597 0.179202 47.5767 14.9011 38.222 20.3499 27.8471 43.0127 60.8898 19.7175 60.8474 33.3282 47.9608 41.3052 26.7493 87.8445 38.1676 46.975 14.6342 59.571 23.8148 27.2151Z" fill="#3B3A40" transform="matrix(1.00029 0 0 1 21 16)"/><path d="M5.75825 34.5096 46.6377 2.6847 46.5223 13.9345 37.1441 19.289 25.6312 46.2722 59.7891 22.0335 59.8778 32.4428 47.0051 39.9115 30.548 77.8074 40.7093 43.5426 16.5256 57.1386 25.9641 24.5861Z" fill="#EBB940" transform="matrix(1.00029 0 0 1 21 16)"/><path d="M5.75833 34.5096 46.6377 2.6847 46.5223 13.9345 37.1442 19.289 25.6313 46.2722 59.7891 22.0335 59.8782 32.4428 47.0051 39.9115 30.548 77.8074 40.7093 43.5426 16.5257 57.1386 25.9642 24.5861Z" fill="url(#fill1)" transform="matrix(1.00029 0 0 1 21 16)"/></g></svg>