<?xml version="1.0" standalone="no"?>
<!DOCTYPE svg PUBLIC "-//W3C//DTD SVG 20010904//EN"
 "http://www.w3.org/TR/2001/REC-SVG-20010904/DTD/svg10.dtd">
<svg version="1.0" xmlns="http://www.w3.org/2000/svg"
 width="1097.000000pt" height="1280.000000pt" viewBox="0 0 1097.000000 1280.000000"
 preserveAspectRatio="xMidYMid meet">
<metadata>
Created by potrace 1.15, written by Peter Selinger 2001-2017
</metadata>
<g transform="translate(0.000000,1280.000000) scale(0.100000,-0.100000)"
fill="#000000" stroke="none">
<path d="M5592 11753 c-15 -6 -52 -75 -52 -98 0 -21 -11 -19 -61 10 -50 28
-73 33 -43 9 18 -15 18 -15 -7 -10 -30 6 -87 -8 -114 -28 -18 -14 -17 -14 20
-10 22 3 54 3 71 -1 37 -6 77 -42 70 -61 -3 -8 -2 -14 3 -14 5 0 11 -8 15 -17
3 -10 8 -23 11 -29 3 -6 -5 -22 -19 -37 l-24 -26 -62 20 c-74 23 -109 24 -155
5 -40 -17 -48 -30 -9 -16 14 6 35 10 47 10 19 -1 17 -3 -8 -14 -30 -12 -29
-12 24 -14 30 0 59 -6 64 -11 8 -8 7 -11 -3 -11 -25 0 -90 -53 -121 -98 -16
-24 -44 -72 -61 -106 -28 -55 -28 -59 -7 -35 40 43 84 104 81 112 -1 5 2 6 7
3 5 -3 14 1 21 9 16 19 104 75 118 75 20 0 14 -17 -30 -82 -38 -55 -52 -67
-116 -97 -81 -38 -154 -111 -230 -230 -65 -101 -101 -211 -68 -211 19 0 26
-23 26 -90 0 -32 7 -95 17 -141 19 -97 20 -286 3 -394 -10 -63 -7 -175 6 -247
l5 -28 -108 5 c-104 4 -111 4 -172 -25 -39 -19 -79 -30 -105 -30 -30 0 -58
-10 -98 -34 -31 -18 -68 -36 -82 -40 -46 -11 -105 -75 -140 -151 -30 -64 -53
-91 -199 -236 -90 -90 -199 -197 -241 -237 -42 -40 -85 -90 -95 -110 -10 -20
-35 -66 -55 -102 -19 -36 -36 -72 -36 -81 0 -9 -8 -24 -19 -33 -16 -14 -20
-38 -26 -160 -7 -151 -5 -167 37 -213 18 -19 19 -26 9 -55 -11 -30 -4 -125 15
-216 12 -59 118 -137 214 -157 19 -4 46 -14 60 -23 98 -63 146 -73 240 -51 25
6 88 12 140 14 112 3 130 -6 130 -66 0 -66 21 -193 36 -216 11 -17 13 -40 8
-92 l-7 -70 -86 -43 c-69 -35 -90 -50 -107 -81 -32 -58 -62 -197 -74 -342 -6
-80 -19 -159 -33 -205 -22 -71 -25 -75 -58 -83 -19 -4 -753 -82 -1633 -172
-1187 -123 -1602 -163 -1612 -154 -8 6 -22 8 -36 3 -23 -8 -30 -9 -55 -12 -7
-1 -13 -8 -13 -16 0 -8 -30 -30 -66 -50 l-65 -34 -230 74 c-293 95 -268 88
-245 73 10 -6 112 -45 225 -85 113 -40 203 -73 199 -74 -4 0 -71 18 -149 40
-78 22 -149 40 -158 39 -15 -1 19 -12 225 -76 l82 -25 -42 -38 c-22 -21 -37
-42 -33 -47 5 -4 39 8 75 28 63 34 69 35 107 23 418 -128 785 -249 843 -278
39 -20 72 -37 72 -39 0 -1 -28 -2 -62 -2 -48 0 -72 -6 -101 -24 -21 -13 -36
-25 -34 -27 2 -2 27 4 55 13 75 24 139 10 357 -75 99 -38 199 -76 223 -83 l44
-13 -45 -14 c-44 -14 -157 -94 -157 -111 0 -5 30 8 68 28 l67 36 125 -1 c119
-1 134 -4 325 -57 164 -45 195 -56 170 -62 -89 -20 -165 -60 -245 -129 -39
-33 -30 -32 66 8 138 58 310 78 484 57 118 -15 681 -116 732 -132 29 -9 41 -9
52 0 12 10 27 7 75 -15 75 -33 86 -46 82 -94 -2 -31 3 -41 30 -64 20 -17 40
-26 51 -23 23 6 49 -47 110 -228 23 -66 48 -128 56 -137 14 -17 15 -15 -4
-251 -5 -59 -3 -73 19 -110 13 -23 28 -53 31 -67 4 -14 18 -61 31 -105 88
-296 121 -465 117 -595 -1 -25 4 -177 12 -339 7 -162 10 -310 6 -330 -5 -20
-11 -103 -15 -186 -10 -223 -21 -317 -45 -374 -22 -49 -48 -77 -190 -200 -67
-58 -90 -99 -90 -156 0 -45 19 -53 147 -63 148 -12 234 0 323 45 92 47 101 62
165 273 65 213 126 342 152 317 17 -17 35 -126 40 -240 6 -126 6 -129 31 -138
40 -15 53 5 40 64 -5 28 -8 122 -6 215 3 158 5 170 32 229 26 56 27 65 16 100
-14 44 -80 165 -113 206 -33 43 -34 194 -1 297 13 41 28 89 33 105 5 17 17 62
27 100 9 39 35 115 57 170 35 88 40 113 45 206 3 77 0 126 -11 180 -26 117
-47 246 -56 345 -11 109 -33 157 -102 223 l-49 47 0 69 c1 39 5 90 11 115 5
25 16 77 23 115 8 39 17 77 20 85 4 8 43 35 88 60 88 49 125 89 154 168 61
166 76 190 89 133 5 -23 0 -39 -21 -70 -25 -38 -26 -46 -20 -104 5 -34 11 -96
16 -137 7 -69 58 -286 80 -344 5 -14 21 -92 34 -174 44 -259 88 -409 161 -549
l65 -123 -28 -6 c-53 -11 -54 -13 -47 -42 3 -15 14 -36 24 -47 10 -11 26 -42
36 -70 10 -27 28 -66 41 -86 68 -109 197 -415 219 -521 4 -18 23 -69 42 -113
33 -76 70 -188 107 -325 10 -36 21 -112 25 -170 4 -58 13 -132 19 -165 23
-120 32 -193 32 -251 0 -33 5 -105 12 -162 27 -234 -48 -543 -178 -738 -71
-105 -84 -138 -84 -214 0 -94 44 -120 203 -120 128 0 222 20 313 65 102 50
138 93 159 192 24 113 24 111 53 115 l26 3 -3 140 c-3 158 8 225 60 345 29 70
31 81 26 155 -7 97 -30 188 -57 225 -11 16 -20 42 -20 58 0 17 -5 43 -10 58
-30 78 -51 283 -55 533 -3 141 -7 353 -11 471 -3 118 -7 274 -7 345 -2 161
-34 325 -71 365 -40 41 -93 141 -109 204 -17 61 -43 97 -107 141 -33 23 -38
32 -49 93 -6 37 -20 94 -31 127 -37 114 -53 200 -61 320 -4 66 -13 142 -19
168 -23 88 1 274 55 432 38 112 53 212 41 277 -3 18 -22 57 -41 87 -19 29 -35
61 -35 72 0 17 8 19 68 19 37 0 84 -5 104 -10 43 -12 118 -77 178 -154 23 -31
48 -56 54 -56 6 1 27 14 46 31 33 28 35 29 38 9 4 -21 36 -28 47 -10 3 6 38
-7 83 -29 108 -54 185 -78 320 -98 93 -14 116 -20 120 -35 7 -27 41 -22 54 8
12 26 12 26 98 19 72 -6 186 -29 199 -41 2 -2 -55 -120 -128 -263 -72 -142
-131 -262 -131 -266 0 -15 389 36 419 55 7 3 18 62 25 131 8 68 20 155 26 192
11 62 15 70 41 79 49 17 79 94 47 126 -24 24 93 119 132 107 13 -4 31 0 46 10
42 27 626 266 729 298 141 44 343 55 463 25 34 -8 62 -12 62 -8 0 9 -105 60
-159 77 -24 7 -72 13 -105 13 l-61 0 184 96 c102 53 210 105 240 115 86 30
183 34 264 11 37 -11 67 -16 67 -13 0 14 -130 73 -176 79 l-49 7 60 34 c33 19
119 73 190 121 190 127 205 135 295 133 l75 -1 -35 15 c-40 17 -104 19 -143 4
-15 -6 -27 -9 -27 -7 0 2 32 30 70 61 42 34 212 138 417 255 l347 198 65 -19
c36 -11 72 -19 78 -19 23 0 13 21 -18 38 -68 38 -71 33 69 113 130 73 171 104
73 55 -76 -39 -61 -24 29 29 68 40 102 65 88 65 -2 0 -87 -47 -188 -105 -115
-66 -190 -103 -200 -99 -8 3 -41 14 -72 22 -32 9 -58 22 -58 29 0 17 -91 18
-108 1 -11 -11 -4260 -460 -4271 -451 -3 2 5 20 16 41 11 20 31 80 43 132 13
52 31 111 40 130 28 58 33 89 36 225 3 165 9 207 41 275 25 52 25 58 13 105
-10 35 -13 111 -11 260 2 228 9 274 67 450 l33 100 -12 107 c-7 58 -15 109
-18 113 -4 3 0 34 7 68 7 34 13 75 14 90 0 15 16 51 35 80 48 71 95 196 102
273 5 58 3 67 -21 104 -15 22 -42 48 -60 57 -23 11 -36 25 -40 44 -4 23 -19
35 -91 70 -84 41 -87 41 -171 37 l-84 -4 -15 50 c-24 86 -53 227 -64 311 -12
102 -1 165 39 215 64 81 96 202 69 265 -7 17 -20 102 -29 190 -20 184 -54 312
-107 393 l-33 53 20 46 c25 56 28 183 5 226 -11 21 -11 29 -2 32 37 11 38 14
7 12 -33 -2 -35 0 -38 31 -3 26 -8 32 -26 32 -15 0 -27 9 -34 25 -10 22 -9 27
11 39 28 18 64 33 99 40 27 6 30 29 4 39 -20 8 -126 -13 -151 -29 -14 -9 -30
-14 -37 -11 -8 3 -5 6 6 6 11 1 17 4 13 7 -9 10 17 32 44 37 19 3 17 5 -9 6
-66 2 -121 -36 -159 -113 l-20 -38 -21 27 c-26 33 -27 50 -6 100 8 21 13 44
10 52 -3 8 -2 12 3 9 5 -3 12 1 15 10 8 20 5 23 -12 17z m278 -339 c0 -8 5
-12 10 -9 11 7 11 -23 1 -70 -6 -27 -8 -25 -14 23 -4 29 -11 60 -14 69 -4 11
-3 14 5 9 7 -4 12 -14 12 -22z m-502 -41 c-23 -14 -50 -30 -58 -36 -8 -6 -6
-1 5 12 26 31 76 62 88 54 5 -3 -11 -16 -35 -30z m-387 -540 c-12 -20 -14 -14
-5 12 4 9 9 14 11 11 3 -2 0 -13 -6 -23z m73 -398 c6 -100 6 -100 -9 -50 -8
28 -15 77 -15 110 0 95 18 51 24 -60z m15 -326 c6 -52 15 -117 20 -145 5 -27
12 -71 15 -98 6 -48 6 -48 -17 -33 -42 27 -75 225 -62 375 l7 87 14 -45 c7
-25 18 -88 23 -141z m148 -221 c26 -47 28 -59 22 -101 -4 -27 -10 -51 -13 -54
-2 -3 -17 -1 -32 4 -27 9 -28 12 -29 79 -1 43 -11 99 -28 149 -14 44 -28 100
-32 125 -6 40 -2 35 38 -52 25 -54 58 -121 74 -150z m472 -2400 l-1 -183 -41
48 c-23 26 -49 47 -57 47 -9 0 -21 14 -27 31 -10 25 -9 31 3 36 8 3 14 19 14
37 0 21 15 53 48 98 26 37 50 68 55 68 4 0 7 -82 6 -182z m4698 -124 c-3 -3
-12 -4 -19 -1 -8 3 -5 6 6 6 11 1 17 -2 13 -5z m-142 -64 c-28 -16 -136 -100
-240 -186 -294 -243 -496 -387 -751 -533 -229 -131 -711 -335 -1045 -441 -105
-34 -222 -75 -258 -90 -36 -16 -70 -25 -76 -22 -15 10 -48 2 -70 -17 -11 -9
-47 -26 -80 -36 -70 -23 -110 -61 -181 -170 -27 -41 -54 -75 -60 -75 -6 0 -37
9 -70 20 -32 12 -107 26 -166 32 l-106 11 -7 33 c-8 44 -22 51 -50 24 -21 -20
-30 -21 -87 -15 -91 10 -173 32 -251 67 -65 30 -68 33 -62 60 6 25 4 28 -19
28 l-26 0 22 45 c12 24 20 47 17 50 -3 2 -66 19 -140 36 -148 35 -250 41 -441
25 l-106 -9 34 86 c49 121 58 179 44 290 -12 99 -22 145 -47 219 -16 44 -16
50 2 102 17 49 23 57 50 61 16 3 599 64 1295 136 696 72 1621 168 2055 214
435 46 808 83 830 84 l40 1 -50 -30z m268 -27 c7 -6 -28 -26 -338 -197 l-140
-77 100 101 c150 152 166 163 237 166 32 1 62 4 65 8 8 8 68 8 76 -1z m-6347
-635 c-13 -35 -41 -103 -62 -153 -42 -99 -40 -72 -29 -370 5 -125 5 -123 5
-420 0 -121 2 -238 6 -259 l6 -39 -88 76 c-90 78 -132 97 -217 97 -18 0 -39 6
-45 12 -14 14 -44 17 -53 5 -3 -5 -44 -1 -90 7 -46 9 -160 23 -253 31 -294 26
-637 85 -946 162 -406 100 -657 197 -1080 416 -107 56 -230 115 -272 132 l-76
31 1586 166 c873 91 1597 166 1609 167 l23 1 -24 -62z m-3146 -367 c45 -24
268 -166 265 -169 -1 -2 -118 32 -260 74 -229 69 -255 79 -239 92 12 8 32 11
54 8 19 -3 41 -2 47 2 20 12 105 7 133 -7z"/>
<path d="M5870 11510 c0 -5 5 -10 11 -10 5 0 7 5 4 10 -3 6 -8 10 -11 10 -2 0
-4 -4 -4 -10z"/>
</g>
</svg>
