<?xml version="1.0" standalone="no"?>
<!DOCTYPE svg PUBLIC "-//W3C//DTD SVG 20010904//EN"
 "http://www.w3.org/TR/2001/REC-SVG-20010904/DTD/svg10.dtd">
<svg version="1.0" xmlns="http://www.w3.org/2000/svg"
 width="960.000000pt" height="1280.000000pt" viewBox="0 0 960.000000 1280.000000"
 preserveAspectRatio="xMidYMid meet">
<metadata>
Created by potrace 1.15, written by Peter Selinger 2001-2017
</metadata>
<g transform="translate(0.000000,1280.000000) scale(0.100000,-0.100000)"
fill="#000000" stroke="none">
<path d="M4663 12047 c-9 -10 -22 -16 -29 -13 -25 9 -84 -15 -106 -45 -22 -27
-25 -28 -43 -14 -17 13 -18 16 -5 25 13 8 12 10 -5 10 -11 0 -31 3 -45 6 -19
4 -21 3 -11 -4 12 -9 12 -13 2 -26 -8 -9 -23 -16 -35 -16 -11 0 -30 -7 -40
-15 -11 -8 -33 -15 -50 -15 -35 0 -24 -20 13 -23 11 -1 21 -5 21 -9 0 -4 6 -7
13 -5 8 1 11 -9 10 -28 -1 -16 1 -22 4 -12 8 30 19 18 15 -18 -4 -35 -16 -46
-25 -22 -4 10 -6 10 -6 0 -1 -7 -6 -13 -12 -13 -8 0 -9 15 -5 45 4 27 3 45 -2
45 -13 0 -22 -25 -22 -60 0 -19 -6 -29 -19 -33 -16 -4 -22 3 -29 32 -13 46
-15 9 -3 -43 8 -31 6 -44 -10 -70 -22 -36 -25 -53 -5 -37 11 9 15 8 20 -5 3
-9 4 -20 0 -25 -3 -5 0 -17 6 -26 9 -15 10 -14 4 6 -4 15 -2 21 4 17 6 -3 13
0 16 6 3 7 3 2 -1 -12 -4 -14 -6 -41 -5 -60 l1 -35 -14 34 c-9 19 -18 31 -22
28 -3 -4 0 -13 6 -21 7 -8 15 -39 18 -70 l6 -55 -34 -14 c-19 -8 -47 -30 -62
-51 -15 -20 -33 -36 -39 -36 -16 0 -77 -81 -78 -104 0 -5 8 -2 18 5 15 13 16
12 4 -2 -7 -9 -14 -30 -16 -46 -2 -16 -13 -45 -25 -64 -16 -25 -21 -51 -21
-101 0 -37 5 -70 10 -73 6 -3 10 4 10 16 0 40 9 15 14 -40 5 -54 15 -80 17
-45 1 10 1 23 0 27 -1 5 3 6 9 2 5 -3 10 -21 10 -38 0 -24 -8 -40 -31 -59
l-30 -27 2 -118 c2 -65 -1 -149 -5 -186 -7 -56 -6 -77 9 -122 19 -56 85 -151
85 -122 0 9 -4 18 -9 22 -16 9 -48 106 -54 163 -6 54 6 64 17 15 8 -30 68
-155 72 -150 2 2 -3 23 -10 47 -26 88 -29 106 -15 93 7 -7 20 -13 29 -13 12 0
20 -17 29 -67 12 -66 59 -177 100 -239 l21 -31 -64 -84 c-56 -74 -90 -140 -85
-165 1 -5 1 -14 0 -20 -2 -20 -155 -62 -185 -51 -12 5 -12 14 0 64 19 81 18
132 -3 140 -35 14 -86 -38 -107 -110 -5 -16 -8 -16 -28 -3 -13 8 -99 40 -192
71 -146 50 -175 57 -219 52 -55 -7 -492 -128 -553 -153 -21 -9 -43 -22 -49
-30 -8 -11 -22 -12 -68 -4 -33 5 -67 12 -77 15 -10 3 -23 -2 -31 -11 -12 -14
-10 -20 16 -41 45 -37 102 -60 185 -73 41 -7 117 -21 168 -31 52 -10 169 -26
260 -34 92 -8 179 -17 193 -21 l27 -5 -33 -49 c-59 -87 -78 -160 -120 -445 -9
-60 -40 -198 -70 -305 -30 -107 -61 -238 -69 -290 -61 -397 -102 -607 -136
-705 -17 -47 -21 -76 -17 -132 2 -40 3 -73 2 -73 -1 0 -20 9 -44 21 -64 30
-76 24 -74 -39 1 -28 9 -62 17 -74 7 -13 21 -58 31 -101 14 -65 21 -80 42 -90
24 -11 25 -14 18 -74 -5 -46 -2 -77 9 -111 61 -188 170 -618 162 -638 -7 -19
47 -119 69 -128 9 -3 15 -18 15 -34 0 -16 5 -43 11 -61 16 -45 -6 -154 -30
-147 -9 3 -86 21 -172 40 -86 19 -191 46 -233 60 -44 15 -99 26 -129 26 -47 0
-57 4 -87 35 -33 34 -72 46 -85 25 -11 -18 -78 -10 -148 17 -66 26 -72 26
-155 16 -52 -7 -88 -7 -90 -2 -8 21 -35 39 -59 39 -38 0 -113 -78 -113 -118 0
-68 44 -132 92 -132 16 0 31 6 34 14 4 11 19 6 66 -25 74 -47 113 -59 201 -59
64 0 70 -2 104 -35 20 -19 38 -35 40 -35 2 0 20 7 40 15 48 20 86 19 130 -5
22 -12 57 -20 84 -20 46 0 202 -24 367 -56 72 -15 82 -19 82 -38 0 -12 15 -46
33 -76 27 -47 37 -55 62 -55 36 -1 37 -8 5 -62 -21 -36 -29 -41 -50 -36 -14 3
-104 28 -199 54 -96 27 -179 49 -183 49 -25 0 5 -23 110 -85 177 -104 283
-175 278 -184 -3 -5 -36 -17 -72 -27 l-67 -18 -18 26 c-19 25 -19 25 -76 11
-32 -8 -110 -27 -173 -42 -113 -26 -115 -27 -137 -66 -30 -54 -56 -200 -43
-244 5 -19 9 -35 7 -36 -1 -1 -25 -10 -54 -19 -219 -72 -313 -356 -154 -463
46 -31 186 -73 243 -73 25 0 65 7 88 15 23 8 44 15 46 15 2 0 1 -33 -3 -72 -5
-62 -18 -97 -85 -242 -43 -93 -105 -235 -138 -316 -54 -134 -121 -278 -171
-370 -192 -349 -238 -530 -299 -1177 -58 -615 -81 -783 -128 -915 -38 -109
-69 -213 -77 -263 -4 -22 -26 -78 -50 -125 -24 -47 -53 -109 -64 -138 -46
-116 -177 -327 -227 -365 -13 -10 -24 -25 -24 -34 0 -8 -27 -49 -61 -91 -91
-113 -92 -116 -85 -167 4 -24 15 -54 24 -65 39 -48 310 -87 421 -60 31 7 75
29 109 55 52 37 62 51 91 121 18 43 38 94 44 113 l11 33 66 -6 c60 -6 67 -5
91 18 22 20 28 37 33 93 14 143 28 216 53 270 34 74 41 175 19 260 -15 56 -15
70 -2 130 8 37 22 114 31 170 25 163 180 634 344 1046 98 247 123 332 175 581
36 175 50 226 74 264 40 65 100 184 118 239 51 151 201 408 274 471 23 19 52
56 66 83 13 27 29 48 36 46 6 -1 86 104 177 234 240 341 244 346 293 361 25 7
43 9 45 3 17 -47 81 -150 93 -150 10 0 20 20 31 59 l15 60 50 -60 c27 -32 69
-85 94 -117 77 -98 86 -83 69 119 -7 84 -10 156 -8 158 2 3 38 0 80 -5 60 -8
88 -7 144 6 75 17 97 29 88 50 -5 15 4 13 296 -71 85 -24 156 -42 158 -40 3 2
-62 39 -144 81 -195 103 -303 165 -303 175 0 4 12 13 28 19 53 22 75 39 96 76
18 32 35 43 116 76 52 21 97 39 101 39 3 0 29 -60 59 -132 29 -73 94 -218 143
-322 107 -226 117 -254 117 -318 0 -53 34 -195 57 -243 9 -16 25 -43 38 -60
13 -18 43 -106 73 -217 59 -214 127 -396 206 -550 54 -103 57 -114 91 -305 48
-265 59 -303 190 -633 179 -451 318 -858 335 -984 6 -39 18 -119 27 -179 16
-102 16 -110 -1 -177 -20 -76 -18 -198 2 -223 15 -17 21 -67 26 -219 6 -160
16 -181 87 -172 l45 5 32 -112 c50 -176 113 -254 227 -280 71 -16 287 -7 336
13 40 17 69 67 69 117 0 17 -21 75 -46 129 -25 53 -47 106 -48 117 -2 11 -14
36 -28 56 -49 72 -138 266 -164 359 -15 52 -39 127 -55 165 -15 39 -31 99 -35
135 -8 76 -45 226 -74 302 -28 71 -71 375 -115 808 -66 649 -111 842 -272
1180 -31 63 -75 156 -99 205 -53 111 -77 197 -119 429 -22 120 -30 186 -24
198 21 40 10 145 -27 250 -30 86 -41 142 -66 332 -16 126 -27 230 -26 232 2 2
94 -13 203 -32 415 -72 2050 -345 2280 -380 296 -45 494 -54 634 -30 186 32
201 82 53 179 -210 139 -316 169 -2157 611 -495 119 -913 220 -930 225 -28 8
-25 10 55 34 106 33 207 57 241 57 14 0 44 14 68 31 38 28 47 31 89 24 131
-19 119 -21 143 19 28 47 58 62 144 71 89 9 114 20 198 85 50 38 72 49 80 41
6 -6 23 -11 37 -11 89 0 136 140 76 230 -52 79 -159 102 -191 41 l-14 -28 -93
5 -93 4 -90 -47 c-94 -49 -89 -48 -196 -29 -35 6 -39 3 -70 -39 -38 -52 -76
-72 -118 -64 -21 4 -49 -4 -102 -29 -69 -34 -201 -86 -205 -81 -1 1 -11 46
-23 101 -16 74 -19 102 -10 112 8 9 9 35 4 79 -6 63 -6 65 20 77 45 20 68 80
71 183 7 241 38 516 70 629 18 61 18 71 -2 111 -14 30 -14 36 0 57 9 14 16 51
17 93 2 49 13 98 36 164 35 100 41 148 20 157 -7 2 -39 -6 -72 -20 -33 -13
-74 -27 -91 -30 l-30 -7 -19 78 c-10 43 -20 112 -22 153 -2 41 -6 82 -9 90 -3
8 -9 71 -14 140 -18 251 -71 513 -154 760 -19 58 -47 170 -61 249 -14 78 -39
185 -55 236 -17 50 -30 95 -30 99 0 10 68 7 75 -4 3 -5 23 -10 43 -10 44 0
330 80 416 116 34 14 76 31 94 38 47 18 58 32 42 51 -9 11 -23 15 -40 12 -40
-9 -110 4 -110 19 0 18 -36 36 -220 112 -219 90 -309 122 -352 122 -20 0 -91
-16 -157 -35 l-121 -35 -58 38 c-31 22 -71 46 -89 55 -29 16 -33 16 -49 0 -24
-24 -53 -98 -62 -157 -5 -28 -13 -50 -19 -49 -6 1 -44 4 -84 7 l-74 4 -6 49
c-4 26 -14 75 -24 108 -23 76 -21 90 22 140 35 40 113 186 113 211 0 29 20 63
33 58 11 -4 13 -21 10 -71 -2 -37 -8 -71 -13 -78 -5 -6 -11 -31 -14 -55 l-6
-45 15 45 c8 25 26 59 41 75 22 27 23 27 9 3 -11 -18 -13 -28 -5 -33 6 -4 12
-5 13 -4 1 2 8 15 15 28 13 23 19 112 8 129 -7 12 19 84 27 75 4 -3 7 5 7 19
0 30 45 165 62 186 10 12 10 14 1 8 -19 -11 -16 1 8 33 29 39 37 106 14 115
-9 3 -21 4 -26 0 -5 -3 -9 0 -9 5 0 10 14 15 33 12 12 -2 8 16 -8 29 -10 9
-14 28 -13 64 5 106 -2 195 -16 208 -9 9 -11 20 -5 35 5 13 5 23 0 23 -8 0
-30 47 -37 80 -1 8 -10 20 -18 26 -9 6 -16 23 -16 37 0 17 -13 36 -41 60 -40
34 -40 36 -32 79 7 37 12 43 36 46 l28 3 -15 -36 c-19 -45 -7 -82 12 -40 7 15
8 24 2 20 -13 -8 -13 -2 1 29 7 14 16 23 21 20 10 -7 0 42 -15 71 -6 11 -10
27 -8 35 2 10 -3 8 -13 -5 -15 -20 -15 -20 -16 1 0 12 7 27 15 34 22 18 18 49
-7 60 l-23 9 22 7 c20 5 21 8 9 28 -8 11 -17 48 -21 80 -8 68 -13 86 -26 86
-6 0 -5 -9 1 -21 18 -33 3 -35 -27 -3 -15 16 -33 28 -41 26 -9 -2 -11 1 -7 9
5 7 3 10 -6 7 -8 -3 -13 -11 -11 -17 1 -7 -2 -10 -8 -6 -16 10 -12 33 8 45 14
9 11 10 -15 5 -28 -6 -33 -3 -54 34 -21 38 -53 60 -66 47 -4 -3 1 -6 10 -6 15
0 57 -44 57 -61 0 -5 -21 6 -46 22 -25 17 -48 28 -51 25 -4 -3 -1 -6 5 -6 7 0
12 -4 12 -8 0 -5 -38 -14 -86 -21 -47 -7 -96 -16 -110 -21 -33 -13 -30 -6 17
39 33 33 37 40 19 38 -11 -1 -28 -10 -37 -20z m-203 -66 c0 -12 -20 -25 -27
-18 -7 7 6 27 18 27 5 0 9 -4 9 -9z m-60 -30 c0 -5 -10 -11 -22 -15 -36 -9
-41 -7 -28 9 13 16 50 21 50 6z m95 -43 c5 -18 3 -28 -4 -28 -6 0 -8 -7 -5
-15 4 -9 0 -15 -8 -15 -14 0 -42 59 -33 69 3 2 12 -4 20 -15 8 -10 15 -14 15
-8 0 5 -5 15 -11 21 -6 6 -8 17 -4 23 9 15 22 2 30 -32z m-105 2 c0 -5 -7 -7
-15 -4 -8 4 -15 8 -15 10 0 2 7 4 15 4 8 0 15 -4 15 -10z m55 -30 c3 -5 1 -10
-4 -10 -6 0 -11 5 -11 10 0 6 2 10 4 10 3 0 8 -4 11 -10z m-84 -90 c5 0 9 -4
9 -9 0 -5 -11 -8 -25 -8 -15 0 -25 5 -25 14 0 10 6 13 16 9 9 -3 20 -6 25 -6z
m-61 -10 c0 -5 -4 -10 -10 -10 -5 0 -10 5 -10 10 0 6 5 10 10 10 6 0 10 -4 10
-10z m35 -30 c3 -5 1 -10 -4 -10 -6 0 -11 5 -11 10 0 6 2 10 4 10 3 0 8 -4 11
-10z m30 -10 c3 -5 1 -10 -4 -10 -6 0 -11 5 -11 10 0 6 2 10 4 10 3 0 8 -4 11
-10z m-25 -20 c0 -5 -2 -10 -4 -10 -3 0 -8 5 -11 10 -3 6 -1 10 4 10 6 0 11
-4 11 -10z m-60 -33 c0 -5 -4 -5 -10 -2 -5 3 -10 14 -10 23 0 15 2 15 10 2 5
-8 10 -19 10 -23z m857 -4 c-16 -16 -17 -16 -17 3 0 26 11 37 24 24 7 -7 5
-16 -7 -27z m-810 -20 c-16 -16 -17 -15 -17 17 0 32 1 33 17 17 16 -16 16 -18
0 -34z m838 -83 c3 -5 -1 -10 -9 -10 -9 0 -16 5 -16 10 0 6 4 10 9 10 6 0 13
-4 16 -10z m-1089 -442 c-11 -15 -16 -18 -16 -7 0 16 21 42 28 34 2 -2 -3 -14
-12 -27z m-16 -32 c0 -3 -4 -8 -10 -11 -5 -3 -10 -1 -10 4 0 6 5 11 10 11 6 0
10 -2 10 -4z m1201 -349 c-10 -9 -11 -8 -5 6 3 10 9 15 12 12 3 -3 0 -11 -7
-18z m210 -2482 c32 -143 59 -276 59 -295 0 -19 7 -57 16 -85 10 -34 13 -68 9
-107 -3 -32 -1 -83 6 -116 12 -56 11 -61 -10 -91 -21 -30 -23 -38 -16 -124 5
-69 12 -97 26 -112 15 -17 17 -26 8 -61 -9 -33 -7 -48 6 -80 41 -96 75 -276
81 -429 4 -103 2 -145 -5 -134 -5 8 -41 97 -80 196 -38 99 -83 211 -100 248
-41 89 -41 95 -6 114 17 10 38 33 48 53 17 34 17 38 -2 98 -11 34 -18 67 -16
74 10 28 -59 72 -94 61 -13 -4 -31 -20 -40 -36 l-19 -30 -34 63 c-20 35 -39
75 -43 88 -29 93 -47 130 -66 130 -15 0 -19 7 -19 34 0 126 73 433 120 506 22
34 30 57 26 73 -5 21 1 48 30 130 8 20 14 57 14 82 0 24 6 56 12 71 l13 27 8
-44 c5 -24 35 -161 68 -304z m-1718 -220 c42 -150 97 -377 97 -397 0 -5 -7 -8
-15 -8 -9 0 -18 -7 -21 -15 -9 -23 -24 -18 -24 9 0 55 -59 73 -104 31 -23 -21
-26 -32 -26 -86 0 -49 -3 -60 -14 -56 -8 3 -31 9 -50 13 -20 3 -39 11 -42 16
-8 13 30 230 56 318 10 36 33 131 51 212 19 81 36 144 40 140 3 -4 27 -83 52
-177z m-47 -687 c35 -9 48 -30 38 -60 -3 -10 -1 -24 4 -31 18 -24 24 -181 8
-249 -8 -34 -24 -124 -35 -198 -22 -146 -58 -331 -66 -338 -3 -3 -5 18 -5 47
0 36 -6 60 -20 79 -32 44 -44 232 -24 402 8 74 22 157 31 183 15 47 15 50 -8
99 l-23 50 23 19 c21 17 23 25 18 73 -8 79 6 79 18 0 10 -65 12 -68 41 -76z
m-947 -2410 c6 -29 27 -105 46 -168 18 -63 31 -117 28 -120 -2 -3 -41 -5 -86
-5 -65 0 -91 5 -123 22 -60 32 -94 76 -94 123 0 52 11 77 57 129 29 32 52 46
88 56 73 20 73 20 84 -37z"/>
</g>
</svg>
