<?xml version="1.0" standalone="no"?>
<!DOCTYPE svg PUBLIC "-//W3C//DTD SVG 20010904//EN"
 "http://www.w3.org/TR/2001/REC-SVG-20010904/DTD/svg10.dtd">
<svg version="1.0" xmlns="http://www.w3.org/2000/svg"
 width="960.000000pt" height="1280.000000pt" viewBox="0 0 960.000000 1280.000000"
 preserveAspectRatio="xMidYMid meet">
<metadata>
Created by potrace 1.15, written by Peter Selinger 2001-2017
</metadata>
<g transform="translate(0.000000,1280.000000) scale(0.100000,-0.100000)"
fill="#000000" stroke="none">
<path d="M4965 11511 c-6 -5 -28 -14 -50 -21 -107 -33 -163 -93 -244 -265 -24
-49 -51 -108 -62 -130 -10 -22 -19 -50 -19 -62 0 -23 -11 -36 -63 -80 -16 -13
-27 -33 -27 -47 0 -13 -3 -32 -7 -42 -4 -12 -3 -15 5 -10 8 5 12 0 12 -12 0
-10 9 -27 21 -38 13 -11 19 -27 16 -40 -3 -16 0 -21 10 -17 7 3 13 -2 13 -11
0 -10 16 -33 35 -53 19 -20 45 -63 56 -95 12 -32 26 -61 30 -64 5 -3 9 -29 9
-57 0 -29 7 -64 14 -79 26 -49 24 -73 -4 -76 -32 -5 -52 -22 -46 -38 3 -7 -12
-27 -33 -43 -24 -19 -45 -48 -56 -78 -10 -26 -24 -52 -32 -56 -7 -4 -13 -21
-13 -37 0 -17 -5 -30 -11 -30 -7 0 -9 -10 -5 -25 4 -14 2 -25 -3 -25 -5 0 -11
-12 -13 -27 -3 -16 -8 -35 -12 -43 -4 -9 2 -24 13 -37 12 -13 18 -29 14 -42
-4 -14 -1 -21 10 -21 15 0 22 -12 37 -62 7 -23 6 -28 -10 -28 -10 0 -29 6 -43
13 -27 14 -175 6 -250 -14 -37 -10 -117 -72 -117 -90 0 -5 -13 -28 -30 -50
-85 -118 -104 -305 -59 -589 11 -74 8 -287 -10 -606 l-8 -131 -56 -119 c-59
-127 -89 -228 -107 -364 -20 -157 -16 -145 -63 -161 -50 -16 -53 -20 -62 -78
-10 -67 -19 -78 -54 -73 -25 3 -32 -1 -45 -26 -15 -29 -23 -112 -11 -112 3 0
16 7 29 15 23 15 23 15 29 -23 4 -22 17 -48 32 -62 24 -22 25 -29 20 -84 -4
-34 -13 -94 -21 -134 -10 -46 -13 -95 -10 -130 3 -32 10 -104 15 -162 8 -98
31 -233 46 -272 4 -9 24 -28 46 -42 21 -15 39 -29 39 -32 0 -4 -9 -22 -21 -40
l-20 -33 -54 30 c-54 30 -95 35 -102 12 -2 -6 20 -31 49 -54 29 -23 53 -47 52
-53 -3 -34 -904 -1321 -1536 -2196 -42 -58 -79 -116 -83 -129 -7 -22 -5 -23
21 -17 55 14 110 46 160 95 145 142 850 1112 1445 1989 l124 184 7 -134 c7
-123 15 -186 54 -389 8 -42 14 -97 14 -124 0 -30 10 -69 26 -106 21 -46 24
-62 15 -73 -24 -29 21 -245 62 -294 6 -8 11 -46 12 -86 0 -69 2 -74 48 -139
26 -37 46 -71 43 -75 -3 -5 1 -33 9 -63 21 -79 18 -119 -14 -191 -73 -159 -65
-262 31 -445 l59 -113 -11 -58 c-5 -32 -8 -132 -6 -227 4 -143 12 -210 49
-425 37 -212 53 -283 101 -423 31 -92 56 -174 56 -182 0 -7 -21 -69 -47 -137
-45 -118 -47 -128 -48 -228 0 -91 3 -111 23 -148 33 -62 91 -95 174 -100 66
-4 67 -5 73 -36 47 -228 93 -417 120 -486 29 -77 32 -93 28 -170 -7 -140 15
-557 32 -632 20 -84 50 -129 95 -145 93 -32 453 5 499 52 10 10 14 46 15 137
l1 123 -58 115 c-61 123 -111 285 -91 298 7 5 12 82 13 236 l1 228 -44 77
c-68 119 -77 146 -76 236 1 210 -9 424 -23 480 -8 33 -18 85 -22 115 -4 30
-18 83 -31 117 -32 85 -32 192 -1 283 29 84 108 212 168 272 26 26 62 73 80
105 18 32 56 88 85 124 83 102 122 175 160 298 37 117 39 121 128 194 83 69
91 96 91 289 l0 168 27 5 c15 4 31 12 36 18 5 7 12 55 16 109 l7 96 -31 18
c-20 13 -28 24 -24 34 3 8 9 59 13 112 7 97 12 113 34 113 20 0 64 107 86 210
12 55 29 121 37 146 8 26 14 71 13 100 -1 35 8 81 24 131 27 80 38 138 59 312
13 108 0 389 -26 556 -10 67 -11 90 -1 110 7 14 15 54 19 90 3 35 10 68 14 72
13 13 -4 100 -28 147 -11 23 -62 83 -112 134 l-91 92 -37 155 c-31 127 -35
156 -24 163 10 5 14 28 14 69 0 54 4 65 33 102 19 23 40 52 47 66 7 14 30 44
51 67 22 24 39 50 39 60 0 9 5 32 12 50 9 25 9 36 1 44 -9 9 -6 19 9 39 11 15
23 50 26 76 3 26 9 53 14 59 5 5 15 19 23 30 13 20 13 19 18 -5 3 -14 14 -65
26 -115 11 -49 22 -113 26 -142 3 -29 24 -105 47 -170 22 -65 43 -135 45 -156
3 -20 9 -40 14 -43 5 -3 9 -19 9 -36 0 -21 6 -31 19 -35 21 -5 75 -138 87
-214 4 -23 14 -44 24 -49 11 -6 21 -27 25 -52 4 -24 18 -64 31 -90 14 -27 24
-65 24 -88 0 -47 10 -69 45 -104 21 -21 24 -30 18 -73 -5 -45 -3 -51 20 -66
18 -11 27 -29 32 -59 4 -24 16 -60 26 -80 23 -46 24 -70 2 -111 -9 -18 -19
-64 -22 -104 l-6 -72 -112 90 c-62 50 -113 96 -113 103 0 20 -54 65 -85 71
-84 15 -143 -99 -102 -198 18 -43 36 -55 89 -66 36 -6 65 -24 133 -82 48 -41
97 -82 109 -91 l21 -18 -21 0 c-34 0 -82 -20 -88 -37 -4 -10 5 -28 26 -48 18
-18 38 -38 43 -45 29 -34 123 -111 141 -116 18 -5 21 -13 20 -60 0 -48 3 -58
30 -85 40 -40 93 -47 165 -24 l52 18 56 -59 c31 -33 151 -160 267 -284 248
-263 786 -798 1029 -1021 300 -277 397 -349 469 -349 40 0 116 38 116 58 0 9
-82 95 -182 191 -547 524 -1596 1588 -1591 1615 1 6 10 33 19 60 24 67 6 122
-47 150 -46 25 -49 43 -49 275 0 91 -5 193 -10 226 -5 32 -13 107 -16 165 -5
77 -12 113 -25 137 -16 25 -18 42 -13 85 4 36 2 63 -6 78 -7 13 -12 57 -13 99
0 47 -5 87 -15 106 -12 23 -62 280 -62 317 0 4 9 8 20 8 11 0 20 -4 20 -8 0
-5 7 -17 15 -28 13 -16 13 -13 -1 15 -15 32 -15 36 6 72 12 22 18 39 13 39 -4
0 -15 -13 -25 -29 -12 -22 -21 -28 -37 -24 -12 3 -21 10 -21 17 0 6 -3 21 -6
34 -5 18 -2 22 15 22 11 0 21 -5 21 -12 0 -6 3 -8 6 -5 4 4 1 13 -5 21 -7 8
-10 19 -7 25 3 5 1 11 -5 13 -8 3 -6 14 5 37 10 18 15 38 13 44 -2 7 -9 -5
-16 -25 -15 -45 -38 -50 -46 -10 -19 85 -59 195 -94 255 -85 144 -127 260
-151 412 -6 39 -13 82 -16 97 -5 21 -2 26 13 25 14 -2 24 17 50 93 17 52 32
114 32 137 1 23 6 45 12 48 6 4 8 13 5 21 -3 8 -1 14 4 14 13 0 13 47 0 55 -6
4 -8 16 -5 26 4 12 -1 31 -11 46 -9 15 -19 40 -20 56 -2 16 -13 40 -24 54 -11
14 -20 37 -20 50 0 32 -17 63 -34 63 -8 0 -19 13 -24 29 -9 24 -16 30 -38 28
-21 -2 -29 -9 -35 -31 -5 -16 -17 -37 -28 -48 l-21 -19 0 57 c0 86 -28 254
-56 336 -13 40 -40 97 -59 126 -33 49 -105 112 -128 112 -6 0 -24 12 -40 28
-27 26 -32 27 -159 30 -84 2 -134 0 -141 -7 -6 -6 -20 -11 -32 -11 -22 0 -125
45 -125 55 0 3 7 17 16 30 10 15 13 32 9 42 -5 10 -7 25 -6 35 3 21 -39 52
-53 38 -6 -6 -20 -10 -32 -10 -13 0 -26 -6 -31 -12 -5 -8 -11 6 -16 37 -15 89
-10 126 23 173 31 44 38 76 19 88 -14 8 -6 73 14 111 8 15 35 66 61 113 26 47
56 103 66 125 23 47 39 72 62 99 10 11 21 29 24 40 4 11 18 37 31 58 25 37 33
100 19 144 -3 12 -22 30 -41 40 -19 10 -36 25 -37 34 -2 21 -4 33 -10 50 -82
225 -134 322 -200 372 -103 78 -228 106 -327 73 -47 -15 -55 -16 -98 -1 -50
17 -153 22 -168 7z m-199 -1537 c-6 -21 -10 -24 -21 -14 -12 10 -12 15 2 37
19 29 28 16 19 -23z m1802 -1019 c-3 -3 -9 2 -12 12 -6 14 -5 15 5 6 7 -7 10
-15 7 -18z m-555 -768 c3 -7 -1 -31 -9 -52 -8 -22 -14 -54 -14 -71 0 -17 -7
-37 -14 -44 -8 -6 -20 -37 -27 -68 -6 -31 -20 -68 -30 -81 -11 -13 -19 -21
-19 -18 0 14 72 305 80 325 11 25 25 29 33 9z m-1602 -389 c1 -7 0 -25 -1 -39
0 -14 5 -31 13 -38 25 -20 5 -80 -55 -169 -16 -23 -28 -53 -27 -65 4 -33 -60
-153 -88 -166 -20 -9 -23 -8 -23 12 0 12 10 38 21 57 14 22 22 55 25 93 2 46
16 90 61 193 54 124 71 153 74 122z"/>
</g>
</svg>
