<?xml version="1.0" standalone="no"?>
<!DOCTYPE svg PUBLIC "-//W3C//DTD SVG 20010904//EN"
 "http://www.w3.org/TR/2001/REC-SVG-20010904/DTD/svg10.dtd">
<svg version="1.0" xmlns="http://www.w3.org/2000/svg"
 width="1075.000000pt" height="1280.000000pt" viewBox="0 0 1075.000000 1280.000000"
 preserveAspectRatio="xMidYMid meet">
<metadata>
Created by potrace 1.15, written by Peter Selinger 2001-2017
</metadata>
<g transform="translate(0.000000,1280.000000) scale(0.100000,-0.100000)"
fill="#000000" stroke="none">
<path d="M7014 12770 c-143 -33 -202 -61 -267 -127 -82 -82 -137 -204 -137
-305 0 -48 8 -44 100 42 121 115 212 140 373 104 93 -21 125 -38 221 -118 68
-57 89 -69 165 -92 127 -38 137 -42 182 -91 95 -103 128 -251 76 -348 -25 -48
-118 -132 -172 -156 -68 -31 -208 -32 -315 -4 -60 16 -107 20 -230 20 -144 0
-159 -2 -204 -24 -27 -13 -79 -53 -117 -88 l-67 -64 -73 21 c-93 25 -141 25
-215 0 -127 -44 -132 -44 -334 -4 l-185 37 -85 -18 c-47 -10 -112 -22 -145
-26 -33 -5 -78 -13 -100 -19 -38 -11 -45 -9 -126 34 -47 25 -142 64 -210 87
l-124 41 -255 8 c-332 11 -420 32 -504 119 -35 37 -37 62 -8 157 36 119 83
178 209 261 232 154 392 203 658 203 121 0 179 -17 367 -107 87 -41 161 -73
164 -71 2 3 -5 32 -17 64 -42 112 -107 198 -212 278 -92 70 -200 120 -346 159
-114 31 -120 32 -336 31 -265 -1 -340 -14 -552 -98 -191 -75 -217 -89 -290
-159 -133 -127 -182 -253 -224 -574 -26 -205 9 -389 109 -560 24 -43 62 -109
84 -148 47 -84 109 -151 163 -176 50 -23 129 -24 290 -4 208 26 284 18 373
-37 l35 -22 -62 -12 c-181 -37 -279 -151 -356 -413 -20 -68 -43 -137 -51 -153
-8 -16 -59 -75 -113 -132 -89 -93 -102 -112 -131 -187 -17 -45 -36 -108 -41
-138 -21 -131 -3 -304 40 -389 25 -49 29 -52 62 -45 20 4 30 14 40 46 19 57
97 174 145 218 22 19 78 58 124 86 78 46 93 51 180 62 106 13 236 52 274 82
14 11 44 56 67 99 40 77 95 140 123 140 19 0 72 -129 85 -205 5 -33 17 -125
26 -205 9 -80 20 -163 25 -185 5 -22 6 -43 2 -47 -4 -3 -53 -40 -110 -82 -57
-43 -117 -96 -134 -121 l-32 -45 -155 0 c-191 0 -304 -12 -444 -45 -238 -56
-352 -111 -449 -218 -95 -105 -164 -199 -202 -276 -57 -112 -134 -331 -155
-441 -33 -165 -86 -316 -177 -500 -100 -204 -114 -248 -114 -357 0 -46 -3 -83
-8 -83 -12 0 -112 164 -133 220 -11 28 -38 111 -60 183 -40 128 -41 138 -48
313 -6 178 -6 181 -35 222 -44 64 -238 247 -314 296 -37 24 -89 67 -117 96
-68 70 -109 90 -188 90 -60 0 -69 -3 -141 -51 -80 -52 -181 -103 -228 -114
-24 -6 -28 -2 -46 37 -10 23 -47 81 -81 127 -34 46 -82 113 -105 150 -24 36
-64 91 -90 121 -26 30 -53 66 -60 80 -7 14 -16 77 -19 140 -4 63 -13 140 -22
170 -28 103 -11 279 31 321 18 18 21 17 84 -13 55 -27 77 -32 142 -33 l77 0
63 63 c90 88 138 83 138 -15 0 -21 8 -52 19 -69 38 -62 127 -144 196 -182 94
-50 110 -83 124 -248 6 -66 22 -164 36 -218 18 -70 25 -122 25 -191 0 -104 6
-112 53 -75 18 14 30 41 43 92 17 64 19 113 19 393 0 176 -6 381 -12 455 -18
199 -79 427 -178 665 l-38 90 9 120 c17 235 3 389 -42 478 -31 60 -86 118
-182 191 -121 92 -125 96 -161 185 -43 107 -72 142 -221 273 -158 140 -280
225 -370 260 -85 33 -196 58 -260 58 -48 0 -51 -1 -45 -22 17 -60 72 -152 145
-243 44 -55 93 -125 108 -155 25 -51 27 -67 32 -211 l5 -156 46 -59 c43 -55
47 -66 63 -164 10 -58 26 -145 37 -195 36 -169 18 -274 -63 -352 -57 -54 -90
-63 -223 -63 l-113 0 -27 -37 c-52 -71 -98 -113 -123 -113 -16 0 -47 22 -90
64 -78 73 -105 90 -134 80 -12 -3 -61 -44 -110 -90 -48 -46 -93 -84 -99 -84
-19 0 10 -258 37 -334 13 -35 13 -59 3 -166 -7 -69 -13 -126 -14 -127 -1 -2
-28 12 -61 29 -36 20 -81 35 -117 39 -102 12 -126 53 -196 340 -58 238 -71
306 -71 367 0 43 -1 44 -18 29 -27 -25 -30 -21 -21 26 11 57 11 207 0 207 -5
0 -18 -22 -30 -49 -18 -43 -21 -69 -21 -189 0 -112 3 -142 15 -152 19 -16 19
-60 0 -86 -12 -16 -14 -80 -15 -396 l0 -377 31 -113 c70 -258 82 -297 120
-378 22 -46 49 -123 61 -170 22 -92 52 -160 92 -207 14 -17 43 -71 63 -119 33
-80 46 -98 127 -180 92 -91 276 -235 383 -300 53 -31 143 -66 152 -58 3 2 -34
98 -185 481 -43 108 -44 114 -29 142 20 40 19 86 -4 130 -19 35 -61 199 -61
239 0 36 30 35 71 -3 22 -19 44 -35 50 -35 16 0 5 239 -15 308 -11 40 -12 54
-3 57 7 2 27 8 46 14 18 6 36 9 40 7 10 -7 69 -127 86 -178 l17 -48 52 0 51 0
103 -182 c56 -101 162 -291 235 -423 l133 -240 -32 -80 c-47 -115 -65 -188
-71 -291 l-6 -92 42 -44 c36 -39 42 -53 50 -114 9 -61 14 -72 42 -94 18 -14
60 -48 94 -76 58 -49 63 -51 155 -63 52 -8 122 -22 155 -32 33 -10 83 -19 112
-19 44 0 55 -4 73 -27 12 -16 75 -129 139 -253 64 -124 226 -425 358 -670 133
-245 426 -788 651 -1207 l410 -762 -38 -88 c-21 -48 -46 -117 -56 -153 -9 -36
-53 -144 -97 -240 -201 -445 -198 -435 -204 -828 -3 -201 -1 -314 7 -363 12
-71 12 -71 114 -181 121 -132 292 -289 353 -325 80 -47 297 -138 396 -168 134
-39 166 -64 221 -172 24 -49 56 -123 71 -165 15 -43 49 -112 75 -153 75 -119
74 -158 -7 -260 -86 -108 -162 -181 -253 -241 -52 -34 -108 -76 -124 -93 -24
-25 -40 -32 -88 -37 -32 -4 -58 -8 -58 -11 0 -2 8 -15 17 -29 16 -25 16 -27
-8 -45 -47 -38 -156 -97 -289 -159 -201 -93 -258 -129 -313 -199 -26 -33 -57
-81 -68 -106 -23 -52 -34 -134 -21 -154 5 -7 63 -24 128 -37 66 -13 168 -36
228 -50 107 -26 111 -27 223 -14 112 13 116 13 230 -14 185 -43 258 -48 613
-41 366 8 388 12 531 94 40 23 108 56 150 72 81 31 93 41 193 168 42 53 51 72
63 138 17 90 37 133 105 226 72 97 129 271 136 413 l5 101 -46 94 c-25 52 -53
120 -62 151 -10 35 -23 59 -34 63 -9 3 -53 28 -96 55 -44 28 -97 56 -117 62
-21 6 -44 18 -52 27 -8 9 -30 79 -50 157 -38 149 -85 293 -118 359 -12 22 -46
67 -77 100 -51 55 -59 71 -89 165 -38 122 -38 122 -15 217 15 67 15 74 0 91
-28 31 -47 89 -47 145 0 62 3 66 80 97 79 33 111 60 159 134 33 50 49 66 66
66 23 0 23 -1 27 -177 5 -188 12 -220 78 -367 27 -59 15 -67 164 124 91 117
120 165 143 240 3 10 14 -2 31 -32 15 -27 32 -48 37 -48 6 0 34 11 63 25 l53
25 16 -37 c23 -57 43 -162 43 -235 0 -38 3 -68 8 -68 10 1 79 90 132 170 24
36 59 86 78 113 l34 47 18 -23 c42 -53 62 -108 75 -212 19 -143 20 -145 58
-145 30 0 36 6 79 83 26 46 60 121 74 168 15 46 28 85 29 87 1 1 30 -12 64
-30 67 -34 85 -33 107 11 6 12 13 24 17 27 9 9 180 -102 218 -143 48 -50 53
-91 34 -258 -19 -166 -19 -306 -1 -348 17 -41 80 -100 179 -171 82 -58 145
-125 178 -188 26 -51 26 -187 -1 -293 -11 -43 -20 -90 -20 -105 0 -30 30 -75
77 -114 94 -79 97 -194 10 -473 -99 -317 -115 -366 -163 -503 -47 -131 -49
-139 -52 -269 -4 -121 -2 -136 14 -148 38 -28 179 -11 346 42 46 15 116 33
157 41 71 14 79 13 160 -8 123 -31 369 -32 454 -2 48 18 66 20 100 12 23 -5
94 -8 157 -5 138 5 234 33 383 110 96 50 101 51 198 55 54 3 99 6 99 8 0 9
-152 235 -178 265 -17 20 -97 92 -179 162 -153 132 -168 149 -284 331 -120
186 -113 164 -120 386 l-6 195 -52 158 c-28 87 -56 193 -62 235 -6 42 -13 92
-15 110 -4 25 -13 36 -44 52 -36 18 -40 24 -40 58 0 20 10 78 22 127 17 73 22
128 24 290 1 110 8 263 14 340 7 78 11 248 9 385 l-4 245 -29 55 c-16 30 -45
80 -66 110 -126 188 -220 425 -265 668 -28 148 -91 326 -148 414 -19 29 -65
91 -104 138 -38 47 -122 153 -185 237 -67 89 -140 173 -175 202 -55 46 -65 60
-97 141 -40 101 -42 125 -21 236 8 43 13 80 10 82 -2 2 -38 -3 -80 -13 -42 -9
-79 -14 -82 -11 -11 11 32 97 81 162 29 38 58 79 65 92 18 34 50 223 60 355
11 142 20 160 155 292 109 106 147 170 207 340 50 145 76 198 91 189 6 -4 49
-38 97 -76 47 -38 105 -80 128 -94 64 -37 204 -79 380 -115 87 -17 162 -35
167 -40 5 -4 0 -32 -13 -66 -39 -105 -43 -153 -21 -240 11 -43 38 -115 60
-160 34 -69 53 -93 118 -150 42 -37 155 -145 249 -240 206 -207 207 -210 207
-413 -1 -147 -14 -207 -84 -380 -65 -161 -88 -233 -99 -313 -9 -66 -8 -71 35
-187 56 -155 81 -254 89 -360 13 -176 41 -265 98 -318 52 -49 232 -71 298 -37
19 10 61 36 93 58 65 44 133 69 165 60 15 -4 28 4 46 25 17 21 47 38 93 53 81
26 130 50 202 99 30 20 80 48 110 62 103 48 147 101 213 259 10 23 38 53 74
81 l58 45 -3 64 c-5 96 -29 237 -52 304 -12 33 -37 118 -56 189 -19 71 -46
151 -61 178 -25 46 -30 49 -97 69 -116 33 -121 36 -211 144 -86 103 -164 168
-217 181 -16 3 -28 13 -28 20 0 8 18 103 40 210 45 220 49 300 25 482 -19 144
-39 221 -78 301 -47 96 -102 146 -252 225 -71 37 -140 78 -153 90 -13 11 -44
54 -69 96 -26 42 -93 124 -155 190 -61 63 -129 140 -152 170 -71 94 -193 302
-211 360 -20 67 -107 320 -141 412 -45 121 -187 327 -327 474 -107 113 -178
148 -439 214 -106 27 -241 68 -301 90 -110 41 -203 59 -315 60 -80 0 -120 17
-188 80 -69 62 -173 114 -286 142 -48 11 -85 24 -83 29 3 4 14 63 25 130 29
177 39 217 72 282 15 31 30 57 33 57 2 0 32 -39 66 -87 105 -148 204 -259 251
-281 34 -16 74 -21 185 -26 184 -9 220 -20 308 -97 83 -72 132 -99 179 -99 33
0 36 3 47 43 8 28 12 151 12 382 1 325 0 342 -20 380 -28 53 -114 133 -188
174 -76 43 -113 77 -188 176 -33 44 -66 83 -71 87 -6 4 -34 8 -62 8 -38 0 -61
7 -95 29 -25 16 -62 35 -82 42 -21 7 -37 16 -37 20 0 24 207 169 282 198 14 5
73 15 130 21 56 6 118 16 136 22 40 12 108 66 252 198 58 53 132 117 166 142
80 61 168 158 202 221 26 51 27 56 26 222 l0 170 -43 100 c-24 55 -77 166
-118 247 -88 172 -149 242 -260 301 -86 45 -152 63 -281 77 -57 6 -121 18
-144 26 -32 11 -100 14 -312 13 -260 -1 -276 -2 -392 -29z m-6244 -2356 c0 -8
-4 -12 -10 -9 -5 3 -10 10 -10 16 0 5 5 9 10 9 6 0 10 -7 10 -16z m-700 -54
c0 -5 -4 -10 -10 -10 -5 0 -10 5 -10 10 0 6 5 10 10 10 6 0 10 -4 10 -10z
m2084 -2959 c7 -11 -22 -23 -35 -15 -5 3 -9 9 -9 15 0 12 37 12 44 0z m2210
-607 c19 -31 38 -70 42 -87 3 -16 24 -45 47 -66 155 -138 204 -207 237 -336
17 -67 18 -78 4 -141 -44 -203 -44 -201 50 -354 35 -58 63 -106 62 -108 -2 -1
-32 7 -67 18 -82 25 -80 26 -72 -11 3 -18 25 -51 52 -77 26 -26 64 -78 85
-116 22 -39 57 -89 79 -113 l40 -44 -22 -47 c-40 -83 -110 -179 -169 -234 -61
-56 -309 -210 -421 -260 -36 -17 -84 -43 -106 -58 -80 -55 -45 -102 -404 546
-178 321 -322 586 -320 588 2 1 20 12 40 24 52 31 106 93 186 213 87 129 102
159 143 283 38 114 56 137 162 203 120 75 265 182 283 209 8 13 20 24 24 24 5
0 25 -25 45 -56z m2816 -1224 c0 -5 -4 -10 -10 -10 -5 0 -10 5 -10 10 0 6 5
10 10 10 6 0 10 -4 10 -10z m3255 -1020 c-19 -21 -45 -27 -45 -10 0 11 30 29
49 30 11 0 10 -5 -4 -20z m-95 -40 c0 -5 -4 -10 -10 -10 -5 0 -10 5 -10 10 0
6 5 10 10 10 6 0 10 -4 10 -10z m-270 -40 c12 -8 9 -10 -13 -10 -16 0 -26 4
-22 10 8 12 16 12 35 0z"/>
</g>
</svg>
