<?xml version="1.0" standalone="no"?>
<!DOCTYPE svg PUBLIC "-//W3C//DTD SVG 20010904//EN"
 "http://www.w3.org/TR/2001/REC-SVG-20010904/DTD/svg10.dtd">
<svg version="1.0" xmlns="http://www.w3.org/2000/svg"
 width="1188.000000pt" height="1280.000000pt" viewBox="0 0 1188.000000 1280.000000"
 preserveAspectRatio="xMidYMid meet">
<metadata>
Created by potrace 1.15, written by Peter Selinger 2001-2017
</metadata>
<g transform="translate(0.000000,1280.000000) scale(0.100000,-0.100000)"
fill="#000000" stroke="none">
<path d="M4970 12781 c-5 -11 -10 -28 -10 -38 0 -28 -28 -63 -50 -63 -13 0
-22 9 -26 28 -3 15 -8 34 -10 42 -3 11 -19 15 -56 16 -29 1 -82 5 -118 9 -59
7 -77 4 -181 -29 -87 -27 -132 -36 -186 -36 -66 0 -75 -3 -107 -30 -100 -88
-45 -220 100 -245 38 -6 42 -9 48 -43 22 -135 -16 -250 -142 -431 -35 -51 -89
-143 -119 -204 -82 -166 -95 -183 -140 -192 -23 -4 -66 -28 -108 -60 -115 -87
-136 -97 -202 -94 -57 3 -58 3 -75 -31 -14 -27 -18 -58 -17 -140 2 -118 -4
-137 -55 -199 -50 -60 -51 -90 -3 -166 30 -48 31 -55 37 -185 6 -155 16 -184
58 -173 15 3 41 12 59 20 18 7 45 13 60 13 32 0 49 -19 241 -257 142 -175 184
-216 276 -262 37 -18 74 -43 81 -55 8 -12 19 -52 24 -90 12 -82 52 -169 160
-349 69 -116 111 -197 111 -215 0 -4 -27 20 -61 53 -77 76 -110 132 -114 193
-3 45 -5 47 -42 58 -21 7 -48 10 -60 7 -18 -4 -23 -1 -23 14 0 33 -28 60 -87
83 -74 30 -87 40 -163 128 -34 40 -76 80 -92 88 -39 20 -117 44 -145 44 -16 0
-23 6 -23 19 0 32 -62 71 -114 71 -36 0 -53 7 -93 38 l-48 37 -113 -2 c-63 -2
-122 1 -131 7 -10 5 -24 23 -31 40 -14 34 -11 33 -100 31 -39 -1 -109 8 -177
23 -139 32 -161 32 -242 0 -58 -23 -86 -27 -255 -35 -241 -12 -290 -21 -333
-64 -18 -18 -33 -43 -33 -55 0 -23 0 -23 -24 3 -29 31 -78 42 -152 32 -65 -8
-74 -1 -74 55 0 49 -35 169 -70 242 -33 70 -34 69 -64 -42 -30 -110 -61 -117
-75 -16 -10 74 -23 87 -56 56 -53 -49 -77 -122 -115 -332 -39 -223 -90 -304
-216 -342 -16 -5 -23 1 -38 34 -24 55 -73 85 -179 108 -85 19 -88 19 -97 2
-17 -32 -11 -56 27 -111 29 -43 43 -80 68 -185 17 -72 40 -146 51 -165 11 -18
46 -54 78 -78 l58 -44 -41 -41 -41 -41 10 -60 c19 -114 14 -154 -31 -244 l-40
-82 25 -56 c30 -63 33 -139 16 -346 -8 -100 -7 -141 11 -275 21 -167 19 -214
-12 -248 -11 -12 -22 -38 -26 -58 -5 -30 0 -46 25 -86 46 -74 52 -108 52 -300
1 -302 34 -377 156 -350 43 10 46 9 71 -20 31 -38 80 -64 160 -84 72 -19 93
-20 93 -5 0 6 20 33 44 60 59 65 73 116 80 279 7 149 16 197 47 232 l20 23 -5
-25 c-23 -117 -14 -262 26 -427 26 -111 38 -116 101 -47 94 103 107 116 119
112 7 -3 43 -54 80 -114 67 -111 144 -194 179 -194 19 0 23 10 33 84 5 36 29
76 40 65 3 -2 -7 -85 -21 -184 -19 -135 -26 -229 -27 -374 l-2 -195 -60 -26
c-32 -15 -66 -35 -74 -45 -8 -10 -17 -49 -21 -89 -4 -59 -11 -79 -37 -115 -54
-74 -41 -124 38 -150 19 -6 50 -20 67 -31 29 -18 33 -25 33 -65 0 -70 -38
-233 -73 -308 -26 -59 -33 -68 -51 -62 -12 4 -88 10 -171 15 -158 8 -222 23
-329 77 -79 40 -171 72 -213 74 -22 1 -61 -8 -90 -22 -48 -21 -58 -22 -105
-12 -49 10 -56 9 -93 -12 -22 -13 -79 -58 -127 -99 -143 -125 -351 -280 -547
-411 -103 -67 -204 -140 -227 -162 -91 -88 -136 -181 -155 -320 -14 -103 -30
-148 -99 -278 -75 -143 -77 -154 -44 -240 25 -66 26 -78 21 -192 -5 -135 1
-157 51 -167 34 -8 127 16 195 50 67 34 221 188 271 272 58 96 80 165 80 252
1 60 -3 82 -22 113 -12 21 -22 43 -22 48 0 6 39 9 95 8 125 -2 136 8 199 176
30 77 33 117 15 163 -10 23 -11 37 -3 50 18 30 277 197 333 215 105 34 165 23
353 -64 182 -84 693 -279 782 -299 28 -6 57 -14 65 -16 22 -7 -37 -63 -169
-162 -63 -47 -146 -115 -185 -152 -74 -71 -99 -87 -192 -121 -32 -12 -69 -29
-82 -37 -59 -39 -121 -194 -128 -322 l-5 -85 52 -70 c62 -83 77 -111 130 -244
48 -122 67 -186 124 -436 81 -347 123 -447 218 -511 25 -17 74 -37 108 -45
108 -24 158 -55 225 -143 83 -108 91 -112 234 -97 167 17 292 40 320 58 21 14
23 20 18 68 -6 58 -54 169 -110 258 -51 79 -182 214 -242 248 -61 35 -98 36
-150 4 -53 -32 -60 -31 -79 9 -21 46 -21 46 19 46 48 0 90 23 103 57 9 22 31
174 32 216 0 4 -13 7 -29 7 -16 0 -34 7 -41 15 -7 8 -58 39 -113 67 -55 29
-119 71 -141 93 -74 72 -186 321 -186 413 0 79 93 131 427 238 225 72 381 140
532 233 178 110 194 112 305 36 108 -75 255 -125 676 -233 351 -91 404 -106
535 -152 208 -73 242 -81 425 -96 169 -13 330 -37 358 -53 10 -6 2 -15 -31
-34 -66 -39 -138 -124 -190 -224 -44 -87 -125 -318 -115 -329 4 -3 23 -1 44 5
22 6 102 19 179 30 211 30 231 39 348 149 107 101 132 116 216 127 62 8 101
39 101 80 0 15 4 35 10 45 12 22 141 102 260 160 l85 42 100 -8 c55 -5 167 -8
248 -9 121 0 150 -3 157 -15 23 -41 72 -101 94 -115 32 -21 98 -21 156 0 25 9
67 20 94 24 l48 8 20 -46 c75 -176 107 -213 278 -320 91 -56 111 -64 174 -72
111 -13 114 -15 210 -108 61 -59 109 -96 146 -112 224 -99 247 -120 318 -281
94 -215 142 -553 128 -915 -12 -334 -47 -492 -168 -760 -75 -166 -133 -251
-199 -295 -30 -20 -62 -45 -72 -56 -26 -29 -32 -82 -13 -126 20 -48 20 -141 1
-243 -22 -114 -21 -123 14 -123 80 0 279 59 396 117 150 75 255 174 255 241 0
13 -14 49 -31 80 -31 56 -31 58 -16 94 17 39 19 40 152 68 49 10 66 19 90 48
17 20 67 72 112 116 81 80 122 145 123 194 0 12 -9 41 -21 63 -16 32 -18 44
-8 55 21 26 3 123 -47 254 l-48 125 0 165 c-1 133 5 199 27 340 16 96 30 181
33 189 3 10 14 3 37 -24 90 -109 160 -260 213 -457 19 -73 51 -189 71 -258 95
-329 99 -365 59 -515 -13 -49 -36 -153 -51 -230 -39 -209 -72 -270 -175 -324
-83 -44 -95 -70 -85 -180 16 -169 12 -230 -19 -288 -34 -65 -29 -88 22 -97
137 -22 338 25 489 116 79 47 166 144 192 213 28 74 26 115 -5 177 -22 43 -25
58 -18 87 l9 34 82 1 c73 1 86 4 125 31 55 38 105 134 138 267 l24 97 -24 26
c-21 23 -25 38 -31 143 -8 135 -16 162 -59 194 -65 48 -142 255 -190 508 -42
228 -57 332 -70 500 -31 404 -60 611 -94 662 -22 34 -92 70 -217 114 -118 41
-172 77 -258 170 -90 98 -96 116 -95 264 0 110 5 147 41 300 51 216 65 305 57
362 -6 39 -3 48 28 85 60 71 59 171 -6 500 -31 155 -57 333 -50 333 1 0 31
-28 66 -63 80 -80 308 -236 308 -210 0 10 -14 36 -30 57 -45 60 -36 64 21 11
65 -61 171 -109 295 -133 183 -37 227 -34 188 9 -28 31 -6 39 56 23 30 -8 100
-14 158 -14 l103 0 -3 28 -3 27 100 6 c104 6 162 24 202 61 13 12 23 29 23 39
0 13 14 20 58 29 92 19 205 64 348 139 74 39 146 78 160 88 l27 17 -34 11
c-18 6 -35 17 -37 23 -2 6 33 55 79 108 101 120 177 236 234 357 69 147 87
209 95 339 6 90 12 125 27 150 11 18 37 60 57 93 40 65 45 80 81 237 13 59 33
126 45 150 24 50 24 48 3 48 -10 0 -36 -14 -57 -30 -62 -47 -69 -38 -31 38 72
144 72 283 0 567 -26 99 -51 203 -56 230 -16 81 -12 187 9 249 l19 56 -26 0
c-14 0 -45 -7 -68 -16 -24 -9 -45 -15 -48 -13 -8 9 26 146 69 279 81 245 85
335 21 500 -41 104 -54 190 -36 241 6 18 9 34 7 37 -3 2 -24 -12 -47 -32 -24
-20 -52 -36 -64 -36 -20 0 -21 4 -17 93 3 75 -1 119 -23 222 -36 169 -32 242
23 348 9 17 -89 5 -144 -17 -71 -30 -80 -24 -89 63 -10 90 -25 144 -47 169
-27 27 -38 28 -38 2 0 -37 -27 -87 -79 -143 -60 -68 -81 -106 -137 -258 -47
-128 -91 -208 -129 -233 -13 -9 -27 -16 -29 -16 -3 0 5 27 16 60 17 46 19 63
10 72 -6 6 -13 10 -15 7 -2 -2 -42 -69 -87 -149 -105 -183 -205 -330 -271
-397 -28 -29 -52 -53 -53 -53 -2 0 -6 14 -9 30 -9 43 -33 37 -67 -17 -44 -69
-51 -100 -80 -352 -11 -92 -18 -117 -113 -356 l-31 -80 -1 -230 c-1 -245 -10
-305 -34 -223 -19 62 -39 98 -56 98 -12 0 -15 -17 -15 -87 0 -84 -11 -148 -70
-418 -30 -136 -30 -285 -1 -375 11 -36 21 -69 21 -74 0 -5 -20 -6 -45 -3 -44
6 -44 6 -35 -18 5 -13 21 -42 35 -64 15 -21 33 -60 41 -87 28 -92 72 -145 246
-296 38 -34 75 -76 87 -101 24 -49 27 -122 7 -177 -12 -32 -17 -35 -51 -35
-36 0 -40 -3 -49 -35 -15 -55 -126 -158 -221 -207 -110 -56 -178 -77 -223 -68
-20 4 -95 10 -167 13 -152 8 -182 20 -330 128 -691 504 -966 680 -1230 788
-216 88 -240 91 -563 88 -235 -3 -293 0 -338 13 -30 8 -54 20 -54 24 0 5 15
49 34 99 79 207 116 367 116 503 0 65 1 67 28 72 15 2 117 23 227 45 323 65
722 128 1505 237 395 55 590 129 590 223 0 26 -5 32 -32 41 -86 27 -202 43
-318 43 -144 1 -202 -7 -510 -67 -280 -55 -463 -82 -940 -140 -449 -55 -642
-80 -772 -101 -54 -9 -103 -14 -110 -11 -8 3 19 36 68 84 45 43 103 102 129
132 l47 54 -6 96 c-7 87 -5 103 18 171 14 41 26 87 26 102 0 33 -68 135 -195
293 -139 173 -349 413 -407 464 -61 54 -76 85 -122 239 -39 133 -115 293 -286
607 -54 99 -113 222 -131 273 -22 64 -40 99 -58 113 -14 11 -50 38 -78 59 -29
22 -95 91 -146 153 -130 155 -211 218 -353 274 -59 22 -84 27 -171 27 l-103 0
-24 76 c-28 85 -49 165 -102 395 -55 241 -113 395 -190 502 -16 22 -15 23 30
45 54 26 58 35 15 36 -38 1 -75 24 -84 52 -4 12 -5 23 -2 26 2 2 31 -8 63 -23
54 -25 70 -27 179 -28 l120 0 5 -29 c6 -37 30 -47 30 -14 0 13 6 33 14 44 14
18 16 16 36 -31 27 -63 27 -63 46 -36 l16 22 40 -46 c42 -48 79 -65 102 -45
12 9 18 6 33 -17 9 -15 53 -75 97 -133 94 -125 128 -194 134 -272 2 -32 7 -58
9 -58 3 0 16 9 30 20 34 27 45 25 37 -5 -5 -22 -1 -27 40 -44 47 -21 50 -25
64 -111 7 -39 11 -45 37 -50 57 -12 74 -30 122 -126 50 -101 82 -131 127 -120
20 5 22 2 18 -22 -4 -32 18 -57 62 -68 l30 -7 -22 35 c-24 38 -29 68 -12 68
21 0 68 -30 74 -47 5 -11 0 -23 -15 -34 -22 -17 -22 -17 37 -45 56 -28 66 -29
194 -29 145 0 208 14 246 56 10 11 14 19 9 17 -10 -3 -15 4 -15 23 0 8 15 10
48 6 58 -7 67 -2 75 42 4 18 28 61 53 94 44 59 46 64 42 116 -5 53 -7 56 -84
128 l-79 73 24 20 c19 16 38 20 100 20 l77 0 11 43 c7 23 40 89 74 147 35 58
71 132 81 165 39 124 -12 248 -127 308 -57 29 -176 35 -245 12 -93 -31 -169
-122 -170 -203 0 -30 -2 -33 -22 -27 -29 9 -68 33 -68 43 0 4 9 13 20 20 16
10 29 42 18 42 -2 0 -57 7 -123 15 -65 8 -120 15 -121 15 -12 0 -34 37 -34 55
0 34 -33 52 -108 60 -53 6 -75 15 -130 53 -37 24 -81 51 -99 59 -94 39 -425
92 -576 93 -108 0 -202 -22 -390 -90 -89 -32 -190 -64 -223 -71 l-61 -12 -31
-63 c-31 -62 -54 -85 -99 -99 -48 -14 -22 63 70 214 50 82 52 87 52 158 0 64
3 77 27 107 45 56 120 80 257 81 l115 2 14 41 c11 33 19 42 37 42 12 0 164
-13 336 -30 173 -16 532 -47 799 -70 472 -39 595 -53 980 -105 336 -46 649
-44 891 5 86 18 199 62 199 79 0 18 -373 122 -595 165 -316 62 -571 91 -1220
141 -738 56 -898 73 -1235 126 -175 28 -160 19 -160 99 0 80 1 80 -110 80 -68
0 -81 -3 -90 -19z m238 -4129 c37 -44 43 -55 31 -63 -33 -23 -79 -38 -154 -49
-45 -6 -103 -23 -132 -37 -35 -18 -60 -24 -77 -19 -15 4 -61 40 -103 81 -42
41 -93 83 -114 92 -21 10 -39 22 -39 26 0 21 37 16 92 -12 61 -31 88 -38 88
-23 0 4 -5 13 -12 20 -8 8 -11 45 -10 112 3 93 1 102 -21 124 -13 12 -29 25
-37 28 -18 6 -1 50 41 108 l28 39 187 -187 c102 -103 207 -211 232 -240z
m6252 32 c-14 -50 -79 -132 -80 -100 0 11 16 47 35 82 19 34 35 71 35 81 1 17
1 17 11 0 8 -14 8 -31 -1 -63z m-9006 -351 c25 -76 46 -219 46 -308 0 -111
-13 -122 -168 -149 -51 -9 -111 -25 -132 -36 -22 -11 -41 -20 -43 -20 -2 0 0
32 5 70 15 122 45 183 208 413 30 42 57 77 61 77 4 0 14 -21 23 -47z m-308
-100 c-11 -11 -17 4 -9 23 7 18 8 18 11 1 2 -10 1 -21 -2 -24z m3173 -241 c10
-299 8 -353 -17 -399 -22 -41 -57 -71 -70 -58 -4 3 -10 80 -13 171 -10 234
-22 273 -85 294 -70 23 -194 -11 -219 -61 -22 -42 -18 -83 15 -159 30 -69 36
-105 22 -128 -12 -19 -59 21 -78 66 -12 30 -40 280 -31 288 1 1 72 16 157 34
121 24 315 79 315 89 0 0 2 -61 4 -137z m5908 -151 c31 -46 32 -137 2 -198
-11 -24 -24 -43 -28 -43 -10 0 -31 150 -31 223 0 50 3 58 17 55 10 -2 28 -18
40 -37z m-8727 -83 c0 -48 -27 -153 -50 -198 -29 -56 -79 -111 -117 -126 -32
-14 -119 -19 -145 -9 -11 4 -13 19 -10 59 3 43 -1 66 -22 111 -14 32 -26 59
-26 61 0 1 37 14 83 28 45 14 125 43 177 65 52 22 98 40 103 40 4 1 7 -14 7
-31z m-810 -68 c12 -8 12 -10 -5 -10 -11 0 -27 5 -35 10 -12 8 -12 10 5 10 11
0 27 -5 35 -10z m4968 -582 l33 -13 -23 -35 c-48 -70 -157 -127 -295 -153
l-33 -6 39 77 c40 79 78 123 121 141 31 13 114 8 158 -11z"/>
</g>
</svg>
