<?xml version="1.0" standalone="no"?>
<!DOCTYPE svg PUBLIC "-//W3C//DTD SVG 20010904//EN"
 "http://www.w3.org/TR/2001/REC-SVG-20010904/DTD/svg10.dtd">
<svg version="1.0" xmlns="http://www.w3.org/2000/svg"
 width="800.000000pt" height="1280.000000pt" viewBox="0 0 800.000000 1280.000000"
 preserveAspectRatio="xMidYMid meet">
<metadata>
Created by potrace 1.15, written by Peter Selinger 2001-2017
</metadata>
<g transform="translate(0.000000,1280.000000) scale(0.100000,-0.100000)"
fill="#000000" stroke="none">
<path d="M2970 12427 c0 -5 14 -41 31 -80 35 -80 47 -198 22 -219 -7 -6 -13
-14 -13 -19 0 -22 -93 -142 -165 -214 -45 -44 -182 -166 -305 -271 -531 -451
-694 -627 -1186 -1281 -311 -413 -318 -426 -261 -490 l36 -39 -110 -97 c-176
-158 -258 -270 -243 -334 4 -15 33 -63 65 -106 54 -73 59 -83 59 -130 -1 -87
-47 -162 -113 -183 l-28 -9 69 -62 c75 -67 84 -87 75 -166 l-6 -49 -195 3
c-164 3 -195 6 -199 19 -3 8 -7 21 -9 28 -3 10 -15 7 -46 -11 -64 -37 -107
-48 -236 -61 l-117 -12 102 -7 c116 -9 202 -29 249 -57 41 -26 43 -25 55 10
l11 30 154 0 154 0 -6 -28 c-8 -39 17 -62 67 -62 21 0 39 -4 39 -10 0 -5 -24
-10 -53 -10 -60 0 -77 -12 -77 -52 0 -31 24 -48 67 -48 l27 0 -22 -16 c-40
-28 -25 -78 26 -86 42 -6 18 -23 -29 -20 -34 2 -48 -1 -52 -12 -6 -16 16 -46
34 -46 5 0 9 -4 9 -9 0 -4 -20 -14 -45 -21 -25 -7 -45 -15 -45 -18 0 -2 16
-22 35 -43 64 -71 95 -159 81 -233 -4 -21 -27 -57 -61 -95 -88 -99 -76 -138
101 -321 l115 -118 -53 -20 c-76 -28 -78 -37 -34 -127 21 -42 44 -79 52 -82 8
-3 14 -10 14 -16 0 -13 132 -187 142 -187 5 0 8 -5 8 -11 0 -5 17 -36 39 -67
21 -31 69 -109 106 -172 97 -163 149 -239 318 -463 189 -250 269 -339 497
-557 523 -498 654 -643 750 -828 33 -64 55 -180 40 -212 -4 -8 -14 -31 -23
-51 -8 -20 -36 -62 -62 -93 -52 -64 -31 -60 38 8 58 56 96 130 103 204 12 110
-50 234 -237 475 -35 45 -203 222 -374 392 -325 325 -419 430 -552 617 -180
253 -289 450 -347 623 -55 169 -66 269 -48 459 10 109 8 204 -4 216 -8 8 -32
4 -87 -13 l-75 -24 -45 46 c-94 98 -157 196 -157 242 0 12 15 56 34 98 19 42
44 117 56 167 17 73 28 100 56 133 l35 41 -57 25 c-31 14 -55 27 -53 29 9 9
291 86 314 86 19 0 25 -5 25 -22 0 -34 11 -45 60 -59 25 -7 49 -19 53 -26 9
-15 57 -17 101 -4 17 5 69 16 115 25 74 13 86 13 105 1 13 -10 46 -15 94 -15
47 0 81 -5 95 -15 20 -13 26 -13 51 0 24 13 46 14 133 5 57 -6 151 -10 207 -8
73 2 110 -1 129 -11 30 -16 57 -9 64 17 4 16 12 18 60 14 36 -3 91 3 160 18
l105 23 191 -18 c106 -9 316 -21 467 -25 188 -6 292 -13 327 -22 94 -26 159
-86 224 -204 l24 -45 -37 -32 c-34 -30 -37 -36 -36 -90 0 -33 -6 -67 -15 -80
-23 -37 -47 -118 -47 -164 0 -48 25 -83 60 -83 11 0 27 -11 36 -25 18 -27 20
-19 -31 -97 -9 -16 -15 -28 -12 -28 3 0 18 20 34 45 15 25 31 45 34 45 32 0
77 -126 85 -239 3 -33 22 -99 48 -165 58 -146 62 -168 40 -214 -11 -24 -18
-64 -19 -112 -2 -85 -20 -146 -45 -153 -24 -6 -65 -124 -50 -142 17 -20 -32
-99 -70 -115 -36 -15 -45 -43 -35 -113 12 -87 8 -135 -29 -304 -20 -89 -40
-213 -46 -275 -6 -62 -19 -171 -30 -243 -48 -323 -35 -566 56 -1025 18 -96 59
-267 89 -380 54 -201 72 -310 96 -558 11 -120 11 -124 -10 -146 -12 -13 -38
-28 -59 -34 -34 -11 -38 -16 -55 -72 -10 -34 -15 -65 -12 -71 4 -5 -1 -9 -9
-9 -9 0 -18 -12 -21 -28 -4 -15 -11 -47 -17 -72 -7 -28 -10 -139 -9 -290 5
-434 5 -438 22 -452 11 -9 22 -52 33 -123 10 -60 26 -146 36 -190 21 -88 23
-120 14 -213 -5 -48 -3 -67 8 -80 8 -9 22 -69 32 -135 10 -64 26 -136 36 -160
19 -45 20 -110 0 -232 -5 -33 -7 -68 -4 -77 3 -9 -2 -32 -12 -49 -14 -28 -14
-34 -2 -43 23 -17 29 -97 12 -156 -11 -38 -31 -68 -79 -118 -91 -97 -143 -227
-102 -260 26 -21 89 -52 106 -52 10 0 24 -7 31 -15 16 -19 54 -19 70 0 11 13
15 14 29 1 45 -39 122 -20 146 36 7 19 23 42 35 53 34 31 50 70 50 119 0 38 6
53 33 83 73 83 82 102 88 198 3 50 12 104 19 120 22 48 39 186 27 210 -7 12
-10 73 -9 150 2 116 6 140 34 227 23 67 38 98 50 101 14 4 18 16 18 55 0 28
-4 54 -10 57 -15 9 -12 53 11 210 28 194 44 253 80 286 33 31 39 80 14 117
-12 17 -15 48 -14 144 0 68 -1 155 -4 194 -6 69 -5 72 19 83 23 10 25 16 22
69 -3 48 -7 59 -25 67 -17 7 -23 18 -23 42 0 18 -3 33 -7 33 -5 1 -19 10 -32
21 l-24 20 28 29 c28 29 28 29 15 92 -6 35 -16 68 -21 74 -6 7 -6 27 -1 52 5
22 7 205 5 408 -5 398 -2 439 51 669 32 139 62 343 76 517 11 130 8 184 -16
393 -7 56 -7 57 14 46 11 -6 45 -11 76 -11 47 0 57 4 76 27 19 24 22 25 37 11
8 -9 30 -72 49 -140 18 -68 47 -163 65 -211 46 -129 221 -476 334 -666 54 -90
119 -207 146 -260 55 -111 139 -357 175 -514 14 -60 33 -130 43 -157 11 -29
15 -53 10 -62 -5 -7 -9 -34 -9 -59 0 -25 -6 -54 -14 -64 -18 -26 -9 -53 25
-71 24 -12 28 -18 19 -34 -7 -13 -7 -27 1 -47 6 -15 12 -44 13 -64 1 -19 11
-51 23 -70 11 -19 19 -39 16 -46 -2 -7 17 -54 42 -105 44 -87 46 -97 41 -150
-7 -76 3 -100 63 -143 38 -27 50 -43 56 -71 3 -20 11 -48 17 -63 6 -14 11 -36
12 -49 1 -13 16 -34 33 -48 17 -13 34 -37 38 -52 3 -16 20 -46 37 -67 17 -20
51 -85 76 -144 42 -103 49 -126 51 -164 1 -10 12 -28 26 -41 14 -13 25 -27 25
-32 0 -5 24 -28 53 -50 45 -37 56 -52 84 -125 18 -46 36 -97 39 -114 4 -16 15
-42 26 -57 12 -18 19 -46 20 -90 0 -35 6 -72 11 -83 6 -11 10 -51 8 -88 -2
-57 2 -75 23 -111 14 -24 37 -51 51 -60 14 -9 25 -23 25 -31 0 -25 23 -65 37
-65 7 0 13 5 13 11 0 6 14 -3 31 -20 25 -25 39 -31 74 -31 38 0 47 -5 73 -36
16 -19 47 -66 68 -102 51 -87 107 -148 164 -177 25 -13 52 -35 60 -49 34 -64
130 -87 176 -41 14 14 34 25 44 25 13 0 22 9 26 26 4 15 15 35 25 45 11 11 16
25 12 36 -9 22 -8 66 0 81 21 33 -111 203 -205 263 -42 27 -51 40 -77 107 -16
42 -61 142 -99 222 -97 202 -108 238 -92 305 12 52 12 53 -27 136 -48 100 -70
186 -77 296 -1 12 -10 31 -20 42 -10 11 -19 35 -21 53 -2 18 -8 51 -13 73 -18
67 -52 307 -52 357 0 26 -5 59 -11 75 -8 21 -49 214 -49 231 0 2 5 0 10 -3 14
-9 12 7 -5 49 -8 19 -20 59 -26 88 -13 62 -42 121 -67 140 -10 7 -31 39 -46
70 -16 32 -37 65 -48 74 -10 10 -18 22 -18 29 0 6 -13 32 -30 58 -35 56 -60
62 -60 15 0 -23 -3 -29 -11 -21 -6 6 -12 47 -13 90 -2 44 -6 85 -10 91 -4 7
-31 12 -65 12 -31 0 -64 6 -73 12 -26 21 -47 176 -63 468 -18 348 -22 392 -46
579 -49 383 -146 727 -277 986 -41 81 -170 390 -214 513 -21 61 -27 87 -19 96
15 18 25 98 17 131 -5 19 -19 32 -50 45 -45 20 -68 55 -60 87 3 11 -2 46 -11
77 -13 44 -24 62 -46 75 -35 20 -64 86 -56 133 7 44 -20 170 -38 184 -10 8
-15 29 -15 65 0 48 5 76 25 166 3 14 19 28 38 37 20 8 38 25 45 42 7 16 16 99
21 184 8 127 15 175 42 265 32 109 41 195 26 247 -6 23 3 40 67 126 112 148
167 181 372 222 161 32 248 55 352 94 73 27 99 32 122 26 17 -5 42 -4 57 0 16
5 41 12 57 15 16 3 43 22 60 41 17 19 52 48 78 64 81 50 103 113 60 168 -12
15 -40 57 -62 93 -43 73 -69 94 -124 104 -20 4 -36 11 -36 16 0 10 -34 29 -62
34 -11 3 -23 6 -25 9 -2 2 25 30 61 61 36 32 63 62 60 66 -8 13 -58 11 -95 -5
-19 -8 -76 -21 -128 -30 -77 -13 -101 -14 -128 -4 -27 10 -40 10 -66 -1 -17
-7 -75 -26 -127 -43 -52 -16 -113 -40 -136 -53 -31 -18 -50 -23 -76 -18 -28 4
-40 1 -57 -16 l-22 -22 7 36 c5 27 2 41 -11 55 -16 18 -17 22 -3 38 129 150
696 793 739 838 44 46 69 64 104 74 67 19 147 78 265 198 81 83 100 108 86
110 -10 2 -45 -10 -77 -27 -32 -17 -59 -28 -59 -25 0 4 24 34 52 68 29 33 44
54 34 46 -18 -14 -19 -14 -9 5 6 11 21 29 32 39 25 23 26 35 4 51 -17 13 -33
-1 -166 -153 -26 -29 -47 -49 -47 -46 0 4 7 15 15 24 9 10 18 28 21 41 3 13 8
35 11 49 4 14 16 39 28 55 12 17 25 44 29 60 6 28 3 26 -46 -27 -29 -31 -72
-78 -95 -104 -24 -26 -45 -45 -49 -42 -3 4 11 32 31 63 20 31 30 53 23 49 -7
-5 2 10 19 33 l33 40 -21 19 c-12 11 -23 14 -27 8 -20 -29 -164 -204 -167
-204 -3 0 11 23 31 50 20 28 33 50 29 50 -4 0 4 15 19 34 30 40 32 49 12 66
-8 6 -12 19 -9 28 10 29 -56 -39 -113 -115 -53 -71 -76 -93 -54 -53 6 10 12
33 14 50 2 17 11 39 20 49 19 20 39 81 27 81 -4 0 -25 -22 -47 -49 -34 -41
-43 -47 -58 -39 -14 8 -21 7 -27 -3 -19 -34 -36 -50 -56 -53 -12 -3 -31 -9
-42 -15 -30 -16 -30 -15 -5 36 31 60 32 83 3 57 -21 -19 -21 -18 1 19 22 37
22 38 4 52 -10 7 -21 12 -24 10 -3 -2 -39 -56 -79 -120 -72 -112 -111 -162
-75 -94 10 19 19 53 20 76 0 23 8 57 16 75 18 37 31 88 24 88 -9 0 -80 -102
-115 -162 -19 -35 -34 -78 -38 -110 -3 -29 -10 -55 -14 -58 -12 -8 -40 -121
-33 -132 3 -5 -13 -38 -35 -74 -23 -36 -41 -67 -41 -69 0 -5 -458 -725 -467
-735 -2 -2 -16 3 -31 12 -26 16 -28 16 -67 -16 -45 -37 -87 -60 -126 -70 l-27
-6 2 -104 c0 -57 -2 -107 -6 -111 -4 -4 -17 0 -30 9 -12 9 -37 16 -55 16 -40
0 -52 23 -60 112 -6 56 8 95 28 83 4 -3 33 18 62 48 62 61 107 163 131 294 14
78 14 78 16 28 3 -48 3 -49 10 -15 4 19 8 28 10 20 5 -33 18 39 19 105 1 78
20 74 22 -5 0 -34 2 -40 9 -25 14 32 11 243 -4 330 -18 103 -48 180 -96 253
-51 76 -191 209 -258 245 -59 32 -176 67 -230 69 -41 2 -226 -20 -257 -29 -11
-4 -34 -5 -51 -4 -23 2 -43 -7 -75 -33 -24 -19 -59 -42 -77 -51 -115 -52 -242
-229 -302 -420 -26 -86 -32 -135 -21 -200 l9 -50 1 53 c2 91 18 48 20 -53 1
-52 8 -132 17 -177 16 -91 65 -271 71 -265 2 2 -8 53 -23 113 -41 174 -67 393
-44 379 6 -3 10 -30 10 -58 0 -29 10 -90 21 -137 11 -47 20 -90 21 -97 1 -7 5
-10 9 -8 12 8 37 -80 32 -109 -4 -19 1 -34 15 -49 11 -12 32 -57 48 -100 15
-44 33 -81 41 -84 7 -3 13 -16 13 -29 0 -41 27 -93 56 -106 15 -7 33 -26 41
-43 14 -30 14 -30 8 -2 -5 24 -3 27 23 27 16 0 50 6 76 14 40 12 48 12 52 1
23 -60 -53 -94 -285 -129 -57 -9 -110 -21 -117 -27 -9 -7 -30 -7 -70 0 -32 6
-83 11 -114 11 -92 0 -279 -28 -375 -57 -85 -25 -104 -26 -365 -31 -151 -2
-379 -1 -507 3 -231 7 -231 7 -237 30 -7 28 -41 42 -61 25 -8 -6 -21 -10 -30
-8 -14 2 -12 9 12 39 15 20 43 47 61 59 38 27 39 56 2 53 -14 -1 -65 -9 -115
-17 -49 -8 -119 -14 -155 -14 -46 2 -75 -3 -99 -16 -38 -20 -197 -63 -286 -77
-33 -5 -127 -11 -208 -12 -135 -2 -150 -4 -163 -22 -13 -18 -25 -19 -140 -17
l-125 3 -80 50 c-44 27 -83 49 -86 49 -4 0 -26 12 -50 26 -51 30 -50 33 34 96
29 21 53 42 53 46 0 4 -13 13 -28 20 -36 15 -45 36 -67 143 -10 46 -29 113
-44 149 -37 94 -35 143 11 212 20 30 76 96 125 147 l88 92 40 -20 c60 -28 100
-34 114 -18 9 11 8 36 -3 108 -7 52 -13 146 -11 209 2 102 7 128 39 225 44
130 101 240 204 390 198 289 460 565 957 1009 511 455 556 557 351 791 -19 22
-35 36 -36 32z m2020 -2051 c0 -2 -7 -6 -15 -10 -8 -3 -15 -1 -15 4 0 6 7 10
15 10 8 0 15 -2 15 -4z m500 -366 c6 -11 8 -20 6 -20 -3 0 -10 9 -16 20 -6 11
-8 20 -6 20 3 0 10 -9 16 -20z m1380 7 c0 -2 -9 -15 -21 -28 -11 -13 -18 -31
-16 -41 3 -11 -14 -39 -44 -75 -166 -196 -775 -892 -781 -892 -5 -1 -8 24 -8
55 l0 55 283 357 c346 436 339 428 396 447 25 8 78 40 116 70 69 54 75 58 75
52z m-533 -94 c0 -24 -69 -128 -325 -488 -148 -209 -221 -303 -238 -309 -14
-4 -27 -6 -30 -3 -5 5 430 691 453 715 7 8 18 22 23 33 9 16 91 67 111 69 3 0
6 -8 6 -17z m-2075 -118 c-11 -53 -21 -83 -24 -73 -6 15 30 173 38 165 2 -1
-5 -43 -14 -92z m28 -30 c-18 -102 -20 -105 -16 -40 4 68 27 179 32 160 2 -6
-5 -59 -16 -120z m2267 97 c-10 -10 -17 -21 -17 -25 0 -7 -490 -628 -521 -662
-19 -19 -19 -19 -19 7 0 18 65 108 236 324 235 298 301 374 325 374 8 0 7 -6
-4 -18z m-120 -26 c-13 -34 -511 -653 -540 -671 l-32 -19 26 34 c14 19 108
152 209 295 102 143 188 261 192 263 4 2 16 18 27 36 14 22 34 37 61 46 23 7
43 17 46 22 8 13 17 9 11 -6z m-2050 -518 c-3 -7 -5 -2 -5 12 0 14 2 19 5 13
2 -7 2 -19 0 -25z m1963 -428 c-8 -5 -22 -9 -30 -9 -10 0 -8 3 5 9 27 12 43
12 25 0z m-50 -14 c0 -2 -13 -9 -30 -15 -35 -12 -41 -5 -7 9 25 10 37 12 37 6z
m-4623 -202 c-3 -3 -12 -4 -19 -1 -8 3 -5 6 6 6 11 1 17 -2 13 -5z m113 2 c0
-9 -40 -13 -46 -5 -3 5 6 9 20 9 14 0 26 -2 26 -4z m53 -3 c-7 -2 -19 -2 -25
0 -7 3 -2 5 12 5 14 0 19 -2 13 -5z m3909 -1224 l-4 -126 -30 -17 c-16 -10
-31 -16 -33 -14 -2 2 4 42 15 89 19 89 50 203 54 197 1 -2 0 -60 -2 -129z
m1289 -6579 c5 0 9 -4 9 -9 0 -4 -11 -6 -25 -3 -14 2 -25 9 -25 14 0 6 7 7 16
4 9 -3 20 -6 25 -6z"/>
<path d="M3096 11790 c10 -36 50 -114 189 -370 67 -124 182 -340 255 -480 73
-140 160 -304 193 -365 87 -161 469 -806 474 -802 2 2 -83 150 -188 328 -237
400 -253 430 -457 819 -90 173 -214 405 -275 515 -61 110 -130 241 -154 290
-24 50 -41 79 -37 65z"/>
<path d="M4105 7300 c-9 -16 -13 -30 -11 -30 3 0 12 14 21 30 9 17 13 30 11
30 -3 0 -12 -13 -21 -30z"/>
<path d="M4060 7220 c-11 -22 -18 -40 -15 -40 2 0 14 18 25 40 11 22 18 40 15
40 -2 0 -14 -18 -25 -40z"/>
<path d="M3995 7100 c-19 -38 -33 -70 -30 -70 2 0 21 32 40 70 19 39 33 70 30
70 -2 0 -21 -31 -40 -70z"/>
<path d="M3930 6980 c-11 -22 -18 -40 -15 -40 2 0 14 18 25 40 11 22 18 40 15
40 -2 0 -14 -18 -25 -40z"/>
<path d="M3875 6880 c-14 -27 -23 -50 -20 -50 2 0 16 23 30 50 14 28 23 50 20
50 -2 0 -16 -22 -30 -50z"/>
<path d="M3815 6770 c-14 -27 -23 -50 -20 -50 2 0 16 23 30 50 14 28 23 50 20
50 -2 0 -16 -22 -30 -50z"/>
<path d="M3740 6630 c-17 -33 -28 -60 -25 -60 2 0 18 27 35 60 17 33 28 60 25
60 -2 0 -18 -27 -35 -60z"/>
<path d="M3650 6460 c-22 -44 -38 -80 -35 -80 3 0 23 36 45 80 22 44 38 80 35
80 -3 0 -23 -36 -45 -80z"/>
<path d="M3535 6239 c-4 -6 -5 -12 -2 -15 2 -3 7 2 10 11 7 17 1 20 -8 4z"/>
<path d="M3500 6169 c-12 -23 -20 -43 -18 -45 3 -2 14 17 26 41 27 56 20 60
-8 4z"/>
<path d="M3285 5740 c-14 -27 -23 -50 -20 -50 2 0 16 23 30 50 14 28 23 50 20
50 -2 0 -16 -22 -30 -50z"/>
<path d="M3200 5580 c-11 -22 -18 -40 -15 -40 2 0 14 18 25 40 11 22 18 40 15
40 -2 0 -14 -18 -25 -40z"/>
<path d="M3105 5400 c-14 -27 -23 -50 -20 -50 2 0 16 23 30 50 14 28 23 50 20
50 -2 0 -16 -22 -30 -50z"/>
<path d="M2996 5185 c-9 -26 -7 -32 5 -12 6 10 9 21 6 23 -2 3 -7 -2 -11 -11z"/>
</g>
</svg>
