<?xml version="1.0" standalone="no"?>
<!DOCTYPE svg PUBLIC "-//W3C//DTD SVG 20010904//EN"
 "http://www.w3.org/TR/2001/REC-SVG-20010904/DTD/svg10.dtd">
<svg version="1.0" xmlns="http://www.w3.org/2000/svg"
 width="1280.000000pt" height="1280.000000pt" viewBox="0 0 1280.000000 1280.000000"
 preserveAspectRatio="xMidYMid meet">
<metadata>
Created by potrace 1.15, written by Peter Selinger 2001-2017
</metadata>
<g transform="translate(0.000000,1280.000000) scale(0.100000,-0.100000)"
fill="#000000" stroke="none">
<path d="M4701 12695 c-174 -49 -332 -201 -395 -379 -14 -39 -41 -131 -60
-203 -19 -73 -45 -146 -57 -163 -14 -18 -23 -46 -24 -72 -1 -24 -16 -77 -33
-118 -17 -41 -54 -140 -82 -220 -28 -80 -62 -175 -75 -211 -13 -37 -27 -100
-31 -140 -9 -101 -40 -174 -215 -515 -145 -284 -200 -417 -214 -520 -11 -84
-24 -111 -70 -149 -25 -20 -44 -39 -43 -43 3 -11 -34 -63 -40 -57 -3 3 5 17
19 31 13 15 18 25 10 22 -8 -2 -29 -25 -46 -49 -17 -25 -65 -75 -105 -110 -41
-36 -92 -91 -112 -122 -21 -30 -61 -79 -89 -107 l-52 -52 -41 40 c-48 46 -75
62 -108 62 -66 0 -63 -56 7 -154 59 -82 61 -86 44 -103 -8 -8 -22 -6 -53 8
-56 25 -130 25 -156 -1 -38 -38 -21 -74 51 -113 31 -17 32 -20 15 -29 -18 -10
-132 -37 -218 -52 -20 -4 -55 -22 -77 -40 -31 -26 -53 -35 -98 -41 -98 -12
-118 -25 -142 -92 -44 -123 -47 -126 -139 -150 -46 -12 -94 -29 -107 -37 -20
-13 -22 -20 -15 -51 5 -20 31 -73 58 -118 27 -45 63 -109 80 -143 21 -42 50
-78 98 -119 85 -75 117 -120 144 -200 12 -35 29 -66 38 -70 9 -4 81 -6 160 -6
220 2 256 22 408 218 105 137 122 153 165 153 57 0 209 29 247 47 35 17 68 59
79 103 3 14 23 50 43 80 53 78 70 115 70 148 0 19 10 38 31 58 17 16 40 47 52
69 l20 40 8 -30 c7 -23 1 -48 -26 -115 -18 -47 -49 -139 -69 -205 -19 -66 -47
-160 -61 -210 -34 -117 -36 -196 -5 -319 13 -53 27 -96 30 -96 4 0 16 17 29
38 12 20 42 61 67 91 l46 54 -7 156 c-4 86 -11 182 -15 214 -8 49 -6 68 12
115 43 118 39 115 59 32 45 -187 71 -325 99 -539 16 -126 30 -235 30 -241 0
-6 4 -9 9 -6 5 4 16 -22 23 -56 9 -40 19 -62 27 -60 6 1 11 -3 9 -10 -1 -7 5
-22 15 -33 9 -11 23 -29 31 -40 11 -15 11 -7 -3 30 -24 65 -34 108 -24 102 4
-3 6 14 5 38 -2 24 1 52 7 62 9 16 10 15 11 -9 0 -14 4 -28 8 -30 5 -1 20 -39
35 -83 14 -44 24 -64 21 -45 -4 29 -1 26 20 -23 14 -32 35 -74 46 -92 l21 -35
-23 -9 c-13 -5 -81 -25 -153 -45 -528 -143 -2813 -763 -2903 -788 -82 -22
-116 -36 -123 -51 -24 -44 19 -194 63 -221 12 -7 434 103 1690 444 920 249
1679 455 1686 458 17 6 15 -33 -4 -71 -9 -18 -29 -44 -45 -59 -19 -18 -29 -37
-29 -56 0 -66 -41 -141 -203 -375 -143 -204 -157 -220 -298 -333 -144 -116
-230 -207 -364 -384 -178 -236 -384 -418 -762 -674 -111 -75 -205 -141 -208
-145 -2 -5 -11 -37 -18 -72 -12 -62 -10 -129 8 -284 l6 -60 -65 -90 c-37 -49
-80 -107 -97 -127 -16 -21 -36 -53 -44 -72 -13 -32 -13 -38 8 -84 30 -67 115
-143 197 -176 58 -24 73 -26 143 -20 78 7 79 7 152 68 125 104 246 277 439
625 129 233 188 351 306 611 91 201 133 279 90 170 -106 -272 -203 -476 -463
-980 -167 -324 -247 -555 -247 -713 0 -132 48 -200 185 -263 79 -37 420 -154
448 -154 23 0 22 -11 -11 -115 -33 -104 -73 -170 -187 -310 -102 -125 -130
-167 -193 -285 -88 -166 -178 -411 -258 -700 -10 -36 -26 -76 -36 -90 -10 -14
-23 -52 -30 -85 -8 -40 -22 -73 -43 -100 -48 -60 -57 -81 -54 -139 2 -43 -2
-59 -20 -82 -19 -24 -22 -37 -18 -76 5 -41 2 -54 -29 -105 -18 -31 -34 -62
-34 -69 0 -6 -16 -37 -35 -69 -52 -88 -68 -146 -62 -228 4 -68 3 -71 -30 -115
-29 -38 -34 -51 -28 -78 4 -26 -2 -48 -29 -101 -41 -82 -81 -134 -206 -268
-51 -55 -113 -127 -138 -160 -25 -33 -67 -83 -93 -111 -25 -27 -54 -64 -63
-81 -8 -17 -31 -41 -50 -52 -50 -31 -78 -110 -49 -136 29 -27 137 -94 151 -95
6 0 21 -9 32 -20 24 -24 82 -27 105 -4 9 9 17 15 18 13 1 -2 7 -13 13 -24 16
-30 53 -45 111 -45 92 0 209 76 257 167 8 15 39 51 69 80 61 57 119 138 162
223 15 30 61 117 103 192 56 99 82 137 96 138 31 0 96 74 103 116 4 25 17 47
35 62 27 23 29 30 27 80 -3 54 -3 54 42 84 95 65 111 91 97 157 -6 31 -3 40
28 73 23 26 34 48 34 68 0 35 41 119 82 170 15 19 28 39 28 45 0 6 10 15 23
20 12 6 23 20 25 33 2 13 15 40 28 60 18 26 24 47 23 76 -1 23 2 50 8 61 6 11
9 32 6 47 -4 19 4 39 25 70 36 54 177 283 221 361 18 33 68 146 111 252 107
263 131 307 217 400 40 44 94 109 118 145 65 94 145 276 212 479 l58 178 65
34 c42 22 92 61 142 112 69 70 81 88 124 190 76 180 130 460 150 785 l7 112
102 201 c56 111 105 197 108 192 8 -12 16 -212 27 -605 l8 -327 32 -71 33 -70
56 6 c47 6 67 15 126 59 39 28 122 105 185 169 136 138 152 146 243 109 33
-13 87 -26 120 -29 55 -4 68 -2 111 23 41 23 59 44 108 123 32 52 59 99 61
105 2 5 37 -16 78 -48 529 -412 734 -548 1186 -781 139 -72 165 -97 165 -160
0 -41 -9 -60 -75 -159 -88 -133 -128 -209 -155 -297 -60 -195 -70 -570 -19
-740 38 -127 48 -190 38 -232 -5 -20 -6 -47 -4 -61 3 -14 0 -28 -6 -31 -16
-10 -13 -37 6 -58 16 -18 15 -19 -5 -34 -26 -18 -28 -37 -7 -54 20 -17 20
-140 -1 -140 -19 0 -18 -36 2 -44 8 -3 12 -11 9 -16 -4 -6 0 -22 9 -35 20 -31
21 -99 1 -115 -19 -16 -19 -25 2 -45 24 -25 25 -133 1 -141 -21 -6 -24 -44 -4
-44 11 0 13 -10 9 -40 -4 -30 -1 -45 11 -59 16 -18 16 -22 2 -50 -20 -38 -20
-94 0 -132 12 -25 13 -37 4 -65 -10 -29 -9 -39 5 -61 19 -28 17 -59 -9 -178
-40 -181 12 -456 98 -518 29 -21 41 -22 216 -22 175 1 192 2 310 33 160 41
245 42 382 5 76 -20 106 -24 126 -17 19 7 36 6 57 -2 97 -40 281 -36 338 7 26
19 34 20 72 10 57 -14 163 -14 206 0 65 22 99 71 78 112 -16 30 -28 37 -67 37
-21 0 -56 14 -92 36 -67 41 -102 51 -220 63 -75 8 -102 17 -210 69 -69 32
-146 68 -172 78 -27 10 -48 24 -48 31 0 7 -9 17 -21 23 -11 7 -18 14 -15 17
10 10 -35 42 -50 36 -8 -3 -25 6 -40 22 -14 15 -31 24 -39 21 -9 -3 -25 8 -41
29 -14 19 -33 35 -40 35 -8 0 -19 11 -24 25 -5 14 -16 25 -23 25 -23 0 -77 70
-77 100 0 16 -8 36 -17 45 -16 16 -15 20 12 68 35 63 38 125 8 165 -16 21 -18
33 -11 46 5 10 7 28 4 41 -3 13 -1 27 5 30 6 4 9 22 8 40 -2 18 2 39 9 47 14
18 -2 38 -30 38 -15 0 -18 9 -18 52 0 45 4 56 28 75 l27 23 -22 19 c-32 27
-30 67 7 101 32 30 38 65 19 102 -8 14 -8 23 0 31 19 19 13 57 -11 68 -22 10
-23 13 -21 157 1 93 9 196 23 282 11 74 32 210 45 302 39 265 117 600 170 731
48 119 68 207 66 300 -1 99 -14 152 -61 252 -43 94 -93 161 -221 305 -52 58
-187 215 -300 350 -274 326 -435 497 -742 788 -204 193 -257 248 -257 268 0
18 -19 45 -59 87 -51 54 -65 78 -104 177 -25 63 -44 116 -43 118 2 1 40 -25
85 -58 90 -68 120 -102 211 -240 71 -108 104 -146 142 -166 36 -19 92 -18 131
2 44 22 97 74 97 95 0 9 -17 41 -37 70 -20 30 -39 72 -42 94 -5 35 -12 43 -52
65 -25 14 -78 53 -118 87 -96 81 -461 332 -576 396 -134 74 -320 203 -359 249
-20 23 -45 71 -59 112 -14 39 -32 89 -40 111 -9 22 -16 71 -17 108 0 40 -6 80
-15 97 -8 16 -12 41 -10 57 3 15 -1 93 -9 173 -8 80 -11 148 -7 153 4 4 106
35 227 68 202 55 226 60 314 58 133 -2 128 -3 138 34 8 31 11 33 128 64 l119
33 70 -69 c84 -82 125 -111 157 -111 31 0 168 151 194 213 16 40 23 47 47 47
34 0 82 24 90 45 8 20 80 20 136 0 37 -13 47 -13 77 0 40 16 51 37 36 69 -10
22 -5 23 332 114 187 51 346 92 353 92 6 0 13 -6 16 -12 3 -10 8 -8 18 4 8 9
228 85 531 182 454 146 520 165 539 154 18 -11 23 -10 32 4 10 15 27 8 167
-62 85 -44 202 -106 260 -139 58 -34 115 -61 127 -61 12 0 145 51 295 114 758
316 1190 522 1568 750 176 106 440 279 440 288 0 12 -71 18 -340 29 -374 15
-708 1 -1205 -52 -408 -43 -982 -121 -1012 -138 -11 -5 -48 -58 -83 -118 -51
-88 -242 -387 -256 -402 -2 -2 -10 2 -18 8 -11 10 -17 8 -30 -10 -13 -19 -85
-37 -545 -140 -291 -65 -539 -115 -550 -112 -15 4 -21 1 -21 -10 0 -19 31 -9
-418 -131 l-343 -93 -47 71 c-58 88 -84 103 -150 83 -30 -8 -58 -10 -77 -5
-19 5 -35 3 -46 -5 -9 -6 -39 -27 -65 -46 -27 -19 -66 -50 -86 -69 l-36 -35
-52 44 c-74 62 -128 129 -210 259 -40 63 -82 129 -94 145 -13 17 -31 54 -41
84 -17 52 -60 113 -159 223 -28 31 -70 80 -94 110 -23 29 -105 120 -182 203
-134 143 -200 237 -200 282 0 26 -24 49 -84 81 -47 26 -50 30 -63 85 -20 91
-97 219 -175 293 -55 52 -79 67 -134 83 -36 12 -72 21 -79 21 -7 0 -15 6 -18
13 -7 18 8 171 21 221 6 22 8 53 5 69 -6 31 10 121 33 177 35 89 47 178 55
425 5 138 10 264 11 280 3 41 -21 231 -34 280 -6 22 -10 45 -9 50 8 24 -1 109
-14 148 -8 23 -19 64 -25 92 -51 229 -256 390 -490 384 -50 -1 -97 3 -115 11
-47 20 -211 23 -274 5z m918 -753 c1 -13 -3 -20 -9 -17 -5 3 -10 23 -9 43 0
30 2 33 9 17 5 -11 9 -30 9 -43z m14 -308 c6 -35 -9 -355 -23 -464 -15 -124
-20 -144 -32 -132 -8 8 -7 20 1 40 7 16 12 56 11 88 0 33 2 84 5 114 3 30 7
120 9 200 3 80 5 153 5 163 1 26 18 20 24 -9z m-203 -683 c-8 -16 -8 -21 1
-21 14 0 6 -78 -12 -112 -9 -19 -9 -21 2 -10 7 6 17 12 22 12 6 0 6 -5 0 -12
-11 -15 -33 -90 -32 -109 0 -8 7 2 14 21 17 44 19 18 4 -70 -6 -36 -11 -73
-12 -83 -1 -15 -7 -17 -32 -11 -16 4 -55 10 -85 13 -55 6 -55 6 -62 46 -4 22
-7 60 -7 85 -1 43 3 49 64 110 36 35 65 69 65 75 0 14 71 98 77 91 3 -2 0 -14
-7 -25z m-90 -401 c11 -7 8 -9 -15 -9 -16 1 -41 5 -55 9 -22 7 -20 8 15 9 22
0 47 -4 55 -9z m731 -553 c10 -18 6 -17 -20 7 -36 34 -39 41 -11 26 11 -6 25
-20 31 -33z m-1982 -1297 c0 -10 -3 -8 -9 5 -12 27 -12 43 0 25 5 -8 9 -22 9
-30z m2529 -119 c92 -46 100 -53 136 -111 21 -34 36 -63 35 -64 -2 -2 -39 -12
-82 -24 l-77 -21 -37 72 c-19 40 -51 96 -69 125 -58 89 -45 93 94 23z m-2491
-3 c-3 -8 -6 -5 -6 6 -1 11 2 17 5 13 3 -3 4 -12 1 -19z m2119 -84 c29 -49 68
-114 87 -144 20 -30 34 -56 33 -58 -2 -1 -61 -18 -132 -38 -71 -19 -133 -36
-139 -38 -16 -6 -11 88 6 114 10 16 18 59 22 113 5 67 11 95 28 118 11 16 26
28 32 26 6 -2 34 -43 63 -93z m-2090 -30 c8 -49 17 -161 19 -249 7 -256 17
-412 25 -390 6 17 9 15 20 -17 9 -25 17 -34 22 -25 5 8 8 2 9 -15 1 -16 2 -33
3 -39 1 -11 -46 -29 -110 -42 -30 -6 -31 -4 -48 49 -10 31 -15 58 -12 62 3 3
6 -2 6 -11 0 -9 5 -17 10 -17 11 0 4 42 -13 75 -6 11 -12 65 -14 120 -2 61 0
92 5 80 7 -15 11 -4 17 45 8 64 8 64 17 30 6 -19 8 -73 5 -120 -8 -126 11 -74
28 80 12 115 12 150 0 283 -8 84 -15 163 -15 176 0 46 11 13 26 -75z m4044
-6205 c0 -5 -4 -9 -10 -9 -5 0 -10 7 -10 16 0 8 5 12 10 9 6 -3 10 -10 10 -16z
m-673 -731 c-3 -8 -6 -5 -6 6 -1 11 2 17 5 13 3 -3 4 -12 1 -19z m-4513 -482
c-3 -9 -10 -16 -15 -16 -6 0 -5 9 1 21 13 24 24 20 14 -5z"/>
</g>
</svg>
