<?xml version="1.0" encoding="UTF-8" standalone="no"?>
<svg
   xmlns:dc="http://purl.org/dc/elements/1.1/"
   xmlns:cc="http://creativecommons.org/ns#"
   xmlns:rdf="http://www.w3.org/1999/02/22-rdf-syntax-ns#"
   xmlns:svg="http://www.w3.org/2000/svg"
   xmlns="http://www.w3.org/2000/svg"
   xmlns:sodipodi="http://sodipodi.sourceforge.net/DTD/sodipodi-0.dtd"
   xmlns:inkscape="http://www.inkscape.org/namespaces/inkscape"
   inkscape:version="1.0 (4035a4fb49, 2020-05-01)"
   sodipodi:docname="shade8.svg"
   id="svg3378"
   preserveAspectRatio="xMidYMid meet"
   viewBox="0 0 1280.000000 1017.000000"
   height="1017.000000pt"
   width="1280.000000pt"
   version="1.0">
  <defs
     id="defs3382">
    <clipPath
       id="clipPath3948"
       clipPathUnits="userSpaceOnUse">
      <path
         d="M 3208.0042,11025.468 H 7886.3431 V -309.48087 H 3208.0042 Z"
         style="opacity:0.995;fill:none;fill-rule:evenodd;stroke-width:141.645;stroke-linecap:square;paint-order:stroke fill markers"
         id="path3950" />
    </clipPath>
  </defs>
  <sodipodi:namedview
     inkscape:current-layer="svg3378"
     inkscape:window-maximized="1"
     inkscape:window-y="-8"
     inkscape:window-x="-8"
     inkscape:cy="463.51787"
     inkscape:cx="490.56683"
     inkscape:zoom="0.28054827"
     showgrid="false"
     id="namedview3380"
     inkscape:window-height="705"
     inkscape:window-width="1366"
     inkscape:pageshadow="2"
     inkscape:pageopacity="0"
     guidetolerance="10"
     gridtolerance="10"
     objecttolerance="10"
     borderopacity="1"
     bordercolor="#666666"
     pagecolor="#ffffff" />
  <metadata
     id="metadata3368">
Created by potrace 1.15, written by Peter Selinger 2001-2017
<rdf:RDF>
  <cc:Work
     rdf:about="">
    <dc:format>image/svg+xml</dc:format>
    <dc:type
       rdf:resource="http://purl.org/dc/dcmitype/StillImage" />
    <dc:title></dc:title>
  </cc:Work>
</rdf:RDF>
</metadata>
  <g
     clip-path="url(#clipPath3948)"
     id="g3376"
     stroke="none"
     fill="#000000"
     transform="translate(0.000000,1017.000000) scale(0.100000,-0.100000)">
    <path
       id="path3370"
       d="M6126 10073 c-10 -145 -43 -313 -82 -414 -19 -50 -34 -103 -34 -119 0 -32 23 -46 41 -24 7 8 21 20 32 25 18 10 19 6 15 -133 -1 -79 3 -217 10 -308 13 -172 26 -372 41 -645 5 -88 15 -226 22 -306 7 -80 9 -154 6 -163 -5 -14 -24 -16 -129 -16 -142 0 -262 -18 -403 -59 -202 -59 -263 -86 -366 -162 -37 -27 -69 -49 -72 -49 -30 0 -35 202 -6 221 8 5 41 9 74 9 118 0 170 30 167 98 -1 20 4 53 12 72 8 19 18 60 21 91 4 38 13 63 26 75 23 21 24 43 2 88 -14 31 -15 41 -4 74 11 34 11 47 -2 88 -9 27 -24 87 -33 134 -9 47 -25 109 -35 138 -37 109 -149 225 -276 287 -81 39 -93 56 -93 129 0 32 -6 48 -25 66 -21 19 -25 33 -25 76 0 63 30 150 75 218 18 27 31 55 28 62 -7 18 -82 34 -159 34 -71 0 -304 -40 -389 -67 -165 -52 -307 -167 -445 -362 -142 -201 -177 -305 -167 -485 12 -200 41 -416 98 -736 41 -232 45 -376 10 -471 -15 -41 -21 -74 -17 -85 7 -17 11 -15 41 19 41 47 49 34 35 -61 -14 -99 -12 -204 6 -282 16 -72 35 -102 50 -78 11 16 9 4 18 123 8 108 29 205 109 525 l52 205 3 218 3 217 36 15 c71 30 75 27 116 -98 20 -62 37 -122 37 -133 0 -12 -11 -27 -26 -35 -15 -7 -39 -38 -54 -69 -15 -30 -42 -80 -59 -111 -17 -31 -34 -78 -37 -105 -4 -27 -18 -68 -31 -90 -21 -38 -22 -45 -12 -91 10 -42 9 -58 -4 -98 -12 -33 -15 -64 -11 -104 5 -45 3 -59 -10 -70 -18 -15 -22 -84 -7 -123 6 -17 4 -36 -10 -66 -17 -37 -18 -48 -8 -83 10 -31 10 -50 0 -88 -15 -59 -6 -223 15 -263 8 -16 13 -53 12 -90 0 -35 4 -95 9 -134 16 -108 44 -146 61 -82 4 18 16 34 24 36 13 2 18 -8 23 -45 14 -102 49 -154 113 -169 39 -10 49 -20 57 -62 8 -43 87 -216 104 -226 6 -4 11 -26 11 -49 0 -24 7 -52 15 -64 14 -20 12 -24 -19 -61 -78 -95 -163 -461 -216 -937 -38 -336 -48 -615 -36 -995 10 -337 -6 -1118 -29 -1430 -7 -107 -19 -269 -24 -360 -15 -225 -30 -403 -47 -541 -8 -64 -30 -256 -49 -425 -41 -363 -57 -461 -96 -604 -42 -151 -66 -205 -121 -273 -35 -45 -48 -69 -48 -93 0 -18 4 -35 9 -38 21 -14 168 -11 195 3 22 12 33 13 62 2 46 -17 205 -41 272 -41 29 0 73 5 97 11 41 10 47 9 75 -14 50 -43 89 -45 297 -17 45 6 101 17 124 25 53 19 121 19 184 -1 28 -8 75 -16 106 -17 52 -1 60 1 98 36 22 20 45 37 50 37 5 0 35 -20 68 -43 32 -24 66 -47 75 -50 25 -9 106 18 156 52 39 26 47 27 82 19 53 -14 76 -6 139 46 61 50 86 58 142 44 29 -8 43 -7 54 2 21 17 19 25 -15 63 -16 19 -30 44 -30 55 0 22 -99 283 -154 407 -66 150 -75 223 -111 1000 -29 600 -52 1038 -60 1105 -3 25 -18 155 -35 290 -34 287 -55 675 -70 1350 -10 419 -15 525 -36 697 -10 79 -6 83 63 67 68 -16 229 -18 327 -4 38 6 71 8 73 6 3 -3 9 -67 14 -143 18 -291 30 -451 59 -823 60 -757 92 -1331 100 -1820 8 -440 17 -645 40 -910 25 -284 50 -753 58 -1115 9 -339 11 -355 62 -355 17 0 30 4 30 9 0 4 11 25 25 46 l26 37 -11 161 c-5 89 -14 276 -20 415 -5 140 -13 258 -16 263 -3 5 -10 116 -14 247 -5 130 -17 332 -25 447 -9 116 -18 332 -20 480 -2 149 -8 302 -13 340 -19 124 -31 284 -42 525 -6 129 -17 336 -25 460 -8 124 -22 333 -30 465 -9 132 -20 287 -26 344 -6 58 -14 195 -19 305 -5 111 -14 298 -21 417 -6 119 -9 224 -6 232 3 8 18 18 34 21 15 4 35 14 43 21 8 7 42 27 74 45 166 87 316 216 390 334 87 139 175 335 205 457 52 207 77 560 42 603 -5 6 -12 27 -16 46 -4 19 -23 89 -42 155 -19 66 -45 158 -58 205 -45 168 -75 224 -178 344 -73 85 -234 239 -299 285 -25 18 -52 46 -58 61 -10 24 -29 35 -113 68 -56 21 -109 42 -118 45 -22 7 -27 41 -39 272 -5 110 -14 254 -19 320 -26 322 -42 497 -52 565 -12 91 -24 441 -16 464 6 14 11 13 43 -9 20 -14 43 -25 50 -25 20 0 17 48 -7 100 -11 25 -37 97 -57 160 -33 105 -36 126 -37 240 -1 126 -5 150 -29 150 -9 0 -15 -28 -20 -97z" />
    <path
       id="path3372"
       d="M10068 9326 c-120 -43 -187 -152 -191 -310 -1 -43 4 -70 17 -92 18 -30 18 -30 -13 -79 -34 -53 -38 -88 -19 -159 11 -40 9 -49 -14 -103 -39 -87 -42 -116 -23 -188 17 -61 17 -66 0 -91 -19 -30 -25 -118 -11 -171 13 -49 -7 -41 -43 17 -46 75 -70 66 -91 -32 -13 -64 -32 -75 -65 -38 -20 22 -61 27 -68 8 -2 -7 6 -33 18 -58 12 -25 30 -69 40 -98 20 -63 64 -116 113 -140 19 -9 39 -27 43 -40 7 -19 4 -26 -26 -44 -37 -21 -77 -72 -113 -143 -29 -57 -49 -188 -56 -355 -7 -166 -17 -232 -57 -385 -45 -171 -69 -283 -69 -320 0 -25 -11 -46 -46 -87 -26 -29 -60 -82 -78 -118 l-31 -65 -1 -228 -1 -227 -57 -59 c-66 -70 -73 -101 -23 -101 18 0 42 7 53 15 24 18 44 19 44 3 0 -15 -97 -255 -160 -398 -67 -152 -128 -296 -176 -420 -25 -63 -63 -152 -84 -197 -36 -74 -42 -82 -67 -80 -31 2 -36 -13 -48 -139 -8 -93 -2 -94 83 -16 56 53 78 92 52 92 -24 0 -5 66 71 239 45 102 101 236 124 296 40 104 95 228 202 460 26 55 56 125 68 155 17 45 28 59 59 74 33 16 37 22 34 47 -4 25 -1 28 26 31 20 2 34 11 42 26 6 12 19 29 29 36 15 11 17 22 12 61 -6 38 -3 52 13 75 11 15 20 34 20 42 0 7 18 37 39 66 55 73 85 155 77 212 -5 35 -1 56 16 93 13 26 26 47 30 47 18 0 48 -177 48 -286 0 -113 21 -191 55 -204 23 -9 23 -10 10 -62 -21 -79 -54 -415 -65 -653 -6 -115 -14 -237 -19 -270 -27 -174 -40 -267 -46 -333 -7 -68 -5 -75 16 -98 12 -13 29 -24 37 -24 17 0 12 -161 -24 -761 l-7 -106 34 -24 c28 -20 49 -25 117 -28 98 -4 94 1 116 -137 17 -101 67 -257 91 -284 8 -9 15 -22 15 -28 0 -6 9 -16 19 -21 11 -6 33 -33 50 -61 17 -28 50 -74 73 -103 55 -67 165 -244 258 -417 l73 -135 35 -230 c29 -195 35 -265 39 -465 6 -259 -1 -308 -43 -337 -82 -57 -97 -91 -59 -133 27 -30 12 -52 -106 -162 -114 -105 -155 -130 -243 -148 -100 -20 -127 -42 -112 -87 16 -46 290 -133 352 -113 18 6 39 21 48 34 8 13 29 26 47 30 18 3 57 23 86 43 50 34 59 37 156 44 125 9 182 24 208 57 30 39 33 68 16 146 -9 39 -23 107 -30 151 -13 72 -12 83 4 120 9 22 21 58 24 80 12 65 69 176 123 239 55 64 79 131 68 189 -3 18 -25 55 -47 82 -98 118 -93 97 -105 389 -11 259 -12 262 -54 421 -75 283 -88 384 -70 535 5 47 15 137 21 200 6 63 13 138 15 167 5 48 8 53 39 63 18 6 50 24 69 39 31 25 41 28 85 23 44 -4 56 -1 85 22 19 14 50 29 68 33 33 6 218 110 218 122 0 3 -7 31 -15 61 -26 98 -35 88 163 180 213 99 351 159 577 250 94 38 195 80 226 94 31 13 85 30 120 36 78 14 107 29 148 75 22 26 31 45 29 63 -4 35 -41 42 -72 13 -32 -30 -107 -42 -196 -30 -41 6 -165 40 -275 76 -220 72 -328 93 -482 93 l-102 0 -35 110 c-19 60 -51 141 -71 179 -41 83 -59 174 -74 391 -19 260 -45 415 -97 580 -31 101 -44 187 -44 300 0 52 -5 141 -12 197 l-11 101 41 47 c40 46 53 87 32 100 -14 9 -12 56 5 85 22 39 18 55 -23 98 -40 41 -59 94 -97 265 -22 98 -59 170 -125 240 -67 71 -89 84 -224 127 -161 53 -287 138 -316 216 -14 37 -13 43 15 50 14 3 34 17 44 30 10 13 21 24 24 24 3 0 3 -24 0 -53 -6 -55 -4 -58 46 -99 11 -10 21 -27 21 -38 0 -26 26 -26 40 -1 16 32 12 61 -15 93 l-25 30 20 33 c24 39 26 68 5 85 -21 17 -19 50 6 107 12 26 31 77 43 112 21 60 25 65 66 80 39 14 47 22 63 66 28 74 34 214 12 311 -21 94 -35 125 -70 148 -14 9 -36 34 -50 55 -38 61 -157 176 -232 225 -128 82 -254 105 -322 57 -27 -19 -35 -21 -42 -10 -5 8 -9 19 -9 26 0 24 -62 83 -98 93 -46 12 -48 12 -94 -4z m40 -1418 c-6 -16 -36 -34 -44 -25 -9 9 15 37 33 37 8 0 13 -5 11 -12z m897 -1408 c9 -47 24 -125 35 -175 26 -124 30 -159 20 -176 -7 -11 -15 -8 -39 15 -27 26 -30 34 -24 71 7 53 -11 109 -43 134 -18 15 -24 28 -24 61 0 45 41 174 51 162 4 -4 15 -45 24 -92z m988 -1781 c59 -11 138 -31 175 -44 37 -13 126 -38 197 -55 72 -18 131 -34 133 -35 5 -5 -66 -35 -268 -117 -205 -83 -381 -160 -572 -251 -76 -36 -140 -62 -142 -59 -20 33 -72 382 -67 448 1 13 61 40 108 49 17 4 37 13 44 21 6 8 25 14 41 14 18 0 37 9 51 24 12 13 31 26 42 28 32 8 142 -2 258 -23z" />
    <path
       id="path3374"
       d="M1246 9209 c-20 -17 -52 -57 -71 -90 -30 -48 -43 -60 -74 -69 -21 -5 -49 -18 -62 -28 -34 -25 -97 -50 -147 -57 -59 -8 -120 -40 -134 -70 -6 -14 -15 -25 -20 -25 -4 0 -25 -15 -45 -32 -21 -18 -55 -42 -76 -52 -79 -41 -147 -182 -107 -222 6 -6 12 -57 13 -115 2 -112 16 -151 88 -260 24 -37 32 -62 38 -124 6 -65 11 -81 29 -93 15 -10 22 -25 22 -46 0 -38 -11 -53 -65 -91 -85 -61 -135 -124 -135 -172 0 -10 -16 -37 -34 -61 -20 -25 -46 -78 -62 -125 -15 -45 -45 -118 -66 -161 -34 -71 -38 -88 -38 -157 0 -110 -6 -131 -62 -196 -72 -85 -82 -107 -81 -188 1 -86 18 -130 72 -183 47 -47 49 -62 16 -117 -32 -52 -32 -95 0 -133 29 -35 31 -49 10 -88 -23 -44 -19 -61 25 -108 l40 -43 -20 -58 c-23 -66 -26 -125 -8 -143 7 -7 24 -12 39 -12 23 0 28 5 34 37 4 20 18 57 31 82 13 25 24 54 24 64 0 9 -18 37 -40 61 -29 31 -40 52 -40 75 0 17 5 31 10 31 6 0 10 9 10 20 0 25 20 26 27 1 2 -10 25 -35 50 -56 44 -37 45 -39 38 -82 -8 -57 8 -82 36 -57 11 10 19 23 19 30 0 7 14 29 31 49 l31 35 39 -35 c57 -51 96 -45 154 22 29 33 33 35 74 28 23 -4 45 -13 47 -19 4 -11 -41 -184 -50 -193 -2 -2 -24 2 -50 9 -43 11 -51 11 -89 -10 -23 -12 -46 -22 -50 -22 -26 0 -80 -37 -94 -64 -9 -17 -29 -46 -45 -64 -23 -27 -28 -42 -27 -75 1 -23 -4 -55 -10 -72 -18 -43 12 -161 50 -196 15 -14 31 -38 35 -53 8 -34 46 -64 92 -72 32 -6 46 -4 105 21 14 6 17 2 17 -27 0 -49 24 -78 64 -78 18 0 35 -3 38 -6 3 -3 -16 -47 -42 -97 -26 -51 -62 -130 -78 -177 -52 -144 -162 -518 -194 -655 -16 -71 -46 -206 -68 -300 -57 -250 -74 -408 -74 -685 -1 -326 10 -1003 24 -1515 12 -424 11 -482 -9 -760 -28 -363 -36 -411 -81 -460 -37 -40 -50 -68 -50 -106 0 -26 -10 -42 -53 -81 -52 -49 -124 -106 -210 -165 -84 -58 -71 -116 29 -129 68 -8 144 6 288 55 117 40 166 62 205 92 53 42 124 31 169 -26 14 -17 30 -25 50 -25 17 0 42 -5 55 -11 20 -9 30 -8 50 6 24 15 30 15 109 -9 106 -31 254 -51 290 -37 17 6 49 6 96 -1 60 -10 77 -9 114 5 24 10 47 17 50 17 4 0 5 -29 1 -64 -5 -60 -4 -66 20 -90 54 -54 130 -29 251 84 74 68 77 70 128 70 86 1 252 26 286 44 18 9 44 34 58 56 30 45 43 49 69 20 23 -25 51 -25 117 1 54 21 204 34 214 18 3 -5 16 -9 30 -9 28 0 31 19 9 54 -19 29 -89 196 -126 303 -62 176 -155 585 -174 763 -3 30 -14 116 -25 190 -24 174 -27 206 -40 445 -14 268 -17 317 -35 545 -18 244 -32 438 -45 650 -13 221 -27 408 -47 625 -11 129 -14 225 -9 340 13 292 -21 836 -66 1056 -12 58 -18 112 -14 120 4 8 13 25 21 39 29 50 9 254 -34 337 -11 22 -35 58 -55 82 -52 62 -125 183 -132 218 -5 26 -2 33 17 44 13 6 26 15 29 18 3 4 41 35 85 69 44 35 115 104 158 155 157 186 197 236 206 259 13 35 -4 121 -39 196 -34 73 -127 232 -145 247 -7 6 -48 66 -93 135 -44 69 -111 171 -148 228 -42 66 -82 115 -110 135 -46 34 -52 51 -29 81 20 27 19 59 -5 98 -26 44 -25 78 5 138 31 61 31 83 1 146 -89 188 -88 180 -51 220 14 15 28 38 31 51 12 45 -6 112 -42 156 -57 71 -60 81 -40 141 23 68 11 113 -46 173 l-40 41 7 71 c16 160 -79 291 -210 291 -20 0 -53 9 -75 20 -25 13 -59 20 -94 20 -48 0 -60 -4 -90 -31z m719 -2404 c29 -45 58 -86 64 -89 6 -4 11 -15 10 -24 -1 -20 -106 -118 -116 -108 -4 3 -10 64 -14 134 -4 70 -11 140 -15 156 -11 45 10 25 71 -69z" />
  </g>
</svg>
