<?xml version="1.0" encoding="UTF-8" standalone="no"?>
<svg
   xmlns:dc="http://purl.org/dc/elements/1.1/"
   xmlns:cc="http://creativecommons.org/ns#"
   xmlns:rdf="http://www.w3.org/1999/02/22-rdf-syntax-ns#"
   xmlns:svg="http://www.w3.org/2000/svg"
   xmlns="http://www.w3.org/2000/svg"
   xmlns:sodipodi="http://sodipodi.sourceforge.net/DTD/sodipodi-0.dtd"
   xmlns:inkscape="http://www.inkscape.org/namespaces/inkscape"
   inkscape:version="1.0 (4035a4fb49, 2020-05-01)"
   sodipodi:docname="shade1.svg"
   id="svg8"
   preserveAspectRatio="xMidYMid meet"
   viewBox="0 0 911.000000 1280.000000"
   height="1280.000000pt"
   width="911.000000pt"
   version="1.0">
  <defs
     id="defs12" />
  <sodipodi:namedview
     inkscape:current-layer="svg8"
     inkscape:window-maximized="0"
     inkscape:window-y="0"
     inkscape:window-x="0"
     inkscape:cy="831.55198"
     inkscape:cx="611.64615"
     inkscape:zoom="0.11145218"
     showgrid="false"
     id="namedview10"
     inkscape:window-height="480"
     inkscape:window-width="876"
     inkscape:pageshadow="2"
     inkscape:pageopacity="0"
     guidetolerance="10"
     gridtolerance="10"
     objecttolerance="10"
     borderopacity="1"
     bordercolor="#666666"
     pagecolor="#ffffff" />
  <metadata
     id="metadata2">
Created by potrace 1.15, written by Peter Selinger 2001-2017
<rdf:RDF>
  <cc:Work
     rdf:about="">
    <dc:format>image/svg+xml</dc:format>
    <dc:type
       rdf:resource="http://purl.org/dc/dcmitype/StillImage" />
    <dc:title></dc:title>
  </cc:Work>
</rdf:RDF>
</metadata>
  <g
     id="g6"
     stroke="none"
     fill="#000000"
     transform="translate(0.000000,1280.000000) scale(0.100000,-0.100000)">
    <path
       id="path4"
       d="M7431 12784 c-12 -9 -51 -27 -84 -39 -267 -99 -305 -115 -727 -303 -311 -138 -487 -208 -745 -297 -132 -45 -265 -93 -295 -107 -30 -14 -73 -31 -95 -38 -22 -7 -101 -40 -175 -73 -74 -33 -211 -86 -304 -117 -93 -32 -182 -68 -197 -79 -16 -12 -34 -21 -41 -21 -7 0 -38 -17 -68 -37 -43 -29 -63 -36 -93 -34 -22 1 -47 -4 -56 -12 -18 -15 -114 -57 -131 -57 -6 0 -41 -14 -77 -31 -42 -19 -75 -29 -92 -26 -19 4 -35 -3 -63 -29 -41 -37 -56 -42 -64 -20 -3 8 -21 17 -40 21 -21 4 -55 24 -87 53 -107 97 -100 95 -255 89 -133 -6 -201 -13 -232 -24 -8 -3 -39 -7 -69 -9 -54 -3 -108 -27 -122 -54 -4 -8 -10 -27 -14 -42 -3 -19 -12 -28 -24 -28 -34 0 -45 -27 -65 -151 -13 -80 -5 -115 40 -176 15 -21 14 -22 -15 -37 -16 -9 -40 -16 -53 -16 -27 0 -92 -22 -165 -56 -30 -13 -61 -24 -71 -24 -10 0 -33 -9 -52 -20 -132 -76 -504 -237 -705 -306 -77 -26 -149 -53 -160 -60 -11 -6 -58 -24 -105 -39 -47 -16 -148 -57 -225 -92 -184 -85 -432 -185 -575 -233 -30 -10 -140 -48 -245 -85 -104 -36 -255 -88 -335 -115 -80 -27 -219 -78 -309 -115 -90 -36 -180 -69 -199 -73 -20 -4 -37 -12 -39 -18 -6 -19 65 -101 103 -119 32 -15 53 -17 138 -11 171 12 420 53 766 128 151 32 298 64 325 69 93 20 280 70 315 86 19 8 69 21 110 28 41 7 136 29 210 48 74 19 158 37 185 41 64 8 199 47 502 146 133 44 264 85 290 90 26 6 54 17 63 24 8 7 31 18 50 25 30 10 37 9 47 -6 7 -9 13 -20 13 -24 0 -3 13 -12 29 -18 23 -10 38 -9 87 8 32 11 86 26 119 34 84 21 292 82 407 119 l97 31 163 -98 c215 -129 229 -141 406 -332 71 -77 82 -91 82 -114 0 -24 -105 -158 -168 -214 -124 -112 -262 -391 -262 -531 0 -19 14 -82 32 -142 l31 -107 -11 -190 c-7 -104 -12 -253 -12 -330 l0 -140 42 -87 c23 -49 47 -88 53 -88 25 0 35 -59 45 -260 12 -261 33 -343 145 -584 25 -53 26 -61 15 -96 -15 -45 -10 -76 31 -195 24 -68 34 -119 41 -210 5 -66 12 -147 15 -180 12 -136 -1 -289 -32 -367 -5 -12 4 -27 30 -51 44 -40 43 -57 -7 -164 -21 -45 -32 -86 -36 -132 -5 -81 6 -98 58 -79 30 10 35 9 52 -12 28 -34 32 -66 19 -139 -13 -72 -5 -132 27 -196 36 -75 63 -82 108 -28 39 46 58 40 87 -27 11 -27 27 -52 35 -55 7 -3 33 0 58 6 72 18 77 12 72 -87 -2 -47 -1 -87 3 -90 7 -4 43 -117 84 -264 9 -30 25 -82 37 -115 11 -33 25 -78 31 -100 17 -68 66 -204 82 -228 8 -12 32 -70 54 -128 21 -58 46 -119 55 -137 29 -55 35 -46 -164 -266 -36 -40 -82 -95 -103 -122 -54 -69 -270 -263 -342 -306 -33 -20 -80 -42 -105 -48 -48 -13 -61 -25 -52 -48 4 -12 24 -14 126 -8 137 7 309 31 375 52 25 8 57 14 72 14 35 0 246 71 325 110 34 17 64 30 68 30 3 0 6 -25 6 -55 0 -53 2 -58 53 -113 107 -116 119 -143 175 -377 16 -66 52 -192 79 -280 28 -88 62 -216 76 -285 15 -69 39 -159 53 -200 14 -41 41 -118 60 -171 18 -53 41 -113 52 -132 10 -19 45 -116 76 -214 32 -98 71 -218 88 -268 16 -49 42 -130 58 -180 41 -132 239 -572 290 -645 43 -61 114 -200 130 -255 10 -33 35 -100 56 -150 33 -78 38 -100 38 -165 0 -41 -4 -95 -9 -119 -10 -55 -2 -61 96 -61 l76 0 41 43 c59 65 122 206 122 275 0 44 5 62 26 90 26 34 27 36 20 146 -6 97 -11 120 -41 183 -18 39 -39 74 -44 78 -18 10 -50 79 -61 130 -9 41 -6 64 24 188 24 100 36 174 39 251 l5 108 -35 39 c-22 24 -52 44 -84 54 -27 9 -49 19 -49 23 0 3 12 19 27 34 19 20 37 28 60 28 20 0 36 6 39 14 7 17 145 86 173 86 32 0 65 19 81 47 11 17 35 31 80 46 59 20 65 25 63 48 -1 23 7 29 69 58 61 28 69 35 64 54 -4 18 6 31 57 70 34 26 70 54 81 61 15 10 17 16 7 34 -10 19 -7 24 28 47 42 26 91 98 91 133 0 13 11 27 28 36 46 24 85 72 79 97 -4 17 5 32 43 69 31 30 52 61 59 86 7 25 28 56 56 84 46 45 58 83 33 108 -25 25 -57 11 -133 -58 -65 -59 -185 -140 -208 -140 -15 0 -5 44 24 105 22 47 29 76 27 107 -3 40 -5 43 -35 46 -28 3 -32 0 -43 -34 -31 -93 -62 -145 -108 -179 -26 -19 -67 -49 -91 -67 -101 -75 -344 -171 -429 -169 -22 0 -82 -26 -188 -81 -197 -103 -213 -122 -225 -267 -14 -159 -32 -245 -52 -238 -6 2 -11 138 -13 317 -3 351 -8 451 -21 495 -7 21 -5 37 4 55 17 33 16 61 -3 88 -13 19 -14 28 -4 52 9 22 9 40 -1 82 -6 29 -15 82 -19 118 -13 109 -36 213 -57 255 -12 22 -28 69 -37 105 -9 36 -37 100 -61 143 -25 42 -55 101 -66 130 -11 28 -27 62 -34 73 -8 12 -30 52 -50 90 -33 61 -37 80 -46 186 l-10 118 46 53 c26 28 64 62 85 74 20 12 48 40 63 61 14 22 70 86 124 143 54 58 144 156 201 219 56 63 124 133 150 155 26 21 72 67 102 102 63 72 312 297 362 327 19 12 54 37 79 57 24 20 64 43 88 53 23 9 59 28 79 41 20 14 42 25 48 25 6 0 17 6 23 14 18 21 154 66 202 66 36 0 47 -6 80 -40 38 -40 40 -41 90 -34 32 4 62 16 80 31 48 41 41 81 -41 232 -38 71 -70 134 -70 139 0 13 87 85 170 141 36 25 75 53 87 64 26 23 55 16 78 -20 16 -23 21 -25 68 -18 58 7 113 37 122 65 3 10 26 28 51 40 30 15 51 34 63 59 11 20 29 45 41 56 12 11 31 38 42 60 11 22 32 55 46 74 14 19 28 51 32 70 5 31 9 36 30 33 116 -15 130 -14 165 12 42 32 50 57 32 92 -12 24 -12 31 1 54 15 25 14 28 -26 81 -62 80 -91 107 -151 136 -91 45 -145 28 -157 -49 -4 -21 -11 -41 -15 -44 -5 -3 -35 21 -67 54 -31 33 -80 76 -109 95 -92 64 -193 183 -193 229 0 16 -10 38 -22 50 -22 22 -49 83 -69 158 -11 39 -23 68 -50 121 -11 20 -19 45 -19 55 0 10 -11 30 -25 44 -24 25 -58 101 -74 165 -4 17 -13 41 -20 54 -7 12 -10 33 -7 46 5 18 -1 28 -24 45 -16 12 -33 33 -37 48 -3 15 -12 36 -19 47 -7 11 -18 40 -24 65 -14 51 -54 113 -99 152 -17 14 -31 36 -31 47 0 12 -9 39 -19 59 -21 42 -56 63 -170 102 -60 20 -78 31 -91 55 -9 17 -31 40 -48 52 -18 11 -47 40 -65 63 -52 68 -122 130 -196 174 -141 83 -333 218 -338 236 -3 11 -14 22 -24 25 -22 7 -59 56 -59 79 0 8 -13 30 -28 48 -16 18 -41 59 -55 91 -14 31 -31 57 -36 57 -6 0 -11 4 -11 9 0 23 -159 170 -205 190 -27 12 -74 45 -104 74 -31 29 -72 63 -92 75 -39 24 -63 60 -57 88 3 16 39 43 121 89 26 15 31 15 45 1 10 -8 30 -20 46 -26 34 -13 52 -2 61 39 l6 28 162 12 c208 16 325 36 386 67 27 13 53 24 58 24 4 0 37 25 73 56 132 113 158 143 187 211 80 189 94 243 91 345 -1 42 0 80 3 83 4 3 35 -11 70 -31 72 -41 162 -57 265 -47 l61 5 5 -73 c3 -41 13 -94 23 -119 67 -175 74 -205 75 -292 0 -49 -9 -128 -21 -185 -39 -188 -49 -249 -64 -373 -29 -241 -14 -606 31 -775 14 -55 30 -118 36 -139 15 -65 74 -166 149 -256 39 -47 95 -116 124 -155 72 -95 130 -149 149 -142 29 11 17 47 -32 100 -59 64 -112 132 -112 144 0 5 -13 27 -30 49 -16 22 -32 60 -36 83 -4 24 -17 55 -30 71 -13 15 -22 35 -19 43 6 15 -38 225 -56 267 -29 67 -29 383 1 500 48 194 109 360 235 645 57 128 105 268 130 376 8 36 27 87 41 113 17 31 24 56 21 74 -3 15 1 83 8 152 7 69 10 127 6 130 -18 11 -21 58 -5 71 10 8 13 20 9 33 -12 41 -36 142 -42 176 -3 19 -10 40 -15 47 -5 7 -7 21 -4 31 4 12 -2 34 -14 54 -11 19 -29 61 -40 93 -11 32 -28 70 -38 84 -9 15 -22 38 -28 52 -7 15 -34 51 -61 81 -26 29 -77 88 -113 130 -60 72 -72 81 -178 133 -238 117 -379 146 -620 126 -81 -6 -176 -18 -212 -27 -36 -8 -85 -19 -110 -25 -51 -11 -63 -20 -58 -45 2 -12 22 -24 65 -36 49 -15 74 -30 122 -76 41 -39 63 -68 67 -90 8 -42 38 -62 90 -62 58 0 119 -24 182 -71 113 -85 125 -219 20 -219 -30 0 -39 6 -66 44 -52 72 -123 106 -151 72 -9 -11 -6 -21 16 -46 l27 -33 -61 7 c-38 4 -70 3 -85 -5 -22 -9 -34 -6 -94 28 -38 21 -114 58 -169 81 -55 24 -107 47 -116 52 -29 15 -164 40 -187 33 -12 -3 -22 -1 -22 4 0 12 -100 4 -117 -9 -7 -5 -13 -28 -15 -51 -3 -38 -6 -42 -32 -45 -16 -2 -33 1 -39 7 -6 6 -24 11 -39 11 -23 0 -28 -4 -28 -24 0 -31 -27 -58 -50 -51 -10 3 -80 7 -156 9 -76 2 -140 8 -141 13 -6 17 -91 6 -122 -16 -27 -19 -30 -28 -33 -79 l-3 -57 -33 0 c-28 0 -38 -7 -62 -41 -15 -23 -31 -51 -34 -62 -4 -12 -16 -24 -26 -27 -26 -8 -34 -39 -20 -81 17 -51 5 -60 -65 -46 -66 13 -80 8 -138 -46 -33 -32 -36 -40 -31 -72 10 -55 27 -80 103 -154 76 -73 83 -89 103 -212 12 -77 6 -122 -18 -131 -15 -6 -46 19 -122 100 -27 28 -53 43 -106 59 -39 11 -78 26 -86 33 -8 7 -37 17 -63 24 -27 6 -59 18 -70 26 -34 21 -255 85 -296 85 -20 0 -48 8 -62 18 -15 9 -53 34 -85 56 -68 44 -134 105 -134 122 0 7 22 31 50 54 43 36 49 46 47 73 -2 29 3 34 43 54 25 12 67 29 94 38 26 8 118 48 202 90 85 41 156 75 158 75 17 0 501 239 539 266 26 19 81 52 122 74 41 21 88 48 104 59 16 12 34 21 40 21 6 0 41 20 78 45 37 25 72 45 79 45 20 0 221 108 419 225 105 62 236 139 292 171 94 55 334 214 463 307 125 90 158 140 145 220 -13 84 -20 91 -64 61z m-1126 -4021 c73 -31 123 -66 155 -110 14 -18 88 -89 164 -159 130 -116 148 -130 272 -190 107 -52 142 -75 177 -114 46 -51 87 -126 87 -158 0 -9 14 -34 30 -54 17 -20 47 -76 67 -125 50 -121 89 -179 180 -270 142 -142 217 -239 275 -356 57 -117 132 -238 184 -299 65 -76 104 -138 104 -165 0 -13 -18 -52 -40 -85 -35 -54 -40 -69 -40 -120 0 -45 -7 -72 -30 -118 -26 -51 -30 -71 -30 -137 0 -67 -3 -82 -24 -108 l-24 -30 -58 40 c-32 22 -75 54 -94 71 -19 18 -53 39 -74 48 -38 16 -40 16 -73 -6 -33 -23 -83 -106 -83 -140 0 -11 13 -23 33 -31 51 -22 60 -40 54 -105 -12 -134 -172 -363 -327 -468 -19 -13 -53 -39 -76 -57 -155 -123 -199 -157 -249 -192 -32 -22 -78 -59 -104 -81 -25 -23 -59 -49 -76 -58 -16 -9 -50 -32 -75 -51 -25 -19 -61 -46 -80 -59 -19 -13 -82 -62 -140 -109 -58 -47 -108 -82 -112 -79 -4 4 -12 88 -18 187 -5 99 -13 209 -16 245 -4 36 -8 81 -9 100 -3 44 -39 173 -65 234 -27 63 -19 80 34 71 23 -3 78 -9 124 -11 103 -7 159 10 241 72 32 24 63 44 67 44 5 0 23 11 39 24 37 30 28 42 -38 55 -27 5 -50 11 -54 14 -3 3 7 17 21 30 18 17 52 30 104 41 95 21 183 63 250 120 l51 44 -45 32 c-27 19 -44 38 -42 48 5 27 48 42 101 36 41 -6 51 -4 73 17 23 21 25 29 19 73 -4 27 -18 73 -31 103 -26 58 -27 55 36 71 31 8 35 12 34 40 -2 39 -30 79 -93 131 -38 32 -67 46 -127 61 -42 11 -90 20 -105 20 -43 0 -62 10 -49 26 25 29 -45 98 -109 109 -22 3 -63 22 -93 41 -29 18 -81 47 -116 64 -55 27 -65 36 -83 78 -20 47 -55 92 -71 92 -22 0 -265 103 -293 124 -33 26 -105 141 -105 170 0 18 28 23 165 30 67 3 117 12 153 25 29 12 57 21 62 21 14 0 60 -76 80 -131 10 -25 36 -70 59 -99 23 -29 60 -90 82 -136 67 -142 113 -179 235 -190 78 -7 239 11 290 32 l35 14 18 -43 c10 -24 30 -51 45 -60 17 -12 31 -35 41 -71 16 -54 34 -84 85 -141 15 -16 30 -45 34 -64 3 -18 22 -60 42 -92 31 -52 35 -64 29 -104 -8 -52 0 -95 18 -95 8 0 19 32 30 82 13 62 24 89 43 107 20 18 24 29 19 50 -3 14 -10 55 -15 91 -15 112 -28 163 -53 218 -21 45 -33 57 -74 77 -26 12 -67 41 -90 64 -23 22 -49 41 -57 41 -27 0 -18 21 34 76 43 45 50 58 50 93 0 22 -6 55 -14 73 -8 18 -27 67 -42 108 -19 47 -42 88 -65 111 -36 36 -232 139 -264 139 -9 0 -32 15 -51 34 -38 38 -98 76 -120 76 -8 0 -49 18 -90 40 -42 22 -81 40 -88 40 -6 0 -44 29 -85 64 -67 60 -82 68 -184 101 -159 50 -245 63 -408 59 l-139 -3 0 39 c0 90 49 168 151 242 89 65 168 161 191 232 6 17 28 54 49 82 22 28 39 55 39 60 0 26 23 33 59 17 20 -8 63 -26 96 -40z m-135 -893 c90 -31 160 -70 160 -90 0 -13 -147 -58 -231 -71 -39 -6 -94 -8 -122 -5 -165 18 -156 15 -182 55 -18 30 -32 40 -67 47 -32 7 -44 14 -46 30 -2 11 4 26 12 33 27 22 157 40 271 37 93 -3 124 -8 205 -36z m465 -126 c103 -54 106 -71 33 -172 -76 -102 -120 -115 -185 -52 -37 36 -53 100 -31 129 104 141 100 138 183 95z m1556 -1394 c26 -14 24 -38 -3 -50 -13 -5 -52 -34 -88 -64 -35 -31 -68 -56 -72 -56 -27 0 28 122 74 163 23 19 60 22 89 7z" />
  </g>
</svg>
