<?xml version="1.0" standalone="no"?>
<!DOCTYPE svg PUBLIC "-//W3C//DTD SVG 20010904//EN"
 "http://www.w3.org/TR/2001/REC-SVG-20010904/DTD/svg10.dtd">
<svg version="1.0" xmlns="http://www.w3.org/2000/svg"
 width="960.000000pt" height="1280.000000pt" viewBox="0 0 960.000000 1280.000000"
 preserveAspectRatio="xMidYMid meet">
<metadata>
Created by potrace 1.15, written by Peter Selinger 2001-2017
</metadata>
<g transform="translate(0.000000,1280.000000) scale(0.100000,-0.100000)"
fill="#000000" stroke="none">
<path d="M4606 11513 c-159 -153 -478 -655 -755 -1184 -78 -149 -82 -156 -109
-152 -23 4 -24 3 -9 -7 24 -15 12 -30 -24 -30 -39 0 -74 -24 -89 -61 -7 -16
-25 -36 -41 -44 -15 -8 -31 -21 -35 -27 -6 -10 -4 -11 7 0 20 18 33 15 18 -5
-12 -16 -12 -16 1 -6 8 6 29 13 45 15 24 2 30 8 31 27 1 23 27 51 47 51 10 0
-2 -44 -14 -48 -5 -2 -7 -8 -3 -13 3 -5 1 -9 -5 -9 -6 0 -8 -7 -4 -16 9 -24
-27 -94 -49 -94 -12 0 -18 -7 -18 -22 0 -13 -7 -32 -15 -42 -8 -11 -15 -28
-15 -38 0 -35 -18 -18 -29 28 -7 26 -14 44 -17 41 -3 -3 2 -32 11 -65 l17 -61
-390 -768 c-642 -1266 -1205 -2385 -1307 -2603 -54 -113 -131 -286 -172 -385
-93 -223 -93 -223 -139 -265 -124 -116 -209 -212 -233 -265 -61 -132 -75 -158
-108 -197 -20 -24 -42 -57 -51 -75 -8 -17 -25 -34 -38 -37 -31 -8 -116 -77
-133 -108 -9 -18 -48 -43 -130 -82 -65 -31 -122 -56 -128 -56 -27 0 -134 -141
-206 -270 -43 -79 -107 -226 -107 -248 0 -24 51 -72 77 -72 13 0 41 9 63 20
46 23 50 24 51 8 0 -7 24 -53 53 -103 37 -64 65 -98 94 -118 23 -16 42 -32 42
-38 0 -13 -60 -109 -91 -146 -15 -17 -30 -40 -33 -50 -3 -10 -20 -27 -36 -37
-49 -28 -85 -91 -87 -151 0 -29 -8 -65 -16 -81 -8 -16 -20 -54 -27 -84 -7 -30
-20 -63 -28 -73 -9 -10 -18 -43 -20 -75 -3 -47 0 -63 20 -91 37 -55 71 -74
135 -78 79 -5 129 23 163 92 14 28 38 63 53 79 15 17 35 46 44 65 9 20 34 51
55 70 51 44 70 84 70 145 0 28 5 59 10 69 5 10 16 43 24 73 21 82 103 256 130
277 16 13 24 29 24 50 1 18 16 61 34 95 l32 64 16 -40 c18 -46 62 -81 85 -66
8 5 28 41 45 79 33 73 51 182 50 287 -1 48 2 58 19 63 10 4 41 28 67 54 26 27
57 51 69 55 11 4 40 27 63 52 29 32 59 51 98 65 31 12 75 29 97 39 62 27 140
50 172 50 37 0 112 48 146 92 29 38 57 108 57 143 0 12 7 29 16 36 9 8 37 44
62 82 30 46 62 80 97 103 28 19 67 55 86 80 34 46 142 138 349 299 230 178
375 303 553 474 133 128 151 142 179 139 50 -5 69 -41 75 -140 4 -63 1 -97
-11 -134 -10 -32 -18 -97 -20 -184 -4 -119 -3 -140 15 -176 27 -57 115 -355
134 -455 14 -77 20 -179 10 -179 -2 0 -15 11 -28 24 -14 14 -42 27 -63 31 -22
3 -54 10 -72 16 -49 16 -90 14 -110 -4 -10 -10 -23 -17 -29 -17 -16 0 -32 -54
-22 -72 5 -9 5 -48 -1 -93 -9 -71 -8 -78 12 -106 12 -16 28 -27 35 -25 7 3 13
1 13 -3 0 -5 -7 -11 -15 -15 -24 -9 -18 -30 20 -66 19 -19 35 -37 35 -42 0 -4
-43 -64 -96 -133 -82 -108 -204 -292 -344 -520 -131 -212 -189 -378 -210 -592
-19 -202 -5 -390 40 -536 28 -90 102 -266 146 -346 43 -79 59 -190 51 -357 -5
-96 -11 -122 -39 -190 l-33 -79 1 -200 c0 -122 7 -255 17 -340 9 -77 21 -221
27 -320 19 -326 40 -527 60 -572 18 -41 19 -42 131 -77 148 -47 258 -60 441
-52 212 10 267 31 268 104 0 9 7 26 15 36 17 22 20 82 6 119 -5 13 -32 48 -59
78 -42 46 -55 69 -73 135 -13 43 -31 88 -40 99 -34 40 -93 191 -136 345 -26
96 -74 357 -80 440 l-5 55 47 23 c26 13 49 22 50 20 5 -6 76 -268 85 -319 6
-30 15 -128 20 -219 5 -92 16 -188 25 -217 22 -73 80 -122 182 -154 152 -47
507 -27 561 32 10 10 24 39 31 65 12 41 12 51 0 73 -20 35 -172 156 -231 184
-32 15 -47 28 -48 42 0 11 -7 29 -15 39 -20 26 -19 117 1 164 9 20 27 69 39
107 l23 70 64 -3 c80 -5 250 -75 608 -253 288 -144 357 -186 695 -424 288
-202 291 -206 325 -258 31 -49 98 -112 155 -147 22 -13 85 -60 140 -104 55
-43 128 -92 162 -108 146 -69 303 -38 441 87 114 104 155 237 132 435 -21 190
-63 373 -117 509 -22 56 -24 69 -14 95 10 28 7 39 -30 115 -41 82 -43 85 -101
110 l-59 26 -151 250 c-212 352 -300 476 -536 760 -77 92 -100 126 -100 148 1
16 -9 39 -23 55 -14 15 -65 72 -114 127 -50 55 -151 163 -226 240 -219 226
-223 238 -214 574 7 222 9 244 25 248 20 5 25 28 36 136 6 62 10 69 35 83 27
14 29 18 29 77 0 36 6 71 13 81 19 26 9 72 -19 91 -13 8 -24 22 -24 31 0 9
-17 22 -39 31 l-38 15 -7 86 c-3 48 -13 112 -22 142 -9 30 -16 62 -16 70 0 8
18 85 41 170 76 286 91 354 109 497 l17 142 60 39 c72 46 192 177 205 224 6
18 10 72 10 121 0 98 -21 176 -72 265 -16 28 -25 52 -20 52 6 0 46 -33 89 -73
43 -40 90 -80 104 -89 15 -9 44 -40 65 -68 39 -50 113 -95 215 -131 34 -11 37
-16 43 -60 8 -60 27 -80 74 -78 21 1 62 -2 94 -6 35 -5 68 -3 88 3 27 10 36 8
58 -8 15 -11 54 -24 87 -30 33 -5 122 -23 197 -39 76 -16 207 -39 292 -50 119
-15 162 -25 183 -40 20 -15 51 -23 105 -27 50 -5 79 -12 82 -20 6 -15 -10 -13
-139 17 -189 43 -449 89 -510 89 -73 0 -75 -2 -78 -70 -2 -43 -1 -45 43 -66
25 -13 70 -28 100 -34 30 -6 120 -27 200 -45 80 -19 203 -46 274 -60 70 -15
156 -36 189 -48 53 -19 63 -28 84 -66 13 -25 49 -72 81 -105 32 -34 67 -74 77
-90 22 -34 161 -146 181 -146 23 0 47 47 40 80 -3 17 -1 30 4 30 6 0 10 -6 10
-14 0 -7 7 -19 15 -26 12 -10 21 -8 48 8 19 10 51 25 73 32 21 7 57 27 80 45
92 75 232 82 499 26 77 -16 167 -32 200 -36 33 -4 107 -16 164 -26 58 -11 131
-19 162 -19 l57 0 11 51 c8 38 8 55 0 65 -6 8 -52 27 -103 43 -89 29 -152 42
-485 102 -264 48 -278 52 -367 117 -34 25 -42 38 -54 87 -17 70 -45 106 -102
129 -54 22 -76 34 -125 69 -44 31 -211 101 -282 119 -25 6 -63 22 -84 35 -30
19 -36 28 -32 46 5 17 -1 26 -27 41 -18 11 -57 37 -86 59 -40 30 -64 41 -99
43 -32 3 -78 21 -152 60 -133 70 -409 254 -468 310 -46 46 -98 66 -142 58 -21
-4 -30 1 -48 30 -19 30 -34 39 -95 57 -40 12 -80 28 -89 35 -27 24 -55 16 -93
-27 l-37 -40 -49 16 c-26 9 -51 23 -54 30 -3 8 -30 30 -59 49 -65 42 -134 117
-230 250 -39 54 -91 121 -117 150 -45 50 -180 245 -180 261 0 4 18 -9 40 -29
46 -41 76 -45 115 -15 21 17 26 28 22 48 -5 24 2 30 104 84 102 55 112 58 128
43 10 -9 22 -16 29 -16 16 0 77 75 129 158 43 69 45 76 40 127 -10 97 -25 106
-149 86 -32 -5 -57 -4 -78 5 -34 15 -409 108 -476 119 -73 11 -223 -24 -361
-86 l-63 -28 -45 20 c-56 25 -74 20 -175 -45 l-69 -45 -19 27 c-18 25 -18 38
-10 187 7 131 13 171 32 220 31 78 43 125 51 206 6 59 9 65 28 63 12 -1 26 -3
31 -3 4 -1 6 -8 2 -16 -3 -8 -1 -15 4 -15 4 0 12 -15 16 -32 8 -33 9 -49 12
-170 1 -43 6 -68 13 -68 8 0 9 11 5 32 -7 37 13 200 25 192 4 -2 5 -21 2 -41
-5 -27 -3 -35 8 -31 34 11 31 105 -7 163 -18 28 -31 110 -16 101 9 -5 12 20
12 93 0 54 3 107 7 117 4 12 3 15 -5 10 -16 -10 -15 4 3 49 19 44 18 143 -2
176 -11 19 -13 20 -8 4 5 -17 3 -17 -18 5 -18 19 -21 26 -10 30 10 4 8 11 -11
28 -23 20 -56 81 -56 104 0 6 9 0 20 -13 22 -27 26 -19 8 14 -17 31 -38 89
-38 108 0 19 -34 51 -78 74 -19 9 -32 19 -29 22 3 2 15 -1 27 -7 32 -17 34 -6
5 29 -21 24 -26 39 -23 68 3 33 0 38 -20 41 -18 3 -21 7 -12 16 8 10 3 16 -20
26 -16 7 -30 17 -30 22 0 13 -42 47 -57 48 -12 0 -17 13 -14 33 0 4 -5 7 -12
7 -8 0 -27 11 -42 24 -16 14 -31 25 -34 24 -39 -4 -42 2 -40 60 3 88 0 110
-11 92 -12 -19 -17 -13 -56 71 -18 40 -40 81 -48 91 -17 19 -62 24 -86 8 -11
-7 -6 -8 17 -4 21 4 39 2 50 -7 14 -12 11 -15 -28 -20 -24 -4 -50 -2 -56 3 -7
6 -13 7 -13 3 0 -4 -7 -1 -16 6 -14 12 -18 11 -27 -2 -9 -15 -13 -15 -43 3
-20 12 -41 17 -54 13 -11 -3 -20 -2 -20 3 0 5 39 92 86 193 223 476 344 817
348 978 1 59 -1 66 -19 69 -12 2 -35 -12 -59 -35z m-63 -1350 c2 -5 7 -20 11
-35 5 -22 3 -25 -14 -21 -14 4 -20 14 -20 34 0 27 13 39 23 22z m-825 -45 c-3
-7 -19 -16 -36 -20 -18 -5 -32 -12 -32 -16 0 -5 -7 -17 -15 -28 -14 -18 -14
-18 -15 -1 0 25 54 77 80 77 12 0 20 -5 18 -12z m909 -80 c-3 -7 -5 -2 -5 12
0 14 2 19 5 13 2 -7 2 -19 0 -25z m482 -815 c13 -13 17 -27 14 -50 -6 -41 -23
-33 -23 11 0 17 -5 37 -12 44 -19 19 1 14 21 -5z m-1514 -320 c10 -14 9 -20
-6 -37 -27 -28 -24 -92 7 -173 14 -37 34 -103 44 -146 17 -76 46 -132 68 -132
6 0 25 -18 41 -41 17 -22 51 -54 76 -69 25 -16 45 -33 45 -38 0 -4 5 -5 10 -2
6 4 26 -7 46 -24 53 -47 56 -36 3 12 -47 43 -99 107 -99 122 0 5 14 -4 31 -21
31 -28 30 -27 -5 20 -37 48 -37 49 -16 63 25 17 22 20 49 -34 11 -23 42 -66
69 -97 63 -72 91 -148 74 -204 -7 -22 -12 -74 -12 -116 l0 -77 -47 -50 c-26
-28 -60 -57 -75 -65 -16 -8 -31 -26 -34 -42 -4 -15 -15 -37 -24 -49 l-17 -22
-16 35 c-22 46 -42 52 -74 23 -29 -27 -73 -114 -73 -145 0 -21 -1 -21 -249
-16 l-248 5 -57 -26 c-48 -22 -97 -52 -253 -154 -29 -19 -28 -18 366 787 155
316 298 610 318 653 20 42 38 77 41 77 3 0 10 -8 17 -17z m177 -463 c14 -14
41 -51 58 -83 27 -50 29 -57 12 -48 -30 16 -85 83 -117 143 -28 52 -28 53 -4
33 13 -11 36 -31 51 -45z m-62 -14 c0 -12 -5 -7 -19 24 -11 24 -11 24 3 6 9
-11 16 -24 16 -30z m251 -664 c-17 -33 -36 -64 -43 -68 -7 -5 -5 4 5 20 11 15
17 36 14 47 -5 17 40 75 50 65 2 -2 -9 -31 -26 -64z m1929 -167 c0 -33 -23
-42 -55 -21 -41 27 -33 35 43 45 7 0 12 -10 12 -24z m-2795 -587 c-20 -24 -82
-99 -137 -167 -56 -68 -247 -276 -425 -462 -293 -306 -418 -427 -430 -415 -6
6 101 216 220 432 57 104 147 273 201 375 l96 186 80 5 c63 4 85 9 103 26 17
16 52 25 152 40 193 29 183 30 140 -20z"/>
<path d="M4330 10306 c0 -2 7 -7 16 -10 8 -3 12 -2 9 4 -6 10 -25 14 -25 6z"/>
<path d="M4576 10267 c3 -10 9 -15 12 -12 3 3 0 11 -7 18 -10 9 -11 8 -5 -6z"/>
<path d="M3601 9984 c0 -11 3 -14 6 -6 3 7 2 16 -1 19 -3 4 -6 -2 -5 -13z"/>
<path d="M3622 9980 c0 -14 2 -19 5 -12 2 6 2 18 0 25 -3 6 -5 1 -5 -13z"/>
<path d="M5100 8406 c0 -2 7 -9 15 -16 9 -7 15 -8 15 -2 0 5 -7 12 -15 16 -8
3 -15 4 -15 2z"/>
</g>
</svg>
